<svg width="108" height="49" viewBox="0 0 108 49" fill="none" xmlns="http://www.w3.org/2000/svg">
<g filter="url(#filter0_bdi)">
<path d="M19.9161 40.385C17.0928 40.385 14.5628 39.9267 12.3261 39.01C10.0895 38.0933 8.2928 36.7367 6.93613 34.94C5.61613 33.1433 4.91947 30.98 4.84613 28.45H14.8561C15.0028 29.88 15.4978 30.98 16.3411 31.75C17.1845 32.4833 18.2845 32.85 19.6411 32.85C21.0345 32.85 22.1345 32.5383 22.9411 31.915C23.7478 31.255 24.1511 30.3567 24.1511 29.22C24.1511 28.2667 23.8211 27.4783 23.1611 26.855C22.5378 26.2317 21.7495 25.7183 20.7961 25.315C19.8795 24.9117 18.5595 24.4533 16.8361 23.94C14.3428 23.17 12.3078 22.4 10.7311 21.63C9.15447 20.86 7.7978 19.7233 6.66113 18.22C5.52447 16.7167 4.95613 14.755 4.95613 12.335C4.95613 8.74167 6.2578 5.93667 8.86113 3.92C11.4645 1.86667 14.8561 0.839999 19.0361 0.839999C23.2895 0.839999 26.7178 1.86667 29.3211 3.92C31.9245 5.93667 33.3178 8.76 33.5011 12.39H23.3261C23.2528 11.1433 22.7945 10.1717 21.9511 9.475C21.1078 8.74166 20.0261 8.375 18.7061 8.375C17.5695 8.375 16.6528 8.68666 15.9561 9.31C15.2595 9.89666 14.9111 10.7583 14.9111 11.895C14.9111 13.1417 15.4978 14.1133 16.6711 14.81C17.8445 15.5067 19.6778 16.2583 22.1711 17.065C24.6645 17.9083 26.6811 18.715 28.2211 19.485C29.7978 20.255 31.1545 21.3733 32.2911 22.84C33.4278 24.3067 33.9961 26.195 33.9961 28.505C33.9961 30.705 33.4278 32.7033 32.2911 34.5C31.1911 36.2967 29.5778 37.7267 27.4511 38.79C25.3245 39.8533 22.8128 40.385 19.9161 40.385ZM54.219 33.18H39.809L37.499 40H27.654L41.624 1.39H52.514L66.484 40H56.529L54.219 33.18ZM51.799 25.92L47.014 11.785L42.284 25.92H51.799Z" fill="url(#paint0_linear)"/>
<path d="M19.9161 40.385C17.0928 40.385 14.5628 39.9267 12.3261 39.01C10.0895 38.0933 8.2928 36.7367 6.93613 34.94C5.61613 33.1433 4.91947 30.98 4.84613 28.45H14.8561C15.0028 29.88 15.4978 30.98 16.3411 31.75C17.1845 32.4833 18.2845 32.85 19.6411 32.85C21.0345 32.85 22.1345 32.5383 22.9411 31.915C23.7478 31.255 24.1511 30.3567 24.1511 29.22C24.1511 28.2667 23.8211 27.4783 23.1611 26.855C22.5378 26.2317 21.7495 25.7183 20.7961 25.315C19.8795 24.9117 18.5595 24.4533 16.8361 23.94C14.3428 23.17 12.3078 22.4 10.7311 21.63C9.15447 20.86 7.7978 19.7233 6.66113 18.22C5.52447 16.7167 4.95613 14.755 4.95613 12.335C4.95613 8.74167 6.2578 5.93667 8.86113 3.92C11.4645 1.86667 14.8561 0.839999 19.0361 0.839999C23.2895 0.839999 26.7178 1.86667 29.3211 3.92C31.9245 5.93667 33.3178 8.76 33.5011 12.39H23.3261C23.2528 11.1433 22.7945 10.1717 21.9511 9.475C21.1078 8.74166 20.0261 8.375 18.7061 8.375C17.5695 8.375 16.6528 8.68666 15.9561 9.31C15.2595 9.89666 14.9111 10.7583 14.9111 11.895C14.9111 13.1417 15.4978 14.1133 16.6711 14.81C17.8445 15.5067 19.6778 16.2583 22.1711 17.065C24.6645 17.9083 26.6811 18.715 28.2211 19.485C29.7978 20.255 31.1545 21.3733 32.2911 22.84C33.4278 24.3067 33.9961 26.195 33.9961 28.505C33.9961 30.705 33.4278 32.7033 32.2911 34.5C31.1911 36.2967 29.5778 37.7267 27.4511 38.79C25.3245 39.8533 22.8128 40.385 19.9161 40.385ZM54.219 33.18H39.809L37.499 40H27.654L41.624 1.39H52.514L66.484 40H56.529L54.219 33.18ZM51.799 25.92L47.014 11.785L42.284 25.92H51.799Z" fill="url(#paint1_linear)"/>
<path d="M19.9161 40.385C17.0928 40.385 14.5628 39.9267 12.3261 39.01C10.0895 38.0933 8.2928 36.7367 6.93613 34.94C5.61613 33.1433 4.91947 30.98 4.84613 28.45H14.8561C15.0028 29.88 15.4978 30.98 16.3411 31.75C17.1845 32.4833 18.2845 32.85 19.6411 32.85C21.0345 32.85 22.1345 32.5383 22.9411 31.915C23.7478 31.255 24.1511 30.3567 24.1511 29.22C24.1511 28.2667 23.8211 27.4783 23.1611 26.855C22.5378 26.2317 21.7495 25.7183 20.7961 25.315C19.8795 24.9117 18.5595 24.4533 16.8361 23.94C14.3428 23.17 12.3078 22.4 10.7311 21.63C9.15447 20.86 7.7978 19.7233 6.66113 18.22C5.52447 16.7167 4.95613 14.755 4.95613 12.335C4.95613 8.74167 6.2578 5.93667 8.86113 3.92C11.4645 1.86667 14.8561 0.839999 19.0361 0.839999C23.2895 0.839999 26.7178 1.86667 29.3211 3.92C31.9245 5.93667 33.3178 8.76 33.5011 12.39H23.3261C23.2528 11.1433 22.7945 10.1717 21.9511 9.475C21.1078 8.74166 20.0261 8.375 18.7061 8.375C17.5695 8.375 16.6528 8.68666 15.9561 9.31C15.2595 9.89666 14.9111 10.7583 14.9111 11.895C14.9111 13.1417 15.4978 14.1133 16.6711 14.81C17.8445 15.5067 19.6778 16.2583 22.1711 17.065C24.6645 17.9083 26.6811 18.715 28.2211 19.485C29.7978 20.255 31.1545 21.3733 32.2911 22.84C33.4278 24.3067 33.9961 26.195 33.9961 28.505C33.9961 30.705 33.4278 32.7033 32.2911 34.5C31.1911 36.2967 29.5778 37.7267 27.4511 38.79C25.3245 39.8533 22.8128 40.385 19.9161 40.385ZM54.219 33.18H39.809L37.499 40H27.654L41.624 1.39H52.514L66.484 40H56.529L54.219 33.18ZM51.799 25.92L47.014 11.785L42.284 25.92H51.799Z" fill="url(#paint2_linear)"/>
<path d="M71.3316 18.85V31.12C71.3316 32.26 71.5916 33.14 72.1116 33.76C72.6516 34.38 73.4616 34.69 74.5416 34.69C75.6216 34.69 76.4316 34.38 76.9716 33.76C77.5316 33.12 77.8116 32.24 77.8116 31.12V18.85H83.6916V31.12C83.6916 33.06 83.2816 34.72 82.4616 36.1C81.6416 37.46 80.5216 38.49 79.1016 39.19C77.7016 39.87 76.1416 40.21 74.4216 40.21C72.7016 40.21 71.1616 39.87 69.8016 39.19C68.4616 38.49 67.4016 37.46 66.6216 36.1C65.8616 34.74 65.4816 33.08 65.4816 31.12V18.85H71.3316Z" fill="#005BBB"/>
<path d="M96.209 36.55H88.709L87.569 40H81.389L89.099 18.85H95.879L103.559 40H97.349L96.209 36.55ZM94.739 32.05L92.459 25.21L90.209 32.05H94.739Z" fill="#FFD500"/>
</g>
<defs>
<filter id="filter0_bdi" x="0.84613" y="-3.15997" width="106.713" height="51.545" filterUnits="userSpaceOnUse" color-interpolation-filters="sRGB">
<feFlood flood-opacity="0" result="BackgroundImageFix"/>
<feGaussianBlur in="BackgroundImage" stdDeviation="2"/>
<feComposite in2="SourceAlpha" operator="in" result="effect1_backgroundBlur"/>
<feColorMatrix in="SourceAlpha" type="matrix" values="0 0 0 0 0 0 0 0 0 0 0 0 0 0 0 0 0 0 127 0"/>
<feOffset dy="4"/>
<feGaussianBlur stdDeviation="2"/>
<feColorMatrix type="matrix" values="0 0 0 0 0 0 0 0 0 0 0 0 0 0 0 0 0 0 0.25 0"/>
<feBlend mode="normal" in2="effect1_backgroundBlur" result="effect2_dropShadow"/>
<feBlend mode="normal" in="SourceGraphic" in2="effect2_dropShadow" result="shape"/>
<feColorMatrix in="SourceAlpha" type="matrix" values="0 0 0 0 0 0 0 0 0 0 0 0 0 0 0 0 0 0 127 0" result="hardAlpha"/>
<feOffset dy="4"/>
<feGaussianBlur stdDeviation="2"/>
<feComposite in2="hardAlpha" operator="arithmetic" k2="-1" k3="1"/>
<feColorMatrix type="matrix" values="0 0 0 0 0 0 0 0 0 0 0 0 0 0 0 0 0 0 0.25 0"/>
<feBlend mode="normal" in2="shape" result="effect3_innerShadow"/>
</filter>
<linearGradient id="paint0_linear" x1="47" y1="-24" x2="47" y2="65" gradientUnits="userSpaceOnUse">
<stop stop-color="white" stop-opacity="0"/>
<stop offset="0.0001" stop-color="#FFD500"/>
</linearGradient>
<linearGradient id="paint1_linear" x1="47" y1="-24" x2="47" y2="65" gradientUnits="userSpaceOnUse">
<stop stop-color="white"/>
<stop offset="1" stop-color="white" stop-opacity="0"/>
</linearGradient>
<linearGradient id="paint2_linear" x1="47" y1="-24" x2="47" y2="65" gradientUnits="userSpaceOnUse">
<stop offset="0.0677083" stop-color="#FF8B23"/>
<stop offset="0.984375" stop-color="white" stop-opacity="0"/>
</linearGradient>
</defs>
</svg>
