<svg width="239" height="91" viewBox="0 0 239 91" fill="none" xmlns="http://www.w3.org/2000/svg">
<path d="M57.3263 43.0333C54.2384 43.0333 51.2983 43.8034 48.624 45.1946C53.1131 50.382 55.8392 57.136 55.8392 64.52C55.8392 69.9225 54.3763 74.9886 51.8344 79.3519H72.1748C76.2788 79.3519 79.5996 75.292 79.5996 70.2722C79.6007 55.2362 69.6241 43.0333 57.3263 43.0333V43.0333Z" fill="url(#paint0_linear)"/>
<path d="M105.504 17.9941C106.92 19.2527 108.493 20.2753 110.223 21.0619C111.915 21.8879 113.429 22.5959 114.766 23.1858C116.143 23.7758 117.008 24.1691 117.362 24.3658C117.755 24.5624 118.68 24.9951 120.135 25.6637C121.59 26.3324 122.514 26.765 122.908 26.9616C123.301 27.1583 124.166 27.6303 125.504 28.3776C126.802 29.1642 127.706 29.7935 128.217 30.2655C128.689 30.7768 129.397 31.5241 130.341 32.5074C131.285 33.4513 131.954 34.356 132.347 35.2212C133.37 37.6991 133.881 40.2163 133.881 42.7729C133.881 48.4366 131.875 52.7237 127.863 55.6342C123.812 58.5447 118.267 60 111.226 60C104.225 60 97.834 58.0728 92.0522 54.2183C92.2096 50.2852 93.7238 46.5683 96.595 43.0678C99.2302 46.0177 102.2 48.4169 105.504 50.2655C108.807 52.1534 111.816 53.0973 114.53 53.0973C117.244 53.0973 119.663 52.4877 121.787 51.2684C122.809 49.8918 123.321 47.7483 123.321 44.8378C123.321 42.6352 122.691 40.8653 121.433 39.528C120.646 38.8201 119.997 38.2301 119.486 37.7581C118.975 37.2861 118.05 36.7158 116.713 36.0472C115.415 35.3392 112.741 34.1003 108.689 32.3304C104.638 30.5211 101.806 29.1052 100.194 28.0826C95.6314 24.9754 93.3502 20.826 93.3502 15.6342C93.3502 10.4425 95.3167 6.56834 99.2499 4.0118C103.183 1.49459 108.08 0.235988 113.94 0.235988C119.761 0.235988 125.897 1.61259 132.347 4.36578C131.679 8.14159 130.263 11.8191 128.099 15.3982C125.307 12.8417 122.337 10.7375 119.191 9.08555C116.044 7.47296 113.213 6.66667 110.695 6.66667C108.178 6.66667 106.172 7.07965 104.678 7.9056C103.773 8.96755 103.321 10.5998 103.321 12.8024C103.321 15.0049 104.048 16.7355 105.504 17.9941ZM159.368 25.3097V49.4395C159.368 51.4454 159.879 52.4484 160.902 52.4484C162.396 52.4484 165.189 51.5831 169.279 49.8525L171.757 53.5693C169.555 55.0246 166.939 56.4405 163.911 57.8171C160.882 59.233 158.227 59.941 155.946 59.941C151.108 59.941 148.689 57.1681 148.689 51.6224V25.3097C147.863 25.3097 145.13 25.5064 140.489 25.8997L143.498 18.4661C144.481 18.6234 146.231 18.7611 148.748 18.8791C148.67 16.3618 148.512 14.0216 148.276 11.8584L159.368 9.08555V18.8201C161.57 18.7414 165.877 18.3874 172.288 17.7581L169.102 26.2537C166.271 25.7424 163.026 25.4277 159.368 25.3097ZM206.919 39.528C204.835 39.4887 201.944 39.469 198.247 39.469C194.55 39.469 191.58 39.4887 189.338 39.528C187.529 45.821 186.448 49.6952 186.094 51.1504C185.779 52.6057 185.622 54.6313 185.622 57.2271V59.056H171.757V57.2271C174.589 55.2212 178.129 47.8859 182.377 35.2212C186.625 22.5565 189.417 14.179 190.754 10.0885C192.052 5.99803 192.819 3.04818 193.055 1.23894L205.74 0C205.74 2.08456 207.568 8.0826 211.226 17.9941C217.991 36.4798 222.691 47.8466 225.327 52.0944C226.585 54.2576 228.021 55.9685 229.633 57.2271V59.056H212.111V57.2271C212.111 54.9066 210.381 49.0069 206.919 39.528ZM197.775 11.6224C195.926 16.8535 193.625 24.1495 190.872 33.5103H205.209C204.855 32.5664 204.343 30.9931 203.675 28.7906C202.259 23.9135 200.292 18.1908 197.775 11.6224Z" fill="#0C2E60"/>
<path d="M26.2658 38.2541C11.7616 38.2541 0 50.0124 0 64.52C0 79.0253 11.7605 90.7858 26.2658 90.7858C40.7712 90.7858 52.5306 79.0264 52.5306 64.52C52.5306 50.0124 40.7712 38.2541 26.2658 38.2541V38.2541ZM3.63185 64.52C3.63185 59.7198 5.12784 55.2726 7.67742 51.6099L7.96867 51.8305L7.79326 52.5377L8.44196 52.7153L8.32281 51.771L8.85347 51.7114V50.4725H9.38412L9.57609 50.9645L9.79784 51.5338L10.3881 52.1847C10.3881 52.1847 9.67979 52.3601 9.44591 52.3601C9.20761 52.3601 9.32676 53.3045 9.32676 53.3045L10.1531 53.599L10.6859 52.6127L11.9227 51.2381L12.5118 49.4089L13.6338 48.3465L12.984 47.8765L13.6945 47.4021L13.754 46.7523L11.6888 47.3437L11.6215 47.2653C12.7503 46.3067 13.97 45.4606 15.2633 44.7389L16.2319 45.1604L15.5821 46.3993H14.2836L14.0475 47.5202H15.111L16.6456 46.5769L17.7069 45.5156L17.8835 44.5128L16.35 44.3958L17.4113 43.6865L18.413 43.8641L18.2387 44.9254L19.5946 44.098L19.8318 44.7478L20.1274 45.6921L19.3596 46.6354L18.5344 47.4021L17.2932 47.2256L17.8846 48.4646L16.7637 48.288L14.8738 50.2353L15.3471 50.8851L16.8817 50.7659L18.1802 50.3522L19.834 50.1779L20.5996 50.0014C20.5996 50.0014 20.5996 49.5281 20.54 49.2346C20.4805 48.939 21.1303 49.2931 21.1303 49.2931L21.8397 48.8805L22.3692 47.2278L24.3175 46.3408L24.0219 45.8687L24.4951 45.2795L22.9605 45.0412L23.3743 44.451L21.4248 43.8012H20.422L20.775 42.9164L21.1887 42.5027L21.1557 42.4696C22.8314 42.0819 24.5458 41.8857 26.2658 41.8849C29.0052 41.8849 31.6298 42.3714 34.0613 43.2639L34.0006 43.4018L33.0176 43.3367V43.927L33.4115 44.1884V44.7136L33.7403 45.1714L32.5598 44.451L31.7732 44.8448L32.1659 45.7627L32.3634 46.8119L32.8886 47.4021L34.1319 47.5996L33.8727 48.1237L33.609 48.9125L34.7243 49.6329L34.6582 49.9606L32.5609 48.191L32.4318 48.8474L33.3486 49.7642L33.8738 49.9617L32.6922 50.2231L32.562 50.8134L31.7103 49.9606L31.1841 48.8474L30.9888 47.7309L30.4625 48.3862L30.8553 49.9606L31.5106 50.4217L31.2503 51.9276L30.8564 51.7312L30.9226 52.519L30.3313 52.4517L29.7432 51.5989H29.0228L27.9736 51.4676L26.9234 51.5349L25.9393 52.3226L25.284 53.4368L23.906 54.4871L23.7747 55.0752V55.7989L24.1035 56.5193L24.7599 55.993L24.9552 56.3869L25.2851 56.976L25.3502 57.1084L25.6778 57.5012L26.2691 57.1095L26.203 55.6654L26.9234 54.7464L26.9995 54.4121C27.0558 54.1727 27.1186 53.8947 27.1186 53.8947L27.3812 53.171L27.8413 53.2383L27.71 53.8285L27.4463 55.1391L28.6941 55.009L29.1541 55.1391L28.1689 55.4039L28.3002 56.0592L27.1826 56.7786L27.2499 57.5012L26.2669 57.7637L26.0706 58.2878L25.2829 58.0263H24.7577V56.912L24.1664 57.1106V57.6998L22.527 59.0115L21.608 59.3392L21.2163 59.7981L19.9057 59.4693L19.8384 60.0607L20.6912 60.3883L20.625 61.5677L18.2619 61.5015L17.9353 62.0266L17.6065 62.9445L17.2138 63.7345L17.804 64.3898L18.4604 65.1753L20.5599 64.5189L20.6912 63.7322L21.1512 63.3384L21.9378 63.0758L21.8717 62.5518L22.5932 62.3543L23.6423 62.1568L24.2988 62.9434L25.4792 63.7973L26.0033 64.6479V65.0418L26.6586 64.6479L26.332 64.0599L26.4633 63.4013L25.872 63.1409L25.3479 62.4205L25.6756 61.3691L26.2647 62.2219L27.1153 62.8794L27.443 64.0599L28.2969 64.7141L28.4944 65.4356L28.8882 64.5839L28.7569 64.1901L28.9522 63.8624L30.1967 62.8133L30.4603 61.5015L30.9866 61.1088L31.6408 61.1749L32.6271 60.1898L32.6911 60.9786L34.133 61.4364V62.1579H32.9548L31.1841 63.0758L29.7421 63.8635L30.1338 64.7152L31.4455 64.9767L32.167 65.3055L32.9537 64.7814L33.0187 67.0111L30.7891 67.47L28.4282 66.8136L27.5103 67.5351L27.903 67.9278L27.1804 67.7966L24.8879 66.9449L24.2315 67.0111L23.7052 66.1583V65.1091H22.5248L21.8694 64.9778L19.7711 65.4378L18.1317 65.3066L17.4102 65.7004L16.9512 65.7666L16.6898 66.6172L15.1816 67.6664L13.0822 69.2418L12.9509 71.2729L12.3618 72.5857L12.4268 73.3712L12.952 74.2913L14.4612 76.8475L16.0355 77.569L18.6579 77.7665L18.5266 76.65L17.9375 76.3235L18.199 75.7321L18.6579 76.2573L19.118 77.6341L21.0839 77.7665L21.8717 78.5531L22.987 79.0121L23.1172 80.914L24.2988 82.4222L25.413 84.3892L24.429 85.5697L25.434 87.1319C13.3194 86.695 3.63185 76.7416 3.63185 64.52V64.52ZM34.0216 85.7903L36.7576 83.8001L35.7735 81.3741L38.9222 77.2425L39.904 74.619L40.363 73.1748L38.7247 73.9637L37.7406 74.1611L35.3157 72.6519L34.5931 71.0114L33.6763 70.0935L32.4969 67.47L33.4799 68.2577L35.3179 70.291L35.9732 71.2078L37.2839 71.8653L37.6766 73.5709L39.252 72.5206L41.154 70.1586L42.0719 67.7337L41.3504 67.1446L40.9565 66.4219L40.4976 67.2747L39.5808 68.3239L38.2679 66.8787L37.8763 65.7655L38.7942 65.963L39.7121 66.4208L41.0238 65.963L41.8115 66.2245L43.9077 64.7814L45.0893 65.4367L45.8097 65.044L47.3785 67.513L48.154 66.7717L48.1695 65.8306L48.2357 63.0096L48.7178 61.6736C48.8358 62.6058 48.9031 63.5535 48.9031 64.5177C48.9009 74.2957 42.7041 82.6241 34.0216 85.7903V85.7903ZM83.4741 14.069L63.6931 0.977982C63.5659 0.893079 63.4229 0.834586 63.2726 0.805971C63.1223 0.777355 62.9678 0.779199 62.8183 0.811393L40.9091 5.43726C40.4678 5.52993 40.1203 5.87414 40.021 6.31764L39.8897 6.91008C39.786 7.37675 39.9802 7.85886 40.3806 8.12364L49.5529 14.1947L49.1789 15.886C45.8648 18.3705 43.7102 22.3179 43.7102 26.7761C43.7102 34.2957 49.81 40.3966 57.3263 40.3966C64.8438 40.3966 70.9447 34.2968 70.9447 26.7761C70.9447 25.1609 70.6479 23.6175 70.1316 22.18C70.3357 21.9196 70.4758 21.6416 70.5409 21.347L70.9976 19.2774L76.9154 18.0274C77.6513 19.0677 78.1323 20.3309 78.2525 21.9406C77.9472 22.0962 77.6907 22.333 77.5112 22.625C77.3318 22.9169 77.2363 23.2527 77.2353 23.5954C77.2353 24.2033 77.5299 24.7362 77.9789 25.0782C77.4703 27.673 76.7918 32.4401 78.1444 34.5539C78.5427 35.175 79.1075 35.5732 79.7761 35.7001C79.9875 35.7264 80.2009 35.6713 80.3731 35.5459C80.5453 35.4205 80.6633 35.2343 80.7032 35.0251C80.743 34.8158 80.7018 34.5993 80.5878 34.4193C80.4738 34.2394 80.2956 34.1096 80.0894 34.0563C79.9427 34.0287 79.7496 33.957 79.5543 33.6514C79.0766 32.9056 78.9652 31.4339 79.0535 29.7724C79.4661 31.061 80.1004 32.2205 81.079 32.8648C81.2643 32.9726 81.4839 33.0052 81.6926 32.9561C81.9012 32.907 82.0832 32.7798 82.201 32.6007C82.3188 32.4216 82.3635 32.2042 82.3259 31.9931C82.2884 31.7821 82.1714 31.5934 81.9991 31.4659C80.6841 30.5999 80.1291 27.63 80.01 25.2216C80.5837 24.9028 80.9753 24.2982 80.9753 23.5954C80.9753 22.8596 80.5462 22.2296 79.9283 21.9251C79.818 20.2096 79.3723 18.814 78.6839 17.6545L82.9435 16.7543C83.3859 16.6616 83.7334 16.3174 83.8316 15.875L83.9629 15.2825C84.014 15.0546 83.9946 14.8164 83.9073 14.5997C83.82 14.383 83.669 14.1979 83.4741 14.069V14.069ZM60.7971 9.5402C60.8159 9.38905 60.9692 9.26549 61.255 9.20481C61.8242 9.08566 62.7035 9.26439 63.2187 9.60418C63.4758 9.77408 63.5938 9.95281 63.574 10.1051L63.4901 10.5199C63.4703 10.671 63.318 10.7935 63.0334 10.8541C62.4619 10.9744 61.5848 10.7957 61.0696 10.4559C60.8126 10.2849 60.6945 10.1062 60.7133 9.95501L60.7971 9.5402V9.5402Z" fill="url(#paint1_linear)"/>
<path d="M85.4864 74.4206C85.5637 74.4206 85.6242 74.4656 85.6679 74.5557C85.7116 74.6493 85.7335 74.7754 85.7335 74.9339C85.7335 74.9771 85.7309 75.0185 85.7259 75.0581C85.7225 75.1014 85.7192 75.1392 85.7158 75.1716C85.6839 75.1608 85.6494 75.1518 85.6125 75.1446C85.5755 75.1374 85.531 75.1338 85.4789 75.1338C85.3781 75.1338 85.2756 75.1518 85.1714 75.1878C85.0672 75.2274 84.968 75.2599 84.8739 75.2851C84.8202 75.5516 84.7714 75.8092 84.7278 76.0577C84.6824 76.3099 84.6437 76.5386 84.6118 76.7439C84.5799 76.9492 84.5555 77.1275 84.5387 77.2788C84.5202 77.4301 84.5101 77.5436 84.5085 77.6192C84.6983 77.5364 84.8908 77.4643 85.0857 77.4031C85.2789 77.3419 85.4831 77.2968 85.6982 77.268C85.7234 77.3509 85.7444 77.4427 85.7612 77.5436C85.7797 77.6444 85.7889 77.7543 85.7889 77.8732C85.7889 77.902 85.7889 77.9344 85.7889 77.9704C85.7889 78.0064 85.7864 78.0407 85.7813 78.0731C85.7158 78.0695 85.6469 78.0659 85.5747 78.0623C85.5007 78.0623 85.4049 78.0623 85.2873 78.0623C85.21 78.0623 85.1369 78.0659 85.068 78.0731C84.9975 78.0803 84.9269 78.0911 84.8563 78.1055C84.7857 78.1199 84.711 78.1397 84.632 78.1649C84.5547 78.1901 84.4665 78.2208 84.3673 78.2568C84.2581 78.1667 84.1531 77.9452 84.0522 77.5922C84.0926 77.4085 84.1489 77.1311 84.2211 76.7601C84.2917 76.3927 84.3824 75.8974 84.4933 75.2743C84.3875 75.2058 84.3186 75.0798 84.2867 74.8961C84.2984 74.8708 84.332 74.8402 84.3875 74.8042C84.4446 74.7646 84.5143 74.725 84.5967 74.6853C84.632 74.4908 84.6622 74.3197 84.6874 74.172C84.711 74.0244 84.732 73.8875 84.7504 73.7614C84.7706 73.6317 84.7882 73.5057 84.8034 73.3832C84.8185 73.2571 84.8328 73.122 84.8462 72.978C84.7639 72.9672 84.6992 72.9185 84.6521 72.8321C84.6051 72.742 84.5816 72.6268 84.5816 72.4863C84.5816 72.4467 84.5849 72.398 84.5916 72.3404C84.5967 72.2864 84.6026 72.2395 84.6093 72.1999C84.6563 72.2143 84.7017 72.2233 84.7454 72.2269C84.7891 72.2341 84.8462 72.2377 84.9168 72.2377C85.0647 72.2377 85.2033 72.2287 85.3327 72.2107C85.4621 72.1927 85.5797 72.1729 85.6856 72.1513C85.7897 72.1333 85.8796 72.1153 85.9553 72.0973C86.0309 72.0792 86.088 72.0702 86.1267 72.0702C86.1821 72.0702 86.2308 72.1297 86.2729 72.2485C86.3149 72.371 86.3468 72.5439 86.3686 72.7672C86.2947 72.7492 86.235 72.7384 86.1897 72.7348C86.1443 72.7312 86.104 72.7294 86.0687 72.7294C85.9393 72.7294 85.8208 72.742 85.7133 72.7672C85.6057 72.7961 85.5024 72.8249 85.4033 72.8537C85.3898 72.9005 85.3747 72.9599 85.3579 73.032C85.3394 73.1004 85.3159 73.1977 85.2873 73.3238C85.2588 73.4498 85.2243 73.6083 85.184 73.7992C85.142 73.9937 85.0916 74.2333 85.0327 74.5178C85.1235 74.489 85.2083 74.4656 85.2873 74.4476C85.3646 74.4296 85.431 74.4206 85.4864 74.4206ZM88.1784 77.2518C88.2137 77.0861 88.2557 76.8718 88.3044 76.6088C88.3548 76.3459 88.4069 76.0613 88.4607 75.7551C88.5145 75.4526 88.5699 75.141 88.6271 74.8204C88.6825 74.4998 88.7354 74.1955 88.7858 73.9073C88.8346 73.6191 88.8774 73.3616 88.9144 73.1346C88.9497 72.9077 88.9757 72.7348 88.9925 72.616C88.8447 72.7456 88.7178 72.9437 88.6119 73.2103C88.5061 73.4768 88.4262 73.8118 88.3725 74.2153C88.3187 74.1756 88.2691 74.1036 88.2238 73.9991C88.1784 73.8983 88.149 73.7686 88.1355 73.6101C88.1591 73.3796 88.2028 73.1689 88.2666 72.978C88.3321 72.787 88.4145 72.6232 88.5136 72.4863C88.6128 72.3494 88.727 72.2449 88.8564 72.1729C88.9858 72.0973 89.1244 72.0594 89.2723 72.0594C89.4605 72.0594 89.6336 72.1189 89.7915 72.2377C89.9478 72.3566 90.0831 72.5223 90.1974 72.7348C90.3099 72.9473 90.3982 73.2013 90.462 73.4967C90.5242 73.7956 90.5553 74.127 90.5553 74.4908C90.5553 74.9843 90.5133 75.4562 90.4292 75.9064C90.3452 76.3531 90.231 76.7475 90.0865 77.0897C89.9403 77.4355 89.7722 77.7093 89.5823 77.911C89.3925 78.1163 89.1925 78.219 88.9824 78.219C88.7892 78.219 88.6237 78.1379 88.4859 77.9758C88.3481 77.8101 88.2456 77.5688 88.1784 77.2518ZM89.4235 72.4377C89.3059 72.4377 89.1942 72.4737 89.0883 72.5457C89.1925 72.625 89.2782 72.7096 89.3454 72.7997C89.4143 72.8861 89.4614 72.9545 89.4866 73.005C89.4681 73.0626 89.4404 73.1617 89.4034 73.3021C89.3681 73.4426 89.3261 73.6137 89.2774 73.8154C89.2286 74.0172 89.1774 74.2387 89.1236 74.48C89.0698 74.7178 89.0169 74.9627 88.9648 75.2148C88.8304 75.856 88.7329 76.3603 88.6724 76.7277C88.6136 77.0951 88.5842 77.3509 88.5842 77.4949C88.6161 77.5202 88.6556 77.5364 88.7027 77.5436C88.7497 77.5544 88.801 77.5598 88.8564 77.5598C89.0463 77.5598 89.2261 77.4661 89.3958 77.2788C89.5672 77.0879 89.7168 76.834 89.8445 76.517C89.9739 76.2 90.0755 75.8308 90.1495 75.4093C90.2234 74.9879 90.2604 74.5449 90.2604 74.0802C90.2604 73.5615 90.1848 73.1581 90.0335 72.8699C89.884 72.5817 89.6806 72.4377 89.4235 72.4377ZM93.8068 72.5511C93.7026 72.8501 93.6085 73.1779 93.5245 73.5345C93.4388 73.8947 93.3665 74.2621 93.3077 74.6367C93.2472 75.0113 93.201 75.3823 93.1691 75.7497C93.1372 76.1136 93.1212 76.4557 93.1212 76.7763C93.1212 77.169 93.1481 77.4535 93.2019 77.63C93.2573 77.8065 93.3506 77.8948 93.4816 77.8948C93.6346 77.8948 93.769 77.7795 93.8849 77.549C93.9992 77.3184 94.1067 77.0015 94.2076 76.598C94.2748 76.3387 94.3319 76.0523 94.379 75.7389C94.426 75.4256 94.4638 75.1032 94.4924 74.7718C94.5226 74.444 94.5445 74.1126 94.5579 73.7776C94.5714 73.439 94.5781 73.1166 94.5781 72.8105C94.5781 72.6123 94.5772 72.4683 94.5756 72.3782C94.5739 72.2882 94.5705 72.2161 94.5655 72.1621C94.5722 72.1621 94.5898 72.1657 94.6184 72.1729C94.647 72.1837 94.6789 72.1963 94.7142 72.2107C94.7512 72.2287 94.7881 72.2503 94.8251 72.2756C94.8604 72.3008 94.8915 72.3278 94.9184 72.3566C94.9066 72.7384 94.8847 73.1346 94.8528 73.5453C94.8209 73.9523 94.7789 74.3557 94.7268 74.7556C94.6747 75.1518 94.615 75.5354 94.5478 75.9064C94.4789 76.2738 94.4025 76.6034 94.3185 76.8952C94.1941 77.3274 94.0538 77.666 93.8975 77.911C93.7429 78.1559 93.5598 78.2784 93.348 78.2784C93.1313 78.2784 92.9632 78.1433 92.8439 77.8732C92.723 77.603 92.6625 77.1942 92.6625 76.6467C92.6625 76.3297 92.6793 75.9695 92.7129 75.566C92.7448 75.1662 92.7885 74.7592 92.8439 74.3449C92.8994 73.9271 92.9641 73.5201 93.038 73.1238C93.1103 72.7276 93.1867 72.3728 93.2674 72.0594C93.306 72.0666 93.3531 72.0846 93.4085 72.1135C93.4623 72.1459 93.5152 72.1855 93.5673 72.2323C93.6177 72.2792 93.6648 72.3314 93.7085 72.389C93.7522 72.4467 93.7849 72.5007 93.8068 72.5511ZM96.8189 76.1604C96.8189 75.8074 96.839 75.4616 96.8793 75.123C96.918 74.7808 96.9726 74.4566 97.0432 74.1504C97.1138 73.8479 97.1978 73.5687 97.2952 73.313C97.3927 73.0572 97.4994 72.8375 97.6153 72.6538C97.7313 72.4665 97.8556 72.3206 97.9884 72.2161C98.1195 72.1117 98.2547 72.0594 98.3942 72.0594C98.5555 72.0594 98.6815 72.1333 98.7723 72.281C98.863 72.4286 98.9084 72.6322 98.9084 72.8915C98.9084 72.9924 98.9025 73.0968 98.8907 73.2049C98.8773 73.3093 98.858 73.4138 98.8328 73.5183C98.8076 73.6227 98.779 73.7218 98.7471 73.8154C98.7135 73.9127 98.6765 73.9955 98.6362 74.064C98.5757 74.046 98.5227 73.9865 98.4774 73.8857C98.4337 73.7884 98.406 73.675 98.3942 73.5453C98.4765 73.3976 98.5421 73.2445 98.5908 73.086C98.6379 72.9275 98.6614 72.7834 98.6614 72.6538C98.6614 72.4304 98.5967 72.3188 98.4673 72.3188C98.4135 72.3188 98.3581 72.3422 98.3009 72.389C98.2421 72.4395 98.1833 72.5061 98.1245 72.5889C98.0657 72.6754 98.0086 72.7798 97.9531 72.9023C97.8993 73.0212 97.8489 73.1545 97.8019 73.3021C97.4742 74.3107 97.3104 75.3427 97.3104 76.3981C97.3104 76.7691 97.3372 77.0681 97.391 77.295C97.4448 77.522 97.517 77.6552 97.6078 77.6949C97.7086 77.6444 97.8363 77.5057 97.9909 77.2788C98.1472 77.0519 98.3169 76.7583 98.5001 76.3981C98.5236 76.4485 98.5379 76.5008 98.5429 76.5548C98.474 76.7457 98.4034 76.9294 98.3312 77.1059C98.2572 77.2824 98.185 77.4445 98.1144 77.5922C98.0422 77.7363 97.9707 77.8642 97.9002 77.9758C97.8313 78.0875 97.7674 78.1739 97.7086 78.2352C97.4179 78.2244 97.1969 78.0443 97.0457 77.6949C96.8945 77.3491 96.8189 76.8376 96.8189 76.1604ZM100.713 78.219C100.599 78.1469 100.521 78.0767 100.479 78.0082C100.435 77.9362 100.413 77.8479 100.413 77.7435C100.413 77.6606 100.423 77.5472 100.443 77.4031C100.465 77.2554 100.496 77.0825 100.537 76.8844C100.579 76.6863 100.628 76.4648 100.685 76.2198C100.743 75.9785 100.808 75.7191 100.882 75.4418C100.82 75.4382 100.765 75.4346 100.718 75.431C100.669 75.4274 100.63 75.4256 100.6 75.4256C100.613 75.3499 100.653 75.2851 100.718 75.231C100.785 75.177 100.873 75.1284 100.98 75.0852C101.073 74.7574 101.171 74.4458 101.275 74.1504C101.379 73.8515 101.484 73.5777 101.59 73.3292C101.696 73.0806 101.802 72.8609 101.908 72.67C102.014 72.4827 102.115 72.3332 102.213 72.2215C102.215 72.1855 102.216 72.1549 102.218 72.1297C102.218 72.1045 102.218 72.0864 102.218 72.0756C102.251 72.0756 102.296 72.0937 102.351 72.1297C102.407 72.1657 102.461 72.2089 102.513 72.2593C102.567 72.3098 102.614 72.3602 102.654 72.4106C102.696 72.4647 102.719 72.5097 102.725 72.5457C102.646 72.8375 102.569 73.2751 102.495 73.8587C102.42 74.4422 102.357 75.1392 102.306 75.9497C102.294 76.1514 102.285 76.3801 102.278 76.6358C102.27 76.8952 102.266 77.1834 102.266 77.5003C102.266 77.612 102.266 77.7255 102.266 77.8407C102.266 77.956 102.267 78.0767 102.271 78.2027C102.267 78.2099 102.263 78.2136 102.258 78.2136C102.253 78.2136 102.244 78.2136 102.23 78.2136C102.197 78.2136 102.158 78.2009 102.115 78.1757C102.071 78.1541 102.029 78.1271 101.989 78.0947C101.946 78.0623 101.911 78.0262 101.883 77.9866C101.852 77.9434 101.834 77.9074 101.827 77.8786C101.826 77.8137 101.825 77.7489 101.825 77.684C101.825 77.6228 101.825 77.5562 101.825 77.4841C101.825 77.1708 101.83 76.8538 101.84 76.5332C101.85 76.209 101.868 75.8758 101.895 75.5336C101.862 75.53 101.818 75.5228 101.764 75.512C101.71 75.5048 101.65 75.4994 101.583 75.4958C101.515 75.4922 101.443 75.485 101.366 75.4742C101.29 75.467 101.216 75.4616 101.142 75.458C101.086 75.6849 101.033 75.91 100.983 76.1334C100.934 76.3603 100.892 76.5872 100.857 76.8142C100.816 77.0555 100.785 77.2968 100.761 77.5382C100.736 77.7795 100.72 78.0064 100.713 78.219ZM102.074 73.675C102.084 73.6029 102.095 73.5057 102.107 73.3832C102.12 73.2571 102.133 73.1274 102.145 72.9942C102.086 73.0374 102.02 73.1202 101.948 73.2427C101.878 73.3616 101.804 73.5111 101.726 73.6912C101.651 73.8713 101.573 74.073 101.494 74.2963C101.416 74.5196 101.339 74.7574 101.265 75.0095C101.463 74.9771 101.689 74.9555 101.941 74.9447C101.959 74.7322 101.979 74.5214 102.001 74.3125C102.025 74.1036 102.049 73.8911 102.074 73.675ZM105.137 73.059C105.043 73.059 104.97 73.0032 104.92 72.8915C104.87 72.7762 104.844 72.6376 104.844 72.4755C104.844 72.4358 104.848 72.389 104.854 72.335C104.859 72.2774 104.867 72.2287 104.877 72.1891C104.907 72.2215 104.953 72.2431 105.013 72.2539C105.072 72.2684 105.142 72.2756 105.222 72.2756C105.342 72.2756 105.478 72.263 105.631 72.2377C105.782 72.2161 105.926 72.1927 106.064 72.1675C106.204 72.1423 106.326 72.1189 106.432 72.0973C106.538 72.072 106.606 72.0594 106.636 72.0594C106.724 72.0594 106.787 72.1297 106.825 72.2702C106.864 72.407 106.893 72.5925 106.911 72.8267C106.851 72.8159 106.79 72.8069 106.73 72.7997C106.671 72.7925 106.62 72.7889 106.576 72.7889C106.502 72.7889 106.426 72.7943 106.349 72.8051C106.273 72.8123 106.196 72.8267 106.117 72.8483C106.085 72.996 106.049 73.1689 106.009 73.367C105.968 73.5651 105.929 73.7722 105.89 73.9883C105.852 74.2081 105.815 74.4242 105.779 74.6367C105.744 74.8528 105.714 75.0455 105.689 75.2148C105.637 75.5498 105.591 75.8578 105.553 76.1388C105.514 76.4197 105.479 76.6827 105.449 76.9276C105.421 77.1726 105.395 77.4067 105.374 77.63C105.352 77.8497 105.333 78.0659 105.318 78.2784C105.16 78.228 105.028 78.0172 104.922 77.6462C104.941 77.4877 104.964 77.3166 104.99 77.1329C105.017 76.9492 105.049 76.7403 105.086 76.5062C105.123 76.272 105.166 76.0055 105.215 75.7065C105.264 75.4111 105.32 75.0744 105.384 74.6961C105.407 74.5521 105.432 74.4044 105.459 74.2531C105.485 74.0982 105.51 73.9451 105.535 73.7938C105.558 73.6425 105.58 73.4967 105.6 73.3562C105.621 73.2157 105.638 73.086 105.653 72.9672C105.554 72.9924 105.46 73.014 105.371 73.032C105.284 73.05 105.206 73.059 105.137 73.059ZM108.383 77.214C108.383 77.0303 108.397 76.7943 108.423 76.5062C108.45 76.2144 108.486 75.901 108.529 75.566C108.573 75.231 108.623 74.8889 108.681 74.5395C108.736 74.1901 108.793 73.8605 108.852 73.5507C108.911 73.2445 108.969 72.9744 109.026 72.7402C109.083 72.5097 109.133 72.344 109.177 72.2431C109.201 72.2467 109.232 72.2666 109.27 72.3026C109.309 72.335 109.349 72.3728 109.389 72.416C109.429 72.4629 109.466 72.5133 109.5 72.5673C109.532 72.6178 109.553 72.6664 109.563 72.7132C109.494 72.8429 109.426 73.041 109.359 73.3075C109.291 73.5705 109.227 73.8713 109.165 74.2099C109.102 74.5485 109.044 74.9051 108.991 75.2797C108.937 75.6543 108.89 76.0181 108.849 76.3711C108.809 76.7241 108.778 77.0519 108.756 77.3545C108.734 77.657 108.723 77.902 108.723 78.0893C108.723 78.1757 108.727 78.2298 108.734 78.2514C108.681 78.2442 108.644 78.2244 108.62 78.1919C108.597 78.1595 108.578 78.1253 108.565 78.0893C108.553 78.0497 108.541 78.0118 108.529 77.9758C108.519 77.9362 108.503 77.9056 108.481 77.884C108.466 77.8696 108.453 77.8353 108.441 77.7813C108.429 77.7237 108.419 77.6624 108.411 77.5976C108.402 77.5292 108.396 77.4589 108.391 77.3869C108.386 77.3148 108.383 77.2572 108.383 77.214ZM112.782 72.1351C112.825 72.1783 112.871 72.2305 112.918 72.2918C112.965 72.3566 113.008 72.4214 113.049 72.4863C113.089 72.5511 113.123 72.6142 113.15 72.6754C113.176 72.7402 113.191 72.7925 113.192 72.8321C113.154 72.8141 113.114 72.8015 113.074 72.7943C113.034 72.7834 112.997 72.778 112.963 72.778C112.857 72.778 112.752 72.8339 112.648 72.9455C112.544 73.0572 112.445 73.2085 112.351 73.3994C112.256 73.5903 112.169 73.8154 112.088 74.0748C112.009 74.3305 111.94 74.6043 111.882 74.8961C111.825 75.1914 111.779 75.494 111.746 75.8038C111.714 76.1172 111.698 76.4251 111.698 76.7277C111.698 77.1203 111.728 77.4139 111.788 77.6084C111.851 77.7993 111.94 77.8948 112.058 77.8948C112.114 77.8948 112.174 77.8714 112.24 77.8245C112.307 77.7741 112.374 77.7057 112.441 77.6192C112.51 77.5364 112.577 77.4337 112.643 77.3112C112.708 77.1888 112.77 77.0555 112.827 76.9114C112.909 76.6989 112.983 76.4575 113.049 76.1874C113.114 75.9172 113.171 75.6309 113.218 75.3283C113.263 75.0257 113.298 74.7142 113.323 74.3936C113.347 74.073 113.359 73.7596 113.359 73.4534C113.359 73.331 113.358 73.2283 113.356 73.1455C113.353 73.0626 113.349 72.9924 113.346 72.9347C113.343 72.8771 113.34 72.8303 113.339 72.7943C113.335 72.7582 113.333 72.7276 113.331 72.7024C113.36 72.7348 113.391 72.7726 113.424 72.8159C113.458 72.8591 113.49 72.9221 113.52 73.005C113.549 73.0878 113.573 73.1977 113.593 73.3346C113.613 73.4678 113.623 73.6443 113.623 73.8641C113.623 74.2171 113.604 74.5629 113.565 74.9015C113.527 75.2437 113.473 75.5678 113.404 75.874C113.334 76.1802 113.251 76.4684 113.157 76.7385C113.063 77.0051 112.962 77.2392 112.855 77.4409C112.713 77.7075 112.563 77.9146 112.403 78.0623C112.244 78.2063 112.089 78.2784 111.94 78.2784C111.725 78.2784 111.56 78.1307 111.446 77.8353C111.331 77.54 111.274 77.1059 111.274 76.5332C111.274 76.2234 111.29 75.8974 111.322 75.5552C111.354 75.213 111.399 74.8762 111.456 74.5449C111.513 74.2099 111.582 73.8929 111.662 73.5939C111.741 73.2949 111.829 73.0302 111.925 72.7997C112.02 72.5691 112.123 72.3854 112.232 72.2485C112.341 72.1153 112.454 72.0486 112.57 72.0486C112.607 72.0486 112.642 72.054 112.676 72.0648C112.708 72.0792 112.743 72.1027 112.782 72.1351ZM115.784 78.219C115.649 78.1325 115.558 78.0515 115.511 77.9758C115.464 77.8966 115.441 77.7885 115.441 77.6516C115.441 77.5003 115.458 77.2878 115.491 77.0141C115.523 76.7367 115.566 76.4305 115.62 76.0955C115.672 75.7569 115.732 75.4039 115.801 75.0365C115.87 74.6655 115.94 74.3125 116.01 73.9775C116.081 73.6389 116.15 73.3292 116.217 73.0482C116.283 72.7672 116.341 72.5493 116.393 72.3944L116.368 72.0756C116.402 72.0756 116.448 72.0937 116.507 72.1297C116.566 72.1657 116.625 72.2089 116.686 72.2593C116.745 72.3098 116.798 72.3602 116.845 72.4106C116.89 72.4647 116.915 72.5097 116.92 72.5457C116.909 72.6682 116.899 72.8519 116.893 73.0968C116.884 73.3382 116.88 73.5975 116.88 73.8749C116.88 74.426 116.89 74.9645 116.91 75.4904C116.93 76.0199 116.977 76.5566 117.051 77.1005C117.088 76.6971 117.129 76.2955 117.172 75.8956C117.216 75.4922 117.261 75.1086 117.308 74.7448C117.355 74.3774 117.403 74.037 117.45 73.7236C117.497 73.4138 117.542 73.1401 117.586 72.9023C117.629 72.6682 117.67 72.4845 117.707 72.3512C117.744 72.2179 117.778 72.1459 117.81 72.1351C117.835 72.1459 117.863 72.1675 117.893 72.1999C117.923 72.2323 117.953 72.272 117.981 72.3188C118.01 72.3656 118.036 72.416 118.06 72.4701C118.083 72.5241 118.102 72.5799 118.115 72.6376C118.041 72.7024 117.967 72.8555 117.893 73.0968C117.818 73.3382 117.747 73.6317 117.681 73.9775C117.614 74.3233 117.551 74.6979 117.492 75.1014C117.435 75.5048 117.385 75.9028 117.341 76.2955C117.298 76.6845 117.264 77.0465 117.24 77.3815C117.215 77.7129 117.201 77.9794 117.198 78.1811C117.198 78.1919 117.199 78.1991 117.203 78.2027C117.196 78.2099 117.188 78.2136 117.18 78.2136C117.171 78.2136 117.164 78.2136 117.157 78.2136C117.048 78.2136 116.952 78.1847 116.87 78.1271C116.786 78.0659 116.73 77.983 116.704 77.8786C116.655 77.4535 116.614 77.0447 116.58 76.6521C116.548 76.2594 116.521 75.8668 116.499 75.4742C116.476 75.0816 116.458 74.6835 116.446 74.2801C116.433 73.8803 116.423 73.4606 116.416 73.0212C116.371 73.1725 116.324 73.3706 116.275 73.6155C116.225 73.8605 116.176 74.1288 116.129 74.4206C116.082 74.7123 116.036 75.0203 115.993 75.3445C115.949 75.6687 115.911 75.9839 115.879 76.2901C115.846 76.5962 115.82 76.888 115.801 77.1654C115.783 77.4391 115.773 77.6768 115.773 77.8786C115.773 77.983 115.774 78.0587 115.776 78.1055C115.776 78.1523 115.778 78.1901 115.784 78.219ZM119.804 78.219C119.69 78.1469 119.611 78.0767 119.569 78.0082C119.526 77.9362 119.504 77.8479 119.504 77.7435C119.504 77.6606 119.514 77.5472 119.534 77.4031C119.556 77.2554 119.587 77.0825 119.627 76.8844C119.669 76.6863 119.719 76.4648 119.776 76.2198C119.833 75.9785 119.899 75.7191 119.973 75.4418C119.91 75.4382 119.856 75.4346 119.809 75.431C119.76 75.4274 119.721 75.4256 119.69 75.4256C119.704 75.3499 119.743 75.2851 119.809 75.231C119.876 75.177 119.963 75.1284 120.071 75.0852C120.163 74.7574 120.262 74.4458 120.366 74.1504C120.47 73.8515 120.575 73.5777 120.681 73.3292C120.787 73.0806 120.893 72.8609 120.999 72.67C121.104 72.4827 121.206 72.3332 121.304 72.2215C121.305 72.1855 121.307 72.1549 121.309 72.1297C121.309 72.1045 121.309 72.0864 121.309 72.0756C121.342 72.0756 121.387 72.0937 121.442 72.1297C121.498 72.1657 121.551 72.2089 121.603 72.2593C121.657 72.3098 121.704 72.3602 121.745 72.4106C121.787 72.4647 121.81 72.5097 121.815 72.5457C121.736 72.8375 121.66 73.2751 121.586 73.8587C121.51 74.4422 121.447 75.1392 121.397 75.9497C121.385 76.1514 121.376 76.3801 121.369 76.6358C121.361 76.8952 121.356 77.1834 121.356 77.5003C121.356 77.612 121.356 77.7255 121.356 77.8407C121.356 77.956 121.358 78.0767 121.361 78.2027C121.358 78.2099 121.354 78.2136 121.349 78.2136C121.344 78.2136 121.335 78.2136 121.321 78.2136C121.288 78.2136 121.249 78.2009 121.205 78.1757C121.162 78.1541 121.12 78.1271 121.079 78.0947C121.037 78.0623 121.002 78.0262 120.973 77.9866C120.943 77.9434 120.925 77.9074 120.918 77.8786C120.916 77.8137 120.915 77.7489 120.915 77.684C120.915 77.6228 120.915 77.5562 120.915 77.4841C120.915 77.1708 120.92 76.8538 120.93 76.5332C120.941 76.209 120.959 75.8758 120.986 75.5336C120.952 75.53 120.909 75.5228 120.855 75.512C120.801 75.5048 120.741 75.4994 120.673 75.4958C120.606 75.4922 120.534 75.485 120.457 75.4742C120.381 75.467 120.306 75.4616 120.232 75.458C120.177 75.6849 120.124 75.91 120.073 76.1334C120.025 76.3603 119.983 76.5872 119.947 76.8142C119.907 77.0555 119.875 77.2968 119.852 77.5382C119.826 77.7795 119.811 78.0064 119.804 78.219ZM121.165 73.675C121.175 73.6029 121.186 73.5057 121.198 73.3832C121.211 73.2571 121.224 73.1274 121.235 72.9942C121.177 73.0374 121.111 73.1202 121.039 73.2427C120.968 73.3616 120.894 73.5111 120.817 73.6912C120.741 73.8713 120.664 74.073 120.585 74.2963C120.506 74.5196 120.43 74.7574 120.356 75.0095C120.554 74.9771 120.779 74.9555 121.031 74.9447C121.05 74.7322 121.07 74.5214 121.092 74.3125C121.115 74.1036 121.14 73.8911 121.165 73.675ZM124.986 77.214C125.045 77.4301 125.074 77.639 125.074 77.8407C125.074 77.8876 125.073 77.929 125.069 77.965C125.066 78.0046 125.062 78.0443 125.057 78.0839C125.016 78.0731 124.975 78.0659 124.933 78.0623C124.889 78.0551 124.844 78.0515 124.797 78.0515C124.74 78.0515 124.683 78.0551 124.626 78.0623C124.567 78.0695 124.502 78.0821 124.432 78.1001C124.361 78.1145 124.283 78.1343 124.197 78.1595C124.11 78.1847 124.008 78.2172 123.892 78.2568C123.838 78.2172 123.785 78.1379 123.731 78.019C123.677 77.9002 123.627 77.7579 123.58 77.5922C123.603 77.4805 123.633 77.3419 123.668 77.1762C123.703 77.0141 123.744 76.816 123.791 76.5818C123.838 76.3477 123.89 76.0721 123.948 75.7551C124.005 75.4418 124.066 75.078 124.132 74.6637C124.175 74.39 124.212 74.1504 124.242 73.9451C124.273 73.7398 124.3 73.5399 124.326 73.3454C124.349 73.1509 124.373 72.9473 124.396 72.7348C124.42 72.5223 124.446 72.2774 124.474 72C124.568 72.0396 124.651 72.1135 124.721 72.2215C124.79 72.3332 124.857 72.4899 124.921 72.6916C124.9 72.7564 124.875 72.8609 124.845 73.005C124.815 73.1527 124.779 73.331 124.739 73.5399C124.697 73.7488 124.652 73.9865 124.603 74.2531C124.553 74.516 124.5 74.7988 124.447 75.1014C124.395 75.4003 124.344 75.6813 124.295 75.9443C124.245 76.2036 124.2 76.4395 124.162 76.6521C124.123 76.8646 124.092 77.0465 124.069 77.1978C124.045 77.3491 124.033 77.4625 124.033 77.5382C124.072 77.5346 124.106 77.5292 124.137 77.522C124.167 77.5184 124.199 77.5093 124.232 77.4949C124.264 77.4841 124.3 77.4697 124.338 77.4517C124.377 77.4337 124.424 77.4103 124.479 77.3815C124.526 77.3563 124.569 77.3346 124.608 77.3166C124.648 77.2986 124.688 77.2824 124.726 77.268C124.765 77.2572 124.805 77.2482 124.847 77.241C124.888 77.2338 124.934 77.2248 124.986 77.214ZM129.952 76.1604C129.952 75.8074 129.971 75.4616 130.01 75.123C130.048 74.7808 130.103 74.4566 130.173 74.1504C130.244 73.8479 130.328 73.5687 130.425 73.313C130.523 73.0572 130.63 72.8375 130.748 72.6538C130.864 72.4665 130.987 72.3206 131.119 72.2161C131.251 72.1117 131.387 72.0594 131.524 72.0594C131.687 72.0594 131.814 72.1333 131.905 72.281C131.996 72.4286 132.041 72.6322 132.041 72.8915C132.041 72.9924 132.034 73.0968 132.021 73.2049C132.007 73.3093 131.989 73.4138 131.965 73.5183C131.94 73.6227 131.911 73.7218 131.877 73.8154C131.845 73.9127 131.809 73.9955 131.769 74.064C131.708 74.046 131.655 73.9865 131.61 73.8857C131.565 73.7884 131.536 73.675 131.524 73.5453C131.607 73.3976 131.672 73.2445 131.721 73.086C131.77 72.9275 131.794 72.7834 131.794 72.6538C131.794 72.4304 131.729 72.3188 131.6 72.3188C131.546 72.3188 131.49 72.3422 131.431 72.389C131.374 72.4395 131.316 72.5061 131.257 72.5889C131.198 72.6754 131.141 72.7798 131.086 72.9023C131.03 73.0212 130.979 73.1545 130.932 73.3021C130.606 74.3107 130.443 75.3427 130.443 76.3981C130.443 76.7691 130.47 77.0681 130.524 77.295C130.577 77.522 130.649 77.6552 130.738 77.6949C130.839 77.6444 130.967 77.5057 131.124 77.2788C131.278 77.0519 131.447 76.7583 131.63 76.3981C131.654 76.4485 131.668 76.5008 131.673 76.5548C131.606 76.7457 131.535 76.9294 131.461 77.1059C131.389 77.2824 131.317 77.4445 131.245 77.5922C131.172 77.7363 131.102 77.8642 131.033 77.9758C130.964 78.0875 130.9 78.1739 130.841 78.2352C130.549 78.2244 130.328 78.0443 130.178 77.6949C130.027 77.3491 129.952 76.8376 129.952 76.1604ZM135.33 72.1351C135.374 72.1783 135.419 72.2305 135.467 72.2918C135.514 72.3566 135.557 72.4214 135.598 72.4863C135.638 72.5511 135.672 72.6142 135.698 72.6754C135.725 72.7402 135.74 72.7925 135.741 72.8321C135.703 72.8141 135.663 72.8015 135.623 72.7943C135.582 72.7834 135.545 72.778 135.512 72.778C135.406 72.778 135.301 72.8339 135.197 72.9455C135.093 73.0572 134.993 73.2085 134.899 73.3994C134.805 73.5903 134.718 73.8154 134.637 74.0748C134.558 74.3305 134.489 74.6043 134.431 74.8961C134.373 75.1914 134.328 75.494 134.294 75.8038C134.263 76.1172 134.247 76.4251 134.247 76.7277C134.247 77.1203 134.277 77.4139 134.337 77.6084C134.399 77.7993 134.489 77.8948 134.607 77.8948C134.662 77.8948 134.723 77.8714 134.788 77.8245C134.856 77.7741 134.923 77.7057 134.99 77.6192C135.059 77.5364 135.126 77.4337 135.192 77.3112C135.257 77.1888 135.319 77.0555 135.376 76.9114C135.458 76.6989 135.532 76.4575 135.598 76.1874C135.663 75.9172 135.719 75.6309 135.766 75.3283C135.812 75.0257 135.846 74.7142 135.87 74.3936C135.895 74.073 135.908 73.7596 135.908 73.4534C135.908 73.331 135.907 73.2283 135.905 73.1455C135.902 73.0626 135.898 72.9924 135.895 72.9347C135.892 72.8771 135.889 72.8303 135.887 72.7943C135.884 72.7582 135.882 72.7276 135.88 72.7024C135.908 72.7348 135.94 72.7726 135.973 72.8159C136.007 72.8591 136.039 72.9221 136.069 73.005C136.097 73.0878 136.122 73.1977 136.142 73.3346C136.162 73.4678 136.172 73.6443 136.172 73.8641C136.172 74.2171 136.153 74.5629 136.114 74.9015C136.076 75.2437 136.022 75.5678 135.953 75.874C135.882 76.1802 135.8 76.4684 135.706 76.7385C135.612 77.0051 135.511 77.2392 135.404 77.4409C135.262 77.7075 135.112 77.9146 134.952 78.0623C134.793 78.2063 134.638 78.2784 134.489 78.2784C134.273 78.2784 134.109 78.1307 133.995 77.8353C133.88 77.54 133.823 77.1059 133.823 76.5332C133.823 76.2234 133.839 75.8974 133.871 75.5552C133.903 75.213 133.947 74.8762 134.005 74.5449C134.062 74.2099 134.131 73.8929 134.211 73.5939C134.29 73.2949 134.378 73.0302 134.473 72.7997C134.569 72.5691 134.672 72.3854 134.781 72.2485C134.89 72.1153 135.003 72.0486 135.119 72.0486C135.156 72.0486 135.191 72.054 135.225 72.0648C135.256 72.0792 135.292 72.1027 135.33 72.1351ZM138.332 78.219C138.198 78.1325 138.107 78.0515 138.06 77.9758C138.013 77.8966 137.99 77.7885 137.99 77.6516C137.99 77.5003 138.006 77.2878 138.04 77.0141C138.072 76.7367 138.115 76.4305 138.169 76.0955C138.221 75.7569 138.281 75.4039 138.35 75.0365C138.419 74.6655 138.489 74.3125 138.559 73.9775C138.63 73.6389 138.698 73.3292 138.763 73.0482C138.831 72.7672 138.89 72.5493 138.942 72.3944L138.917 72.0756C138.951 72.0756 138.997 72.0937 139.056 72.1297C139.115 72.1657 139.174 72.2089 139.235 72.2593C139.294 72.3098 139.346 72.3602 139.394 72.4106C139.439 72.4647 139.464 72.5097 139.469 72.5457C139.457 72.6682 139.448 72.8519 139.441 73.0968C139.433 73.3382 139.429 73.5975 139.429 73.8749C139.429 74.426 139.439 74.9645 139.459 75.4904C139.479 76.0199 139.526 76.5566 139.6 77.1005C139.637 76.6971 139.678 76.2955 139.721 75.8956C139.765 75.4922 139.81 75.1086 139.857 74.7448C139.904 74.3774 139.951 74.037 139.998 73.7236C140.046 73.4138 140.091 73.1401 140.135 72.9023C140.178 72.6682 140.219 72.4845 140.256 72.3512C140.293 72.2179 140.327 72.1459 140.359 72.1351C140.384 72.1459 140.412 72.1675 140.442 72.1999C140.472 72.2323 140.502 72.272 140.53 72.3188C140.559 72.3656 140.585 72.416 140.608 72.4701C140.632 72.5241 140.65 72.5799 140.664 72.6376C140.59 72.7024 140.515 72.8555 140.44 73.0968C140.366 73.3382 140.295 73.6317 140.228 73.9775C140.162 74.3233 140.1 74.6979 140.041 75.1014C139.984 75.5048 139.934 75.9028 139.89 76.2955C139.846 76.6845 139.812 77.0465 139.787 77.3815C139.763 77.7129 139.75 77.9794 139.746 78.1811C139.746 78.1919 139.748 78.1991 139.751 78.2027C139.745 78.2099 139.737 78.2136 139.729 78.2136C139.72 78.2136 139.713 78.2136 139.706 78.2136C139.597 78.2136 139.5 78.1847 139.416 78.1271C139.334 78.0659 139.279 77.983 139.252 77.8786C139.204 77.4535 139.162 77.0447 139.129 76.6521C139.097 76.2594 139.069 75.8668 139.046 75.4742C139.024 75.0816 139.006 74.6835 138.993 74.2801C138.981 73.8803 138.972 73.4606 138.965 73.0212C138.92 73.1725 138.873 73.3706 138.824 73.6155C138.773 73.8605 138.725 74.1288 138.678 74.4206C138.631 74.7123 138.585 75.0203 138.542 75.3445C138.498 75.6687 138.46 75.9839 138.428 76.2901C138.395 76.5962 138.369 76.888 138.35 77.1654C138.332 77.4391 138.322 77.6768 138.322 77.8786C138.322 77.983 138.322 78.0587 138.322 78.1055C138.324 78.1523 138.327 78.1901 138.332 78.219ZM142.892 73.059C142.798 73.059 142.726 73.0032 142.675 72.8915C142.625 72.7762 142.6 72.6376 142.6 72.4755C142.6 72.4358 142.602 72.389 142.607 72.335C142.614 72.2774 142.622 72.2287 142.63 72.1891C142.66 72.2215 142.706 72.2431 142.766 72.2539C142.827 72.2684 142.896 72.2756 142.975 72.2756C143.096 72.2756 143.232 72.263 143.384 72.2377C143.535 72.2161 143.68 72.1927 143.82 72.1675C143.959 72.1423 144.082 72.1189 144.188 72.0973C144.293 72.072 144.362 72.0594 144.392 72.0594C144.479 72.0594 144.542 72.1297 144.581 72.2702C144.619 72.407 144.648 72.5925 144.667 72.8267C144.606 72.8159 144.546 72.8069 144.485 72.7997C144.425 72.7925 144.373 72.7889 144.331 72.7889C144.256 72.7889 144.18 72.7943 144.104 72.8051C144.027 72.8123 143.95 72.8267 143.873 72.8483C143.839 72.996 143.803 73.1689 143.764 73.367C143.724 73.5651 143.684 73.7722 143.646 73.9883C143.607 74.2081 143.57 74.4242 143.535 74.6367C143.5 74.8528 143.468 75.0455 143.442 75.2148C143.389 75.5498 143.344 75.8578 143.305 76.1388C143.267 76.4197 143.233 76.6827 143.205 76.9276C143.174 77.1726 143.149 77.4067 143.129 77.63C143.107 77.8497 143.088 78.0659 143.071 78.2784C142.913 78.228 142.781 78.0172 142.675 77.6462C142.695 77.4877 142.719 77.3166 142.746 77.1329C142.773 76.9492 142.805 76.7403 142.842 76.5062C142.877 76.272 142.92 76.0055 142.97 75.7065C143.019 75.4111 143.075 75.0744 143.139 74.6961C143.163 74.5521 143.187 74.4044 143.212 74.2531C143.239 74.0982 143.264 73.9451 143.288 73.7938C143.313 73.6425 143.336 73.4967 143.356 73.3562C143.376 73.2157 143.393 73.086 143.406 72.9672C143.307 72.9924 143.214 73.014 143.126 73.032C143.037 73.05 142.959 73.059 142.892 73.059ZM147.49 74.4206C147.567 74.4206 147.627 74.4656 147.671 74.5557C147.715 74.6493 147.737 74.7754 147.737 74.9339C147.737 74.9771 147.735 75.0185 147.732 75.0581C147.728 75.1014 147.724 75.1392 147.719 75.1716C147.689 75.1608 147.654 75.1518 147.616 75.1446C147.579 75.1374 147.534 75.1338 147.482 75.1338C147.381 75.1338 147.279 75.1518 147.174 75.1878C147.072 75.2274 146.974 75.2599 146.88 75.2851C146.826 75.5516 146.776 75.8092 146.731 76.0577C146.685 76.3099 146.647 76.5386 146.615 76.7439C146.585 76.9492 146.56 77.1275 146.542 77.2788C146.525 77.4301 146.515 77.5436 146.512 77.6192C146.703 77.5364 146.896 77.4643 147.089 77.4031C147.284 77.3419 147.488 77.2968 147.701 77.268C147.726 77.3509 147.748 77.4427 147.767 77.5436C147.784 77.6444 147.792 77.7543 147.792 77.8732C147.792 77.902 147.792 77.9344 147.792 77.9704C147.792 78.0064 147.79 78.0407 147.787 78.0731C147.72 78.0695 147.65 78.0659 147.578 78.0623C147.506 78.0623 147.411 78.0623 147.293 78.0623C147.214 78.0623 147.14 78.0659 147.071 78.0731C147.002 78.0803 146.933 78.0911 146.862 78.1055C146.791 78.1199 146.717 78.1397 146.638 78.1649C146.559 78.1901 146.47 78.2208 146.37 78.2568C146.263 78.1667 146.159 77.9452 146.058 77.5922C146.097 77.4085 146.152 77.1311 146.224 76.7601C146.296 76.3927 146.388 75.8974 146.499 75.2743C146.393 75.2058 146.323 75.0798 146.29 74.8961C146.302 74.8708 146.336 74.8402 146.393 74.8042C146.449 74.7646 146.517 74.725 146.6 74.6853C146.635 74.4908 146.665 74.3197 146.691 74.172C146.716 74.0244 146.738 73.8875 146.756 73.7614C146.775 73.6317 146.791 73.5057 146.806 73.3832C146.822 73.2571 146.837 73.122 146.852 72.978C146.77 72.9672 146.705 72.9185 146.658 72.8321C146.611 72.742 146.587 72.6268 146.587 72.4863C146.587 72.4467 146.59 72.398 146.595 72.3404C146.601 72.2864 146.608 72.2395 146.615 72.1999C146.662 72.2143 146.707 72.2233 146.751 72.2269C146.795 72.2341 146.852 72.2377 146.922 72.2377C147.07 72.2377 147.209 72.2287 147.338 72.2107C147.468 72.1927 147.584 72.1729 147.689 72.1513C147.793 72.1333 147.883 72.1153 147.958 72.0973C148.034 72.0792 148.092 72.0702 148.132 72.0702C148.186 72.0702 148.234 72.1297 148.276 72.2485C148.318 72.371 148.35 72.5439 148.372 72.7672C148.299 72.7492 148.24 72.7384 148.193 72.7348C148.147 72.7312 148.107 72.7294 148.072 72.7294C147.942 72.7294 147.824 72.742 147.716 72.7672C147.611 72.7961 147.508 72.8249 147.409 72.8537C147.394 72.9005 147.378 72.9599 147.361 73.032C147.343 73.1004 147.32 73.1977 147.293 73.3238C147.264 73.4498 147.229 73.6083 147.187 73.7992C147.147 73.9937 147.097 74.2333 147.038 74.5178C147.127 74.489 147.211 74.4656 147.29 74.4476C147.369 74.4296 147.436 74.4206 147.49 74.4206ZM150.26 78.219C150.125 78.1325 150.034 78.0515 149.987 77.9758C149.94 77.8966 149.917 77.7885 149.917 77.6516C149.917 77.5003 149.934 77.2878 149.967 77.0141C149.999 76.7367 150.042 76.4305 150.096 76.0955C150.148 75.7569 150.208 75.4039 150.277 75.0365C150.346 74.6655 150.416 74.3125 150.486 73.9775C150.557 73.6389 150.625 73.3292 150.691 73.0482C150.758 72.7672 150.818 72.5493 150.87 72.3944L150.844 72.0756C150.878 72.0756 150.924 72.0937 150.983 72.1297C151.042 72.1657 151.102 72.2089 151.162 72.2593C151.221 72.3098 151.274 72.3602 151.321 72.4106C151.366 72.4647 151.391 72.5097 151.396 72.5457C151.385 72.6682 151.375 72.8519 151.369 73.0968C151.36 73.3382 151.356 73.5975 151.356 73.8749C151.356 74.426 151.366 74.9645 151.386 75.4904C151.406 76.0199 151.454 76.5566 151.527 77.1005C151.564 76.6971 151.605 76.2955 151.648 75.8956C151.692 75.4922 151.738 75.1086 151.785 74.7448C151.832 74.3774 151.879 74.037 151.926 73.7236C151.973 73.4138 152.018 73.1401 152.062 72.9023C152.106 72.6682 152.146 72.4845 152.183 72.3512C152.22 72.2179 152.254 72.1459 152.286 72.1351C152.311 72.1459 152.339 72.1675 152.369 72.1999C152.4 72.2323 152.429 72.272 152.458 72.3188C152.486 72.3656 152.512 72.416 152.536 72.4701C152.559 72.5241 152.578 72.5799 152.591 72.6376C152.517 72.7024 152.442 72.8555 152.367 73.0968C152.293 73.3382 152.222 73.6317 152.155 73.9775C152.09 74.3233 152.027 74.6979 151.969 75.1014C151.911 75.5048 151.861 75.9028 151.817 76.2955C151.774 76.6845 151.739 77.0465 151.714 77.3815C151.69 77.7129 151.677 77.9794 151.674 78.1811C151.674 78.1919 151.675 78.1991 151.679 78.2027C151.672 78.2099 151.664 78.2136 151.656 78.2136C151.648 78.2136 151.64 78.2136 151.633 78.2136C151.524 78.2136 151.428 78.1847 151.343 78.1271C151.261 78.0659 151.207 77.983 151.18 77.8786C151.131 77.4535 151.09 77.0447 151.056 76.6521C151.024 76.2594 150.996 75.8668 150.973 75.4742C150.951 75.0816 150.934 74.6835 150.923 74.2801C150.909 73.8803 150.899 73.4606 150.892 73.0212C150.847 73.1725 150.8 73.3706 150.751 73.6155C150.701 73.8605 150.652 74.1288 150.605 74.4206C150.558 74.7123 150.513 75.0203 150.469 75.3445C150.425 75.6687 150.387 75.9839 150.355 76.2901C150.322 76.5962 150.296 76.888 150.277 77.1654C150.259 77.4391 150.25 77.6768 150.25 77.8786C150.25 77.983 150.25 78.0587 150.25 78.1055C150.251 78.1523 150.255 78.1901 150.26 78.219ZM154.819 73.059C154.725 73.059 154.653 73.0032 154.603 72.8915C154.552 72.7762 154.527 72.6376 154.527 72.4755C154.527 72.4358 154.529 72.389 154.535 72.335C154.541 72.2774 154.549 72.2287 154.557 72.1891C154.587 72.2215 154.633 72.2431 154.693 72.2539C154.754 72.2684 154.824 72.2756 154.902 72.2756C155.023 72.2756 155.16 72.263 155.311 72.2377C155.462 72.2161 155.607 72.1927 155.747 72.1675C155.886 72.1423 156.009 72.1189 156.115 72.0973C156.221 72.072 156.289 72.0594 156.319 72.0594C156.406 72.0594 156.469 72.1297 156.508 72.2702C156.547 72.407 156.575 72.5925 156.594 72.8267C156.533 72.8159 156.473 72.8069 156.412 72.7997C156.352 72.7925 156.301 72.7889 156.259 72.7889C156.183 72.7889 156.107 72.7943 156.032 72.8051C155.954 72.8123 155.877 72.8267 155.8 72.8483C155.766 72.996 155.73 73.1689 155.691 73.367C155.651 73.5651 155.612 73.7722 155.573 73.9883C155.534 74.2081 155.497 74.4242 155.462 74.6367C155.427 74.8528 155.396 75.0455 155.369 75.2148C155.317 75.5498 155.271 75.8578 155.233 76.1388C155.194 76.4197 155.16 76.6827 155.132 76.9276C155.102 77.1726 155.076 77.4067 155.056 77.63C155.034 77.8497 155.015 78.0659 154.998 78.2784C154.84 78.228 154.708 78.0172 154.603 77.6462C154.623 77.4877 154.646 77.3166 154.673 77.1329C154.7 76.9492 154.731 76.7403 154.766 76.5062C154.803 76.272 154.847 76.0055 154.897 75.7065C154.946 75.4111 155.002 75.0744 155.066 74.6961C155.09 74.5521 155.114 74.4044 155.139 74.2531C155.166 74.0982 155.192 73.9451 155.215 73.7938C155.24 73.6425 155.263 73.4967 155.283 73.3562C155.303 73.2157 155.32 73.086 155.334 72.9672C155.234 72.9924 155.141 73.014 155.054 73.032C154.965 73.05 154.887 73.059 154.819 73.059ZM160.722 78.219C160.61 78.1469 160.532 78.0767 160.488 78.0082C160.444 77.9362 160.423 77.8479 160.423 77.7435C160.423 77.6606 160.433 77.5472 160.455 77.4031C160.475 77.2554 160.507 77.0825 160.549 76.8844C160.589 76.6863 160.638 76.4648 160.695 76.2198C160.754 75.9785 160.819 75.7191 160.891 75.4418C160.831 75.4382 160.776 75.4346 160.727 75.431C160.679 75.4274 160.639 75.4256 160.609 75.4256C160.624 75.3499 160.664 75.2851 160.73 75.231C160.796 75.177 160.882 75.1284 160.99 75.0852C161.082 74.7574 161.18 74.4458 161.285 74.1504C161.39 73.8515 161.496 73.5777 161.602 73.3292C161.708 73.0806 161.814 72.8609 161.92 72.67C162.026 72.4827 162.126 72.3332 162.222 72.2215C162.224 72.1855 162.226 72.1549 162.227 72.1297C162.229 72.1045 162.23 72.0864 162.23 72.0756C162.262 72.0756 162.305 72.0937 162.361 72.1297C162.416 72.1657 162.471 72.2089 162.525 72.2593C162.577 72.3098 162.624 72.3602 162.666 72.4106C162.706 72.4647 162.729 72.5097 162.734 72.5457C162.657 72.8375 162.58 73.2751 162.504 73.8587C162.429 74.4422 162.367 75.1392 162.318 75.9497C162.306 76.1514 162.296 76.3801 162.288 76.6358C162.279 76.8952 162.275 77.1834 162.275 77.5003C162.275 77.612 162.275 77.7255 162.275 77.8407C162.275 77.956 162.278 78.0767 162.283 78.2027C162.278 78.2099 162.273 78.2136 162.268 78.2136C162.263 78.2136 162.253 78.2136 162.24 78.2136C162.206 78.2136 162.168 78.2009 162.124 78.1757C162.082 78.1541 162.04 78.1271 161.998 78.0947C161.958 78.0623 161.922 78.0262 161.892 77.9866C161.863 77.9434 161.845 77.9074 161.837 77.8786C161.835 77.8137 161.834 77.7489 161.834 77.684C161.834 77.6228 161.834 77.5562 161.834 77.4841C161.834 77.1708 161.839 76.8538 161.849 76.5332C161.861 76.209 161.879 75.8758 161.905 75.5336C161.871 75.53 161.827 75.5228 161.774 75.512C161.72 75.5048 161.659 75.4994 161.592 75.4958C161.525 75.4922 161.453 75.485 161.378 75.4742C161.301 75.467 161.226 75.4616 161.153 75.458C161.096 75.6849 161.043 75.91 160.995 76.1334C160.944 76.3603 160.901 76.5872 160.866 76.8142C160.827 77.0555 160.796 77.2968 160.77 77.5382C160.745 77.7795 160.729 78.0064 160.722 78.219ZM162.084 73.675C162.094 73.6029 162.105 73.5057 162.119 73.3832C162.131 73.2571 162.142 73.1274 162.154 72.9942C162.095 73.0374 162.031 73.1202 161.96 73.2427C161.888 73.3616 161.813 73.5111 161.736 73.6912C161.66 73.8713 161.583 74.073 161.504 74.2963C161.425 74.5196 161.349 74.7574 161.277 75.0095C161.474 74.9771 161.698 74.9555 161.95 74.9447C161.968 74.7322 161.989 74.5214 162.013 74.3125C162.035 74.1036 162.058 73.8911 162.084 73.675ZM164.907 78.219C164.774 78.1325 164.684 78.0515 164.637 77.9758C164.59 77.8966 164.566 77.7885 164.566 77.6516C164.566 77.5003 164.582 77.2878 164.614 77.0141C164.648 76.7367 164.691 76.4305 164.743 76.0955C164.797 75.7569 164.857 75.4039 164.924 75.0365C164.993 74.6655 165.063 74.3125 165.133 73.9775C165.204 73.6389 165.273 73.3292 165.34 73.0482C165.407 72.7672 165.467 72.5493 165.519 72.3944L165.494 72.0756C165.526 72.0756 165.571 72.0937 165.63 72.1297C165.689 72.1657 165.748 72.2089 165.809 72.2593C165.869 72.3098 165.922 72.3602 165.968 72.4106C166.013 72.4647 166.038 72.5097 166.043 72.5457C166.032 72.6682 166.022 72.8519 166.016 73.0968C166.009 73.3382 166.006 73.5975 166.006 73.8749C166.006 74.426 166.016 74.9645 166.036 75.4904C166.056 76.0199 166.102 76.5566 166.174 77.1005C166.211 76.6971 166.252 76.2955 166.295 75.8956C166.339 75.4922 166.384 75.1086 166.432 74.7448C166.479 74.3774 166.526 74.037 166.573 73.7236C166.62 73.4138 166.665 73.1401 166.709 72.9023C166.752 72.6682 166.793 72.4845 166.83 72.3512C166.868 72.2179 166.903 72.1459 166.933 72.1351C166.958 72.1459 166.987 72.1675 167.019 72.1999C167.049 72.2323 167.078 72.272 167.107 72.3188C167.134 72.3656 167.159 72.416 167.183 72.4701C167.206 72.5241 167.225 72.5799 167.241 72.6376C167.165 72.7024 167.09 72.8555 167.016 73.0968C166.942 73.3382 166.872 73.6317 166.805 73.9775C166.737 74.3233 166.675 74.6979 166.618 75.1014C166.559 75.5048 166.508 75.9028 166.464 76.2955C166.422 76.6845 166.389 77.0465 166.363 77.3815C166.338 77.7129 166.325 77.9794 166.323 78.1811C166.323 78.1919 166.324 78.1991 166.326 78.2027C166.319 78.2099 166.311 78.2136 166.303 78.2136C166.295 78.2136 166.287 78.2136 166.28 78.2136C166.173 78.2136 166.077 78.1847 165.993 78.1271C165.909 78.0659 165.854 77.983 165.829 77.8786C165.779 77.4535 165.738 77.0447 165.706 76.6521C165.672 76.2594 165.644 75.8668 165.622 75.4742C165.601 75.0816 165.583 74.6835 165.569 74.2801C165.556 73.8803 165.546 73.4606 165.539 73.0212C165.494 73.1725 165.447 73.3706 165.398 73.6155C165.349 73.8605 165.301 74.1288 165.254 74.4206C165.207 74.7123 165.162 75.0203 165.118 75.3445C165.075 75.6687 165.036 75.9839 165.002 76.2901C164.97 76.5962 164.944 76.888 164.924 77.1654C164.906 77.4391 164.896 77.6768 164.896 77.8786C164.896 77.983 164.897 78.0587 164.899 78.1055C164.901 78.1523 164.903 78.1901 164.907 78.219ZM170.071 75.0365C170.248 74.6223 170.406 74.1828 170.545 73.7182C170.685 73.2535 170.815 72.7312 170.936 72.1513C170.996 72.1657 171.055 72.2017 171.112 72.2593C171.168 72.3134 171.212 72.3764 171.246 72.4485C171.116 72.7798 170.999 73.0824 170.893 73.3562C170.789 73.6263 170.693 73.8821 170.606 74.1234C170.52 74.3611 170.439 74.5899 170.364 74.8096C170.29 75.0293 170.217 75.2509 170.147 75.4742C170.112 75.7299 170.079 75.9893 170.049 76.2522C170.018 76.5152 169.991 76.7655 169.968 77.0033C169.944 77.2446 169.926 77.4661 169.912 77.6678C169.901 77.8732 169.895 78.0497 169.895 78.1973C169.868 78.1973 169.827 78.1865 169.771 78.1649C169.714 78.1397 169.656 78.1127 169.597 78.0839C169.539 78.0515 169.485 78.0208 169.436 77.992C169.389 77.9632 169.36 77.938 169.35 77.9164C169.387 77.7795 169.424 77.612 169.461 77.4139C169.498 77.2158 169.534 77.0069 169.57 76.7871C169.605 76.5674 169.638 76.3459 169.67 76.1226C169.704 75.8956 169.735 75.6867 169.764 75.4958C169.705 75.1032 169.648 74.734 169.592 74.3882C169.537 74.0424 169.483 73.729 169.431 73.448C169.379 73.1707 169.329 72.9311 169.282 72.7294C169.235 72.5277 169.191 72.3728 169.149 72.2648C169.172 72.2467 169.208 72.2269 169.257 72.2053C169.306 72.1837 169.359 72.1639 169.416 72.1459C169.473 72.1243 169.532 72.1081 169.592 72.0973C169.653 72.0828 169.707 72.0738 169.754 72.0702C169.754 72.1963 169.759 72.3494 169.769 72.5295C169.779 72.7132 169.793 72.9077 169.812 73.113C169.828 73.3184 169.849 73.5273 169.872 73.7398C169.896 73.9523 169.919 74.1468 169.943 74.3233C169.966 74.4998 169.989 74.6529 170.011 74.7826C170.034 74.9087 170.054 74.9933 170.071 75.0365ZM173.146 77.8786C173.135 77.6732 173.126 77.4481 173.121 77.2032C173.114 76.9582 173.111 76.7295 173.111 76.517C173.111 76.1784 173.117 75.8542 173.129 75.5444C173.139 75.2346 173.151 74.9087 173.166 74.5665C173.182 74.2279 173.198 73.8587 173.217 73.4588C173.237 73.0554 173.254 72.5925 173.267 72.0702C173.298 72.0702 173.341 72.0883 173.398 72.1243C173.457 72.1639 173.516 72.2089 173.575 72.2593C173.634 72.3098 173.685 72.3602 173.729 72.4106C173.774 72.4647 173.8 72.5097 173.807 72.5457C173.766 72.7438 173.73 73.0032 173.698 73.3238C173.668 73.6407 173.642 73.9883 173.62 74.3666C173.598 74.7448 173.581 75.1338 173.57 75.5336C173.558 75.9334 173.552 76.3063 173.552 76.6521C173.552 76.8142 173.554 76.9726 173.557 77.1275C173.559 77.286 173.562 77.4301 173.567 77.5598C173.616 77.4049 173.673 77.1816 173.739 76.8898C173.802 76.6016 173.87 76.2774 173.94 75.9172C174.009 75.5606 174.078 75.1878 174.147 74.7988C174.218 74.4062 174.282 74.0316 174.341 73.675C174.4 73.322 174.449 73.0014 174.49 72.7132C174.532 72.4286 174.56 72.2143 174.575 72.0702C174.607 72.0702 174.653 72.0883 174.712 72.1243C174.772 72.1639 174.831 72.2089 174.888 72.2593C174.947 72.3098 174.998 72.3602 175.042 72.4106C175.087 72.4647 175.112 72.5097 175.117 72.5457C175.077 72.7438 175.041 73.0032 175.009 73.3238C174.977 73.6407 174.95 73.9883 174.928 74.3666C174.908 74.7448 174.892 75.1338 174.88 75.5336C174.869 75.9334 174.863 76.3063 174.863 76.6521C174.863 76.7997 174.863 76.9456 174.863 77.0897C174.864 77.2338 174.868 77.3635 174.873 77.4787C174.948 77.0609 175.027 76.6449 175.107 76.2306C175.188 75.82 175.269 75.4274 175.349 75.0527C175.43 74.6781 175.507 74.3269 175.581 73.9991C175.657 73.675 175.726 73.385 175.79 73.1292C175.854 72.8771 175.91 72.6682 175.957 72.5025C176.004 72.3332 176.04 72.2215 176.065 72.1675C176.119 72.1819 176.175 72.2233 176.234 72.2918C176.291 72.3602 176.342 72.4467 176.388 72.5511C176.319 72.67 176.241 72.8609 176.153 73.1238C176.066 73.3904 175.977 73.6966 175.886 74.0424C175.794 74.3918 175.701 74.7628 175.609 75.1554C175.516 75.548 175.43 75.9316 175.349 76.3063C175.269 76.6773 175.197 77.0249 175.135 77.3491C175.073 77.6732 175.026 77.9326 174.994 78.1271C174.932 78.1883 174.871 78.219 174.812 78.219C174.737 78.1973 174.665 78.1577 174.598 78.1001C174.533 78.0389 174.486 77.965 174.457 77.8786C174.45 77.7993 174.444 77.7057 174.439 77.5976C174.434 77.4859 174.431 77.3779 174.429 77.2734C174.426 77.169 174.423 77.0663 174.422 76.9654C174.422 76.8682 174.422 76.7835 174.422 76.7115C174.422 76.2648 174.43 75.8074 174.447 75.3391C174.462 74.8744 174.481 74.3738 174.505 73.837C174.451 74.1828 174.391 74.5521 174.326 74.9447C174.26 75.3373 174.191 75.7263 174.119 76.1117C174.047 76.4972 173.974 76.8646 173.9 77.214C173.826 77.567 173.754 77.8714 173.683 78.1271C173.623 78.1883 173.563 78.219 173.504 78.219C173.429 78.1973 173.357 78.1577 173.29 78.1001C173.223 78.0389 173.175 77.965 173.146 77.8786ZM179.198 77.2032C179.198 76.9943 179.215 76.7223 179.249 76.3873C179.282 76.0559 179.326 75.7011 179.38 75.3229C179.223 75.3481 179.067 75.3805 178.911 75.4202C178.755 75.4598 178.619 75.4832 178.505 75.4904C178.399 76.0199 178.314 76.5062 178.25 76.9492C178.188 77.3959 178.139 77.8317 178.104 78.2568C178.015 78.2099 177.941 78.1307 177.882 78.019C177.824 77.9038 177.77 77.7615 177.721 77.5922C177.74 77.5093 177.761 77.4049 177.787 77.2788C177.81 77.1527 177.84 77.0015 177.875 76.825C177.908 76.6449 177.947 76.4359 177.991 76.1982C178.034 75.9569 178.084 75.6777 178.139 75.3607C178.062 75.2887 178.011 75.1896 177.986 75.0636C177.997 75.0455 178.024 75.0239 178.064 74.9987C178.106 74.9771 178.157 74.9537 178.218 74.9285L178.263 74.6853C178.313 74.4152 178.355 74.1864 178.386 73.9991C178.418 73.8118 178.445 73.6281 178.467 73.448C178.489 73.2715 178.51 73.0734 178.53 72.8537C178.55 72.6376 178.575 72.3638 178.603 72.0324C178.702 72.072 178.792 72.1657 178.873 72.3134C178.954 72.4575 179.023 72.634 179.082 72.8429C179.062 72.9005 179.036 72.9906 179.004 73.113C178.974 73.2355 178.94 73.3796 178.903 73.5453C178.868 73.7146 178.829 73.9037 178.787 74.1126C178.744 74.3251 178.697 74.5467 178.649 74.7772C178.795 74.7376 178.943 74.6997 179.092 74.6637C179.242 74.6277 179.374 74.6025 179.488 74.5881C179.53 74.3251 179.575 74.0694 179.622 73.8208C179.667 73.5723 179.712 73.3436 179.758 73.1346C179.801 72.9293 179.844 72.7474 179.886 72.5889C179.927 72.434 179.964 72.3188 179.997 72.2431C180.021 72.2467 180.052 72.2666 180.09 72.3026C180.129 72.335 180.169 72.3728 180.209 72.416C180.249 72.4629 180.285 72.5133 180.317 72.5673C180.351 72.6178 180.374 72.6664 180.385 72.7132C180.343 72.7997 180.3 72.9095 180.257 73.0428C180.215 73.1797 180.174 73.3364 180.133 73.5129C180.091 73.6894 180.05 73.8821 180.01 74.091C179.971 74.2963 179.934 74.5106 179.899 74.734C179.946 74.824 179.969 74.9375 179.969 75.0744C179.969 75.168 179.959 75.2563 179.939 75.3391C179.919 75.3283 179.898 75.3211 179.876 75.3175C179.856 75.3139 179.834 75.3103 179.811 75.3067C179.77 75.5804 179.733 75.8506 179.7 76.1172C179.668 76.3837 179.64 76.6377 179.617 76.879C179.595 77.1203 179.577 77.3419 179.564 77.5436C179.552 77.7453 179.546 77.9146 179.546 78.0515C179.546 78.1019 179.546 78.1433 179.546 78.1757C179.548 78.2045 179.549 78.2298 179.551 78.2514C179.501 78.2442 179.464 78.2244 179.44 78.1919C179.417 78.1595 179.399 78.1253 179.387 78.0893C179.375 78.0497 179.364 78.0118 179.354 77.9758C179.344 77.9362 179.329 77.9056 179.309 77.884C179.292 77.8696 179.277 77.8353 179.264 77.7813C179.249 77.7237 179.237 77.6606 179.228 77.5922C179.218 77.5202 179.211 77.4499 179.206 77.3815C179.201 77.3094 179.198 77.25 179.198 77.2032ZM183.428 74.4206C183.505 74.4206 183.565 74.4656 183.609 74.5557C183.653 74.6493 183.675 74.7754 183.675 74.9339C183.675 74.9771 183.672 75.0185 183.667 75.0581C183.664 75.1014 183.66 75.1392 183.657 75.1716C183.625 75.1608 183.591 75.1518 183.554 75.1446C183.517 75.1374 183.472 75.1338 183.42 75.1338C183.319 75.1338 183.217 75.1518 183.113 75.1878C183.008 75.2274 182.909 75.2599 182.815 75.2851C182.761 75.5516 182.713 75.8092 182.669 76.0577C182.624 76.3099 182.585 76.5386 182.553 76.7439C182.521 76.9492 182.497 77.1275 182.48 77.2788C182.461 77.4301 182.451 77.5436 182.45 77.6192C182.64 77.5364 182.832 77.4643 183.027 77.4031C183.22 77.3419 183.424 77.2968 183.639 77.268C183.665 77.3509 183.686 77.4427 183.702 77.5436C183.721 77.6444 183.73 77.7543 183.73 77.8732C183.73 77.902 183.73 77.9344 183.73 77.9704C183.73 78.0064 183.728 78.0407 183.723 78.0731C183.657 78.0695 183.588 78.0659 183.516 78.0623C183.442 78.0623 183.346 78.0623 183.228 78.0623C183.151 78.0623 183.078 78.0659 183.009 78.0731C182.939 78.0803 182.868 78.0911 182.797 78.1055C182.727 78.1199 182.652 78.1397 182.573 78.1649C182.496 78.1901 182.408 78.2208 182.308 78.2568C182.199 78.1667 182.094 77.9452 181.993 77.5922C182.034 77.4085 182.09 77.1311 182.162 76.7601C182.233 76.3927 182.324 75.8974 182.435 75.2743C182.329 75.2058 182.26 75.0798 182.228 74.8961C182.24 74.8708 182.273 74.8402 182.329 74.8042C182.386 74.7646 182.456 74.725 182.538 74.6853C182.573 74.4908 182.603 74.3197 182.626 74.172C182.651 74.0244 182.673 73.8875 182.692 73.7614C182.712 73.6317 182.729 73.5057 182.745 73.3832C182.76 73.2571 182.774 73.122 182.787 72.978C182.705 72.9672 182.64 72.9185 182.593 72.8321C182.546 72.742 182.523 72.6268 182.523 72.4863C182.523 72.4467 182.526 72.398 182.533 72.3404C182.538 72.2864 182.544 72.2395 182.55 72.1999C182.598 72.2143 182.643 72.2233 182.687 72.2269C182.73 72.2341 182.787 72.2377 182.858 72.2377C183.006 72.2377 183.144 72.2287 183.274 72.2107C183.403 72.1927 183.521 72.1729 183.627 72.1513C183.731 72.1333 183.821 72.1153 183.896 72.0973C183.972 72.0792 184.029 72.0702 184.068 72.0702C184.123 72.0702 184.172 72.1297 184.214 72.2485C184.256 72.371 184.288 72.5439 184.31 72.7672C184.236 72.7492 184.176 72.7384 184.131 72.7348C184.085 72.7312 184.045 72.7294 184.01 72.7294C183.88 72.7294 183.762 72.742 183.654 72.7672C183.547 72.7961 183.444 72.8249 183.344 72.8537C183.331 72.9005 183.315 72.9599 183.297 73.032C183.28 73.1004 183.257 73.1977 183.228 73.3238C183.2 73.4498 183.165 73.6083 183.125 73.7992C183.083 73.9937 183.033 74.2333 182.974 74.5178C183.065 74.489 183.149 74.4656 183.226 74.4476C183.305 74.4296 183.372 74.4206 183.428 74.4206ZM188.282 73.475C188.282 73.7164 188.257 73.9451 188.207 74.1612C188.156 74.3738 188.086 74.5647 187.997 74.734C187.907 74.9033 187.802 75.0455 187.682 75.1608C187.563 75.2797 187.433 75.3589 187.292 75.3985C187.327 75.6255 187.37 75.8578 187.42 76.0955C187.471 76.3369 187.525 76.5674 187.584 76.7871C187.643 77.0105 187.704 77.2158 187.768 77.4031C187.83 77.5904 187.892 77.7435 187.955 77.8624C187.943 77.9128 187.925 77.9632 187.902 78.0136C187.88 78.0641 187.855 78.1109 187.826 78.1541C187.796 78.1973 187.765 78.2334 187.733 78.2622C187.701 78.2874 187.671 78.3 187.644 78.3C187.592 78.3 187.543 78.2478 187.496 78.1433C187.449 78.0389 187.401 77.8714 187.352 77.6408C187.303 77.4103 187.253 77.1131 187.201 76.7493C187.147 76.3819 187.089 75.9407 187.027 75.4256C187 75.4256 186.974 75.4256 186.949 75.4256C186.922 75.4256 186.902 75.422 186.888 75.4148C186.872 75.3931 186.854 75.3571 186.835 75.3067C186.772 75.5985 186.715 75.874 186.667 76.1334C186.616 76.3891 186.572 76.6377 186.533 76.879C186.494 77.1167 186.461 77.3473 186.432 77.5706C186.402 77.7975 186.377 78.0262 186.356 78.2568C186.276 78.2172 186.206 78.1433 186.147 78.0352C186.088 77.9308 186.033 77.7831 185.981 77.5922C185.991 77.5454 186.001 77.5003 186.011 77.4571C186.021 77.4139 186.035 77.3545 186.052 77.2788C186.068 77.1996 186.089 77.0987 186.115 76.9762C186.138 76.8574 186.171 76.6971 186.213 76.4954C186.253 76.2937 186.303 76.0469 186.362 75.7551C186.419 75.4598 186.488 75.1032 186.571 74.6853C186.608 74.498 186.64 74.3341 186.667 74.1937C186.695 74.0532 186.719 73.9181 186.74 73.7884C186.761 73.6623 186.781 73.5345 186.798 73.4048C186.816 73.2751 186.835 73.1274 186.853 72.9617C186.745 73.041 186.645 73.131 186.551 73.2319C186.458 73.3292 186.382 73.4336 186.321 73.5453C186.299 73.5129 186.278 73.4678 186.256 73.4102C186.232 73.349 186.211 73.2805 186.193 73.2049C186.174 73.1328 186.158 73.059 186.145 72.9834C186.13 72.9077 186.121 72.8393 186.12 72.778C186.19 72.6772 186.277 72.5853 186.379 72.5025C186.482 72.416 186.59 72.3404 186.704 72.2756C186.82 72.2143 186.938 72.1657 187.057 72.1297C187.178 72.0937 187.29 72.0756 187.392 72.0756C187.675 72.0756 187.894 72.1999 188.05 72.4485C188.205 72.7006 188.282 73.0428 188.282 73.475ZM187.38 72.697L187.42 72.8429C187.405 72.8861 187.38 72.9762 187.345 73.113C187.309 73.2499 187.268 73.412 187.221 73.5993C187.176 73.7902 187.128 73.9955 187.077 74.2153C187.027 74.4386 186.978 74.6583 186.931 74.8744C187.108 74.8744 187.27 74.8402 187.418 74.7718C187.566 74.6997 187.694 74.5989 187.803 74.4692C187.911 74.3431 187.995 74.1919 188.055 74.0154C188.114 73.8425 188.144 73.6497 188.144 73.4372C188.144 73.1851 188.102 72.9924 188.018 72.8591C187.934 72.7258 187.803 72.6592 187.627 72.6592C187.587 72.6592 187.546 72.6628 187.506 72.67C187.466 72.6772 187.424 72.6862 187.38 72.697ZM191.514 74.4206C191.593 74.4206 191.653 74.4656 191.695 74.5557C191.739 74.6493 191.761 74.7754 191.761 74.9339C191.761 74.9771 191.759 75.0185 191.756 75.0581C191.752 75.1014 191.748 75.1392 191.743 75.1716C191.713 75.1608 191.679 75.1518 191.642 75.1446C191.603 75.1374 191.559 75.1338 191.508 75.1338C191.406 75.1338 191.304 75.1518 191.201 75.1878C191.097 75.2274 190.998 75.2599 190.904 75.2851C190.85 75.5516 190.8 75.8092 190.755 76.0577C190.711 76.3099 190.673 76.5386 190.641 76.7439C190.61 76.9492 190.584 77.1275 190.566 77.2788C190.549 77.4301 190.54 77.5436 190.538 77.6192C190.728 77.5364 190.92 77.4643 191.113 77.4031C191.308 77.3419 191.512 77.2968 191.725 77.268C191.752 77.3509 191.774 77.4427 191.791 77.5436C191.809 77.6444 191.819 77.7543 191.819 77.8732C191.819 77.902 191.819 77.9344 191.819 77.9704C191.819 78.0064 191.816 78.0407 191.811 78.0731C191.745 78.0695 191.676 78.0659 191.602 78.0623C191.53 78.0623 191.435 78.0623 191.317 78.0623C191.24 78.0623 191.166 78.0659 191.095 78.0731C191.026 78.0803 190.957 78.0911 190.886 78.1055C190.815 78.1199 190.741 78.1397 190.662 78.1649C190.583 78.1901 190.494 78.2208 190.397 78.2568C190.288 78.1667 190.183 77.9452 190.082 77.5922C190.122 77.4085 190.178 77.1311 190.248 76.7601C190.32 76.3927 190.412 75.8974 190.523 75.2743C190.417 75.2058 190.347 75.0798 190.314 74.8961C190.326 74.8708 190.36 74.8402 190.417 74.8042C190.474 74.7646 190.544 74.725 190.626 74.6853C190.662 74.4908 190.691 74.3197 190.715 74.172C190.74 74.0244 190.762 73.8875 190.78 73.7614C190.799 73.6317 190.815 73.5057 190.83 73.3832C190.847 73.2571 190.862 73.122 190.876 72.978C190.794 72.9672 190.729 72.9185 190.682 72.8321C190.635 72.742 190.611 72.6268 190.611 72.4863C190.611 72.4467 190.614 72.398 190.619 72.3404C190.625 72.2864 190.632 72.2395 190.639 72.1999C190.686 72.2143 190.731 72.2233 190.775 72.2269C190.819 72.2341 190.876 72.2377 190.946 72.2377C191.094 72.2377 191.233 72.2287 191.362 72.2107C191.492 72.1927 191.608 72.1729 191.713 72.1513C191.819 72.1333 191.909 72.1153 191.985 72.0973C192.059 72.0792 192.116 72.0702 192.156 72.0702C192.21 72.0702 192.259 72.1297 192.302 72.2485C192.344 72.371 192.376 72.5439 192.396 72.7672C192.323 72.7492 192.265 72.7384 192.219 72.7348C192.172 72.7312 192.131 72.7294 192.096 72.7294C191.966 72.7294 191.849 72.742 191.743 72.7672C191.635 72.7961 191.532 72.8249 191.433 72.8537C191.419 72.9005 191.403 72.9599 191.385 73.032C191.368 73.1004 191.346 73.1977 191.317 73.3238C191.288 73.4498 191.254 73.6083 191.214 73.7992C191.172 73.9937 191.121 74.2333 191.062 74.5178C191.151 74.489 191.235 74.4656 191.314 74.4476C191.393 74.4296 191.46 74.4206 191.514 74.4206ZM196.734 78.219C196.621 78.1469 196.543 78.0767 196.499 78.0082C196.456 77.9362 196.434 77.8479 196.434 77.7435C196.434 77.6606 196.445 77.5472 196.466 77.4031C196.487 77.2554 196.518 77.0825 196.56 76.8844C196.6 76.6863 196.649 76.4648 196.706 76.2198C196.765 75.9785 196.83 75.7191 196.902 75.4418C196.842 75.4382 196.787 75.4346 196.739 75.431C196.69 75.4274 196.65 75.4256 196.62 75.4256C196.635 75.3499 196.676 75.2851 196.741 75.231C196.807 75.177 196.893 75.1284 197.001 75.0852C197.093 74.7574 197.192 74.4458 197.296 74.1504C197.402 73.8515 197.507 73.5777 197.613 73.3292C197.719 73.0806 197.825 72.8609 197.931 72.67C198.037 72.4827 198.138 72.3332 198.233 72.2215C198.235 72.1855 198.237 72.1549 198.238 72.1297C198.24 72.1045 198.241 72.0864 198.241 72.0756C198.273 72.0756 198.317 72.0937 198.372 72.1297C198.427 72.1657 198.482 72.2089 198.536 72.2593C198.588 72.3098 198.635 72.3602 198.677 72.4106C198.717 72.4647 198.74 72.5097 198.745 72.5457C198.668 72.8375 198.591 73.2751 198.516 73.8587C198.44 74.4422 198.378 75.1392 198.329 75.9497C198.317 76.1514 198.307 76.3801 198.299 76.6358C198.29 76.8952 198.286 77.1834 198.286 77.5003C198.286 77.612 198.286 77.7255 198.286 77.8407C198.286 77.956 198.289 78.0767 198.294 78.2027C198.289 78.2099 198.284 78.2136 198.279 78.2136C198.274 78.2136 198.264 78.2136 198.251 78.2136C198.217 78.2136 198.179 78.2009 198.135 78.1757C198.093 78.1541 198.051 78.1271 198.009 78.0947C197.969 78.0623 197.933 78.0262 197.903 77.9866C197.875 77.9434 197.856 77.9074 197.848 77.8786C197.846 77.8137 197.845 77.7489 197.845 77.684C197.845 77.6228 197.845 77.5562 197.845 77.4841C197.845 77.1708 197.85 76.8538 197.86 76.5332C197.872 76.209 197.891 75.8758 197.916 75.5336C197.882 75.53 197.838 75.5228 197.785 75.512C197.731 75.5048 197.67 75.4994 197.603 75.4958C197.536 75.4922 197.465 75.485 197.389 75.4742C197.312 75.467 197.237 75.4616 197.165 75.458C197.107 75.6849 197.055 75.91 197.006 76.1334C196.955 76.3603 196.913 76.5872 196.877 76.8142C196.839 77.0555 196.807 77.2968 196.782 77.5382C196.756 77.7795 196.74 78.0064 196.734 78.219ZM198.095 73.675C198.105 73.6029 198.117 73.5057 198.13 73.3832C198.142 73.2571 198.154 73.1274 198.165 72.9942C198.106 73.0374 198.042 73.1202 197.971 73.2427C197.899 73.3616 197.824 73.5111 197.747 73.6912C197.671 73.8713 197.594 74.073 197.515 74.2963C197.436 74.5196 197.36 74.7574 197.288 75.0095C197.485 74.9771 197.709 74.9555 197.961 74.9447C197.98 74.7322 198.001 74.5214 198.024 74.3125C198.046 74.1036 198.07 73.8911 198.095 73.675ZM200.918 78.219C200.785 78.1325 200.695 78.0515 200.648 77.9758C200.601 77.8966 200.577 77.7885 200.577 77.6516C200.577 77.5003 200.593 77.2878 200.625 77.0141C200.659 76.7367 200.702 76.4305 200.754 76.0955C200.808 75.7569 200.868 75.4039 200.935 75.0365C201.004 74.6655 201.074 74.3125 201.145 73.9775C201.215 73.6389 201.284 73.3292 201.351 73.0482C201.418 72.7672 201.478 72.5493 201.53 72.3944L201.505 72.0756C201.537 72.0756 201.582 72.0937 201.641 72.1297C201.7 72.1657 201.76 72.2089 201.82 72.2593C201.881 72.3098 201.934 72.3602 201.979 72.4106C202.024 72.4647 202.049 72.5097 202.055 72.5457C202.043 72.6682 202.033 72.8519 202.027 73.0968C202.02 73.3382 202.017 73.5975 202.017 73.8749C202.017 74.426 202.027 74.9645 202.047 75.4904C202.067 76.0199 202.113 76.5566 202.186 77.1005C202.223 76.6971 202.263 76.2955 202.307 75.8956C202.35 75.4922 202.396 75.1086 202.443 74.7448C202.49 74.3774 202.537 74.037 202.584 73.7236C202.631 73.4138 202.676 73.1401 202.72 72.9023C202.764 72.6682 202.804 72.4845 202.841 72.3512C202.88 72.2179 202.914 72.1459 202.944 72.1351C202.969 72.1459 202.998 72.1675 203.03 72.1999C203.06 72.2323 203.09 72.272 203.118 72.3188C203.145 72.3656 203.17 72.416 203.194 72.4701C203.217 72.5241 203.237 72.5799 203.252 72.6376C203.176 72.7024 203.101 72.8555 203.027 73.0968C202.953 73.3382 202.883 73.6317 202.816 73.9775C202.749 74.3233 202.686 74.6979 202.629 75.1014C202.57 75.5048 202.519 75.9028 202.475 76.2955C202.433 76.6845 202.4 77.0465 202.375 77.3815C202.349 77.7129 202.336 77.9794 202.334 78.1811C202.334 78.1919 202.335 78.1991 202.337 78.2027C202.33 78.2099 202.323 78.2136 202.314 78.2136C202.306 78.2136 202.298 78.2136 202.291 78.2136C202.184 78.2136 202.088 78.1847 202.004 78.1271C201.92 78.0659 201.865 77.983 201.84 77.8786C201.79 77.4535 201.749 77.0447 201.717 76.6521C201.683 76.2594 201.655 75.8668 201.634 75.4742C201.612 75.0816 201.594 74.6835 201.581 74.2801C201.567 73.8803 201.557 73.4606 201.55 73.0212C201.505 73.1725 201.458 73.3706 201.409 73.6155C201.361 73.8605 201.313 74.1288 201.266 74.4206C201.219 74.7123 201.173 75.0203 201.129 75.3445C201.086 75.6687 201.047 75.9839 201.014 76.2901C200.982 76.5962 200.956 76.888 200.935 77.1654C200.917 77.4391 200.908 77.6768 200.908 77.8786C200.908 77.983 200.908 78.0587 200.91 78.1055C200.912 78.1523 200.914 78.1901 200.918 78.219ZM205.016 77.2518C205.051 77.0861 205.093 76.8718 205.142 76.6088C205.193 76.3459 205.245 76.0613 205.298 75.7551C205.352 75.4526 205.408 75.141 205.465 74.8204C205.52 74.4998 205.573 74.1955 205.624 73.9073C205.672 73.6191 205.715 73.3616 205.752 73.1346C205.787 72.9077 205.813 72.7348 205.83 72.616C205.682 72.7456 205.556 72.9437 205.45 73.2103C205.344 73.4768 205.264 73.8118 205.21 74.2153C205.156 74.1756 205.107 74.1036 205.062 73.9991C205.016 73.8983 204.987 73.7686 204.973 73.6101C204.997 73.3796 205.041 73.1689 205.104 72.978C205.17 72.787 205.252 72.6232 205.351 72.4863C205.451 72.3494 205.565 72.2449 205.694 72.1729C205.824 72.0973 205.962 72.0594 206.11 72.0594C206.298 72.0594 206.471 72.1189 206.629 72.2377C206.786 72.3566 206.921 72.5223 207.035 72.7348C207.148 72.9473 207.236 73.2013 207.3 73.4967C207.362 73.7956 207.393 74.127 207.393 74.4908C207.393 74.9843 207.351 75.4562 207.267 75.9064C207.183 76.3531 207.068 76.7475 206.922 77.0897C206.777 77.4355 206.61 77.7093 206.42 77.911C206.23 78.1163 206.03 78.219 205.82 78.219C205.627 78.219 205.461 78.1379 205.324 77.9758C205.186 77.8101 205.083 77.5688 205.016 77.2518ZM206.261 72.4377C206.144 72.4377 206.032 72.4737 205.926 72.5457C206.03 72.625 206.116 72.7096 206.183 72.7997C206.252 72.8861 206.299 72.9545 206.324 73.005C206.306 73.0626 206.278 73.1617 206.241 73.3021C206.206 73.4426 206.164 73.6137 206.115 73.8154C206.066 74.0172 206.015 74.2387 205.961 74.48C205.908 74.7178 205.855 74.9627 205.803 75.2148C205.668 75.856 205.571 76.3603 205.51 76.7277C205.451 77.0951 205.422 77.3509 205.422 77.4949C205.454 77.5202 205.493 77.5364 205.54 77.5436C205.587 77.5544 205.639 77.5598 205.694 77.5598C205.884 77.5598 206.064 77.4661 206.234 77.2788C206.405 77.0879 206.555 76.834 206.682 76.517C206.812 76.2 206.913 75.8308 206.987 75.4093C207.061 74.9879 207.098 74.5449 207.098 74.0802C207.098 73.5615 207.023 73.1581 206.871 72.8699C206.722 72.5817 206.518 72.4377 206.261 72.4377ZM212.051 78.219C211.938 78.1469 211.86 78.0767 211.817 78.0082C211.773 77.9362 211.751 77.8479 211.751 77.7435C211.751 77.6606 211.762 77.5472 211.784 77.4031C211.806 77.2554 211.837 77.0825 211.877 76.8844C211.919 76.6863 211.969 76.4648 212.026 76.2198C212.083 75.9785 212.148 75.7191 212.222 75.4418C212.16 75.4382 212.105 75.4346 212.056 75.431C212.009 75.4274 211.97 75.4256 211.94 75.4256C211.954 75.3499 211.993 75.2851 212.059 75.231C212.124 75.177 212.211 75.1284 212.321 75.0852C212.411 74.7574 212.51 74.4458 212.616 74.1504C212.72 73.8515 212.825 73.5777 212.931 73.3292C213.037 73.0806 213.142 72.8609 213.248 72.67C213.354 72.4827 213.455 72.3332 213.551 72.2215C213.554 72.1855 213.556 72.1549 213.556 72.1297C213.557 72.1045 213.558 72.0864 213.558 72.0756C213.592 72.0756 213.636 72.0937 213.692 72.1297C213.747 72.1657 213.801 72.2089 213.853 72.2593C213.907 72.3098 213.954 72.3602 213.994 72.4106C214.036 72.4647 214.059 72.5097 214.062 72.5457C213.985 72.8375 213.909 73.2751 213.833 73.8587C213.759 74.4422 213.697 75.1392 213.647 75.9497C213.635 76.1514 213.625 76.3801 213.616 76.6358C213.608 76.8952 213.604 77.1834 213.604 77.5003C213.604 77.612 213.604 77.7255 213.604 77.8407C213.604 77.956 213.606 78.0767 213.611 78.2027C213.606 78.2099 213.602 78.2136 213.599 78.2136C213.594 78.2136 213.584 78.2136 213.568 78.2136C213.536 78.2136 213.499 78.2009 213.455 78.1757C213.411 78.1541 213.368 78.1271 213.326 78.0947C213.286 78.0623 213.251 78.0262 213.221 77.9866C213.192 77.9434 213.174 77.9074 213.168 77.8786C213.164 77.8137 213.163 77.7489 213.163 77.684C213.163 77.6228 213.163 77.5562 213.163 77.4841C213.163 77.1708 213.168 76.8538 213.18 76.5332C213.19 76.209 213.208 75.8758 213.233 75.5336C213.201 75.53 213.158 75.5228 213.105 75.512C213.049 75.5048 212.988 75.4994 212.921 75.4958C212.855 75.4922 212.784 75.485 212.706 75.4742C212.631 75.467 212.556 75.4616 212.482 75.458C212.427 75.6849 212.374 75.91 212.323 76.1334C212.275 76.3603 212.233 76.5872 212.197 76.8142C212.157 77.0555 212.124 77.2968 212.099 77.5382C212.075 77.7795 212.059 78.0064 212.051 78.219ZM213.415 73.675C213.423 73.6029 213.434 73.5057 213.447 73.3832C213.461 73.2571 213.473 73.1274 213.485 72.9942C213.426 73.0374 213.361 73.1202 213.289 73.2427C213.216 73.3616 213.142 73.5111 213.067 73.6912C212.99 73.8713 212.911 74.073 212.832 74.2963C212.755 74.5196 212.679 74.7574 212.606 75.0095C212.804 74.9771 213.029 74.9555 213.281 74.9447C213.3 74.7322 213.32 74.5214 213.342 74.3125C213.363 74.1036 213.388 73.8911 213.415 73.675ZM216.238 78.219C216.103 78.1325 216.012 78.0515 215.965 77.9758C215.918 77.8966 215.895 77.7885 215.895 77.6516C215.895 77.5003 215.912 77.2878 215.945 77.0141C215.977 76.7367 216.02 76.4305 216.074 76.0955C216.126 75.7569 216.186 75.4039 216.255 75.0365C216.323 74.6655 216.391 74.3125 216.462 73.9775C216.533 73.6389 216.601 73.3292 216.669 73.0482C216.736 72.7672 216.796 72.5493 216.848 72.3944L216.822 72.0756C216.856 72.0756 216.902 72.0937 216.961 72.1297C217.02 72.1657 217.079 72.2089 217.138 72.2593C217.198 72.3098 217.251 72.3602 217.296 72.4106C217.343 72.4647 217.369 72.5097 217.374 72.5457C217.363 72.6682 217.353 72.8519 217.344 73.0968C217.337 73.3382 217.334 73.5975 217.334 73.8749C217.334 74.426 217.344 74.9645 217.364 75.4904C217.385 76.0199 217.431 76.5566 217.503 77.1005C217.542 76.6971 217.583 76.2955 217.626 75.8956C217.67 75.4922 217.716 75.1086 217.763 74.7448C217.81 74.3774 217.857 74.037 217.904 73.7236C217.951 73.4138 217.995 73.1401 218.037 72.9023C218.081 72.6682 218.122 72.4845 218.161 72.3512C218.198 72.2179 218.231 72.1459 218.262 72.1351C218.289 72.1459 218.317 72.1675 218.347 72.1999C218.378 72.2323 218.407 72.272 218.436 72.3188C218.464 72.3656 218.49 72.416 218.514 72.4701C218.537 72.5241 218.556 72.5799 218.569 72.6376C218.494 72.7024 218.419 72.8555 218.345 73.0968C218.271 73.3382 218.2 73.6317 218.133 73.9775C218.066 74.3233 218.004 74.6979 217.947 75.1014C217.889 75.5048 217.839 75.9028 217.795 76.2955C217.752 76.6845 217.717 77.0465 217.692 77.3815C217.669 77.7129 217.655 77.9794 217.652 78.1811C217.652 78.1919 217.653 78.1991 217.657 78.2027C217.648 78.2099 217.64 78.2136 217.632 78.2136C217.625 78.2136 217.617 78.2136 217.609 78.2136C217.501 78.2136 217.406 78.1847 217.322 78.1271C217.239 78.0659 217.185 77.983 217.158 77.8786C217.109 77.4535 217.068 77.0447 217.034 76.6521C217.002 76.2594 216.975 75.8668 216.951 75.4742C216.929 75.0816 216.911 74.6835 216.898 74.2801C216.886 73.8803 216.876 73.4606 216.868 73.0212C216.824 73.1725 216.777 73.3706 216.727 73.6155C216.678 73.8605 216.63 74.1288 216.583 74.4206C216.536 74.7123 216.491 75.0203 216.447 75.3445C216.403 75.6687 216.365 75.9839 216.333 76.2901C216.3 76.5962 216.274 76.888 216.255 77.1654C216.237 77.4391 216.228 77.6768 216.228 77.8786C216.228 77.983 216.228 78.0587 216.228 78.1055C216.229 78.1523 216.233 78.1901 216.238 78.219ZM221.4 75.0365C221.576 74.6223 221.734 74.1828 221.874 73.7182C222.015 73.2535 222.145 72.7312 222.264 72.1513C222.325 72.1657 222.384 72.2017 222.441 72.2593C222.498 72.3134 222.542 72.3764 222.574 72.4485C222.445 72.7798 222.328 73.0824 222.224 73.3562C222.12 73.6263 222.024 73.8821 221.937 74.1234C221.849 74.3611 221.769 74.5899 221.695 74.8096C221.621 75.0293 221.548 75.2509 221.478 75.4742C221.443 75.7299 221.41 75.9893 221.38 76.2522C221.348 76.5152 221.32 76.7655 221.296 77.0033C221.273 77.2446 221.255 77.4661 221.243 77.6678C221.23 77.8732 221.223 78.0497 221.223 78.1973C221.198 78.1973 221.157 78.1865 221.1 78.1649C221.043 78.1397 220.985 78.1127 220.926 78.0839C220.867 78.0515 220.814 78.0208 220.767 77.992C220.718 77.9632 220.689 77.938 220.679 77.9164C220.718 77.7795 220.754 77.612 220.79 77.4139C220.827 77.2158 220.863 77.0069 220.898 76.7871C220.933 76.5674 220.968 76.3459 221.002 76.1226C221.033 75.8956 221.064 75.6867 221.092 75.4958C221.033 75.1032 220.976 74.734 220.921 74.3882C220.865 74.0424 220.812 73.729 220.762 73.448C220.71 73.1707 220.66 72.9311 220.613 72.7294C220.566 72.5277 220.522 72.3728 220.48 72.2648C220.503 72.2467 220.539 72.2269 220.586 72.2053C220.634 72.1837 220.687 72.1639 220.744 72.1459C220.803 72.1243 220.862 72.1081 220.921 72.0973C220.981 72.0828 221.035 72.0738 221.082 72.0702C221.082 72.1963 221.087 72.3494 221.097 72.5295C221.109 72.7132 221.123 72.9077 221.14 73.113C221.159 73.3184 221.18 73.5273 221.203 73.7398C221.227 73.9523 221.25 74.1468 221.274 74.3233C221.297 74.4998 221.32 74.6529 221.342 74.7826C221.364 74.9087 221.383 74.9933 221.4 75.0365ZM224.724 73.059C224.63 73.059 224.558 73.0032 224.508 72.8915C224.457 72.7762 224.432 72.6376 224.432 72.4755C224.432 72.4358 224.434 72.389 224.44 72.335C224.446 72.2774 224.454 72.2287 224.462 72.1891C224.492 72.2215 224.538 72.2431 224.598 72.2539C224.659 72.2684 224.729 72.2756 224.808 72.2756C224.929 72.2756 225.065 72.263 225.216 72.2377C225.367 72.2161 225.512 72.1927 225.652 72.1675C225.791 72.1423 225.914 72.1189 226.02 72.0973C226.126 72.072 226.194 72.0594 226.224 72.0594C226.311 72.0594 226.374 72.1297 226.413 72.2702C226.452 72.407 226.48 72.5925 226.499 72.8267C226.438 72.8159 226.378 72.8069 226.317 72.7997C226.257 72.7925 226.206 72.7889 226.164 72.7889C226.088 72.7889 226.012 72.7943 225.937 72.8051C225.859 72.8123 225.782 72.8267 225.705 72.8483C225.671 72.996 225.635 73.1689 225.596 73.367C225.556 73.5651 225.517 73.7722 225.478 73.9883C225.439 74.2081 225.402 74.4242 225.367 74.6367C225.332 74.8528 225.301 75.0455 225.274 75.2148C225.222 75.5498 225.176 75.8578 225.138 76.1388C225.099 76.4197 225.065 76.6827 225.037 76.9276C225.007 77.1726 224.981 77.4067 224.961 77.63C224.939 77.8497 224.92 78.0659 224.903 78.2784C224.745 78.228 224.613 78.0172 224.508 77.6462C224.528 77.4877 224.551 77.3166 224.578 77.1329C224.605 76.9492 224.636 76.7403 224.671 76.5062C224.708 76.272 224.752 76.0055 224.803 75.7065C224.851 75.4111 224.908 75.0744 224.971 74.6961C224.995 74.5521 225.019 74.4044 225.044 74.2531C225.071 74.0982 225.097 73.9451 225.12 73.7938C225.145 73.6425 225.168 73.4967 225.188 73.3562C225.208 73.2157 225.225 73.086 225.239 72.9672C225.139 72.9924 225.046 73.014 224.959 73.032C224.87 73.05 224.792 73.059 224.724 73.059ZM227.971 77.214C227.971 77.0303 227.984 76.7943 228.011 76.5062C228.038 76.2144 228.073 75.901 228.117 75.566C228.161 75.231 228.21 74.8889 228.266 74.5395C228.323 74.1901 228.381 73.8605 228.44 73.5507C228.498 73.2445 228.556 72.9744 228.614 72.7402C228.669 72.5097 228.719 72.344 228.765 72.2431C228.788 72.2467 228.819 72.2666 228.858 72.3026C228.897 72.335 228.936 72.3728 228.977 72.416C229.017 72.4629 229.053 72.5133 229.085 72.5673C229.119 72.6178 229.14 72.6664 229.148 72.7132C229.081 72.8429 229.014 73.041 228.946 73.3075C228.879 73.5705 228.814 73.8713 228.752 74.2099C228.69 74.5485 228.632 74.9051 228.578 75.2797C228.523 75.6543 228.476 76.0181 228.437 76.3711C228.397 76.7241 228.365 77.0519 228.341 77.3545C228.32 77.657 228.309 77.902 228.309 78.0893C228.309 78.1757 228.312 78.2298 228.319 78.2514C228.268 78.2442 228.231 78.2244 228.208 78.1919C228.184 78.1595 228.166 78.1253 228.152 78.0893C228.139 78.0497 228.127 78.0118 228.117 77.9758C228.107 77.9362 228.091 77.9056 228.069 77.884C228.052 77.8696 228.038 77.8353 228.026 77.7813C228.015 77.7237 228.004 77.6624 227.996 77.5976C227.988 77.5292 227.982 77.4589 227.978 77.3869C227.973 77.3148 227.971 77.2572 227.971 77.214ZM232.198 78.2027C232.193 78.2099 232.188 78.2136 232.183 78.2136C232.179 78.2136 232.17 78.2136 232.155 78.2136C232.123 78.2136 232.085 78.2009 232.042 78.1757C231.998 78.1541 231.955 78.1271 231.913 78.0947C231.873 78.0623 231.837 78.0262 231.807 77.9866C231.779 77.9434 231.761 77.9074 231.754 77.8786C231.751 77.8065 231.749 77.7327 231.749 77.657C231.749 77.5814 231.749 77.5093 231.749 77.4409C231.749 76.8754 231.768 76.2846 231.807 75.6687C231.846 75.0527 231.91 74.3882 232.001 73.675C232.01 73.6029 232.019 73.5129 232.029 73.4048C232.041 73.2967 232.052 73.1797 232.064 73.0536C232.007 73.1473 231.94 73.3003 231.863 73.5129C231.785 73.7218 231.704 73.9685 231.618 74.2531C231.532 74.5376 231.446 74.8492 231.358 75.1878C231.273 75.53 231.195 75.8758 231.124 76.2252C231.053 76.5746 230.993 76.9222 230.943 77.268C230.892 77.6102 230.861 77.9272 230.849 78.219C230.737 78.1469 230.659 78.0767 230.615 78.0082C230.571 77.9362 230.549 77.8497 230.549 77.7489C230.549 77.6588 230.563 77.531 230.59 77.3653C230.615 77.1996 230.651 77.0033 230.698 76.7763C230.745 76.5494 230.803 76.2955 230.872 76.0145C230.939 75.7335 231.014 75.4328 231.096 75.1122C231.19 74.7412 231.283 74.3954 231.374 74.0748C231.464 73.7506 231.553 73.457 231.641 73.1941C231.728 72.9347 231.813 72.7078 231.895 72.5133C231.979 72.3224 232.063 72.1765 232.145 72.0756C232.178 72.0756 232.222 72.0937 232.276 72.1297C232.331 72.1657 232.386 72.2089 232.44 72.2593C232.492 72.3098 232.539 72.3602 232.581 72.4106C232.621 72.4647 232.644 72.5097 232.649 72.5457C232.617 72.6862 232.578 72.8987 232.533 73.1833C232.488 73.4642 232.442 73.783 232.397 74.1396C232.352 74.4998 232.308 74.8798 232.266 75.2797C232.226 75.6795 232.194 76.0649 232.17 76.4359C232.224 76.1586 232.287 75.8686 232.359 75.566C232.43 75.2671 232.505 74.9699 232.586 74.6745C232.667 74.3792 232.748 74.0928 232.83 73.8154C232.914 73.5381 232.997 73.2859 233.077 73.059C233.156 72.8285 233.23 72.6268 233.299 72.4539C233.37 72.2846 233.432 72.1585 233.486 72.0756C233.519 72.0756 233.563 72.0937 233.617 72.1297C233.672 72.1657 233.727 72.2089 233.781 72.2593C233.833 72.3098 233.88 72.3602 233.922 72.4106C233.962 72.4647 233.985 72.5097 233.99 72.5457C233.914 72.8339 233.849 73.1851 233.793 73.5993C233.736 74.0099 233.688 74.4422 233.65 74.8961C233.611 75.3499 233.582 75.8002 233.561 76.2468C233.541 76.6935 233.531 77.0933 233.531 77.4463C233.531 77.5616 233.531 77.6822 233.531 77.8083C233.531 77.9344 233.534 78.0659 233.539 78.2027C233.505 78.2027 233.466 78.1937 233.42 78.1757C233.375 78.1577 233.33 78.1343 233.287 78.1055C233.243 78.0767 233.204 78.0425 233.168 78.0028C233.133 77.9668 233.109 77.9254 233.095 77.8786C233.092 77.8065 233.09 77.7327 233.09 77.657C233.09 77.5814 233.09 77.5093 233.09 77.4409C233.09 76.8754 233.109 76.2846 233.148 75.6687C233.187 75.0527 233.251 74.3882 233.342 73.675C233.351 73.6029 233.361 73.5057 233.372 73.3832C233.384 73.2643 233.396 73.1383 233.408 73.005C233.342 73.077 233.267 73.2121 233.183 73.4102C233.101 73.6119 233.016 73.8551 232.929 74.1396C232.843 74.4242 232.759 74.7394 232.677 75.0852C232.593 75.4346 232.517 75.7894 232.45 76.1496C232.383 76.5098 232.326 76.8682 232.281 77.2248C232.236 77.5814 232.208 77.9074 232.198 78.2027ZM237.254 74.4206C237.331 74.4206 237.392 74.4656 237.436 74.5557C237.479 74.6493 237.501 74.7754 237.501 74.9339C237.501 74.9771 237.499 75.0185 237.496 75.0581C237.493 75.1014 237.488 75.1392 237.483 75.1716C237.453 75.1608 237.42 75.1518 237.383 75.1446C237.344 75.1374 237.299 75.1338 237.246 75.1338C237.146 75.1338 237.044 75.1518 236.941 75.1878C236.837 75.2274 236.738 75.2599 236.644 75.2851C236.59 75.5516 236.541 75.8092 236.495 76.0577C236.452 76.3099 236.414 76.5386 236.382 76.7439C236.35 76.9492 236.325 77.1275 236.306 77.2788C236.29 77.4301 236.279 77.5436 236.276 77.6192C236.468 77.5364 236.66 77.4643 236.853 77.4031C237.048 77.3419 237.252 77.2968 237.466 77.268C237.493 77.3509 237.514 77.4427 237.531 77.5436C237.55 77.6444 237.559 77.7543 237.559 77.8732C237.559 77.902 237.559 77.9344 237.559 77.9704C237.559 78.0064 237.557 78.0407 237.551 78.0731C237.486 78.0695 237.416 78.0659 237.342 78.0623C237.27 78.0623 237.175 78.0623 237.057 78.0623C236.98 78.0623 236.906 78.0659 236.836 78.0731C236.767 78.0803 236.697 78.0911 236.626 78.1055C236.556 78.1199 236.481 78.1397 236.402 78.1649C236.323 78.1901 236.234 78.2208 236.135 78.2568C236.027 78.1667 235.923 77.9452 235.822 77.5922C235.863 77.4085 235.918 77.1311 235.989 76.7601C236.061 76.3927 236.153 75.8974 236.263 75.2743C236.158 75.2058 236.088 75.0798 236.054 74.8961C236.066 74.8708 236.1 74.8402 236.158 74.8042C236.213 74.7646 236.282 74.725 236.364 74.6853C236.4 74.4908 236.43 74.3197 236.455 74.172C236.48 74.0244 236.502 73.8875 236.521 73.7614C236.539 73.6317 236.556 73.5057 236.571 73.3832C236.586 73.2571 236.601 73.122 236.616 72.978C236.534 72.9672 236.469 72.9185 236.422 72.8321C236.375 72.742 236.352 72.6268 236.352 72.4863C236.352 72.4467 236.354 72.398 236.359 72.3404C236.366 72.2864 236.373 72.2395 236.379 72.1999C236.426 72.2143 236.472 72.2233 236.516 72.2269C236.559 72.2341 236.616 72.2377 236.687 72.2377C236.835 72.2377 236.973 72.2287 237.103 72.2107C237.232 72.1927 237.349 72.1729 237.453 72.1513C237.559 72.1333 237.649 72.1153 237.723 72.0973C237.798 72.0792 237.856 72.0702 237.897 72.0702C237.951 72.0702 237.998 72.1297 238.04 72.2485C238.084 72.371 238.116 72.5439 238.136 72.7672C238.064 72.7492 238.004 72.7384 237.957 72.7348C237.912 72.7312 237.872 72.7294 237.836 72.7294C237.707 72.7294 237.588 72.742 237.481 72.7672C237.375 72.7961 237.273 72.8249 237.173 72.8537C237.16 72.9005 237.144 72.9599 237.125 73.032C237.109 73.1004 237.086 73.1977 237.057 73.3238C237.029 73.4498 236.994 73.6083 236.952 73.7992C236.911 73.9937 236.862 74.2333 236.803 74.5178C236.892 74.489 236.976 74.4656 237.055 74.4476C237.134 74.4296 237.2 74.4206 237.254 74.4206Z" fill="#ED6C00"/>
<defs>
<linearGradient id="paint0_linear" x1="20.8838" y1="64.2805" x2="48.9572" y2="77.3714" gradientUnits="userSpaceOnUse">
<stop stop-color="#EB4C00"/>
<stop offset="1" stop-color="#F2A900"/>
</linearGradient>
<linearGradient id="paint1_linear" x1="-5.32991" y1="5.44185" x2="70.7916" y2="40.9379" gradientUnits="userSpaceOnUse">
<stop stop-color="#EB4C00"/>
<stop offset="1" stop-color="#F2A900"/>
</linearGradient>
</defs>
</svg>
