<svg width="245" height="91" viewBox="0 0 245 91" fill="none" xmlns="http://www.w3.org/2000/svg">
<path d="M57.3263 43.0333C54.2384 43.0333 51.2983 43.8034 48.624 45.1946C53.1131 50.382 55.8392 57.136 55.8392 64.52C55.8392 69.9225 54.3763 74.9886 51.8344 79.3519H72.1748C76.2788 79.3519 79.5996 75.292 79.5996 70.2722C79.6007 55.2362 69.6241 43.0333 57.3263 43.0333V43.0333Z" fill="url(#paint0_linear)"/>
<path d="M105.504 17.9941C106.92 19.2527 108.493 20.2753 110.223 21.0619C111.915 21.8879 113.429 22.5959 114.766 23.1858C116.143 23.7758 117.008 24.1691 117.362 24.3658C117.755 24.5624 118.68 24.9951 120.135 25.6637C121.59 26.3324 122.514 26.765 122.908 26.9616C123.301 27.1583 124.166 27.6303 125.504 28.3776C126.802 29.1642 127.706 29.7935 128.217 30.2655C128.689 30.7768 129.397 31.5241 130.341 32.5074C131.285 33.4513 131.954 34.356 132.347 35.2212C133.37 37.6991 133.881 40.2163 133.881 42.7729C133.881 48.4366 131.875 52.7237 127.863 55.6342C123.812 58.5447 118.267 60 111.226 60C104.225 60 97.834 58.0728 92.0522 54.2183C92.2096 50.2852 93.7238 46.5683 96.595 43.0678C99.2302 46.0177 102.2 48.4169 105.504 50.2655C108.807 52.1534 111.816 53.0973 114.53 53.0973C117.244 53.0973 119.663 52.4877 121.787 51.2684C122.809 49.8918 123.321 47.7483 123.321 44.8378C123.321 42.6352 122.691 40.8653 121.433 39.528C120.646 38.8201 119.997 38.2301 119.486 37.7581C118.975 37.2861 118.05 36.7158 116.713 36.0472C115.415 35.3392 112.741 34.1003 108.689 32.3304C104.638 30.5211 101.806 29.1052 100.194 28.0826C95.6314 24.9754 93.3502 20.826 93.3502 15.6342C93.3502 10.4425 95.3167 6.56834 99.2499 4.0118C103.183 1.49459 108.08 0.235988 113.94 0.235988C119.761 0.235988 125.897 1.61259 132.347 4.36578C131.679 8.14159 130.263 11.8191 128.099 15.3982C125.307 12.8417 122.337 10.7375 119.191 9.08555C116.044 7.47296 113.213 6.66667 110.695 6.66667C108.178 6.66667 106.172 7.07965 104.678 7.9056C103.773 8.96755 103.321 10.5998 103.321 12.8024C103.321 15.0049 104.048 16.7355 105.504 17.9941ZM159.368 25.3097V49.4395C159.368 51.4454 159.879 52.4484 160.902 52.4484C162.396 52.4484 165.189 51.5831 169.279 49.8525L171.757 53.5693C169.555 55.0246 166.939 56.4405 163.911 57.8171C160.882 59.233 158.227 59.941 155.946 59.941C151.108 59.941 148.689 57.1681 148.689 51.6224V25.3097C147.863 25.3097 145.13 25.5064 140.489 25.8997L143.498 18.4661C144.481 18.6234 146.231 18.7611 148.748 18.8791C148.67 16.3618 148.512 14.0216 148.276 11.8584L159.368 9.08555V18.8201C161.57 18.7414 165.877 18.3874 172.288 17.7581L169.102 26.2537C166.271 25.7424 163.026 25.4277 159.368 25.3097ZM206.919 39.528C204.835 39.4887 201.944 39.469 198.247 39.469C194.55 39.469 191.58 39.4887 189.338 39.528C187.529 45.821 186.448 49.6952 186.094 51.1504C185.779 52.6057 185.622 54.6313 185.622 57.2271V59.056H171.757V57.2271C174.589 55.2212 178.129 47.8859 182.377 35.2212C186.625 22.5565 189.417 14.179 190.754 10.0885C192.052 5.99803 192.819 3.04818 193.055 1.23894L205.74 0C205.74 2.08456 207.568 8.0826 211.226 17.9941C217.991 36.4798 222.691 47.8466 225.327 52.0944C226.585 54.2576 228.021 55.9685 229.633 57.2271V59.056H212.111V57.2271C212.111 54.9066 210.381 49.0069 206.919 39.528ZM197.775 11.6224C195.926 16.8535 193.625 24.1495 190.872 33.5103H205.209C204.855 32.5664 204.343 30.9931 203.675 28.7906C202.259 23.9135 200.292 18.1908 197.775 11.6224Z" fill="#0C2E60"/>
<path d="M26.2658 38.2541C11.7616 38.2541 0 50.0124 0 64.52C0 79.0253 11.7605 90.7858 26.2658 90.7858C40.7712 90.7858 52.5306 79.0264 52.5306 64.52C52.5306 50.0124 40.7712 38.2541 26.2658 38.2541V38.2541ZM3.63185 64.52C3.63185 59.7198 5.12784 55.2726 7.67742 51.6099L7.96867 51.8305L7.79326 52.5377L8.44196 52.7153L8.32281 51.771L8.85347 51.7114V50.4725H9.38412L9.57609 50.9645L9.79784 51.5338L10.3881 52.1847C10.3881 52.1847 9.67979 52.3601 9.44591 52.3601C9.20761 52.3601 9.32676 53.3045 9.32676 53.3045L10.1531 53.599L10.6859 52.6127L11.9227 51.2381L12.5118 49.4089L13.6338 48.3465L12.984 47.8765L13.6945 47.4021L13.754 46.7523L11.6888 47.3437L11.6215 47.2653C12.7503 46.3067 13.97 45.4606 15.2633 44.7389L16.2319 45.1604L15.5821 46.3993H14.2836L14.0475 47.5202H15.111L16.6456 46.5769L17.7069 45.5156L17.8835 44.5128L16.35 44.3958L17.4113 43.6865L18.413 43.8641L18.2387 44.9254L19.5946 44.098L19.8318 44.7478L20.1274 45.6921L19.3596 46.6354L18.5344 47.4021L17.2932 47.2256L17.8846 48.4646L16.7637 48.288L14.8738 50.2353L15.3471 50.8851L16.8817 50.7659L18.1802 50.3522L19.834 50.1779L20.5996 50.0014C20.5996 50.0014 20.5996 49.5281 20.54 49.2346C20.4805 48.939 21.1303 49.2931 21.1303 49.2931L21.8397 48.8805L22.3692 47.2278L24.3175 46.3408L24.0219 45.8687L24.4951 45.2795L22.9605 45.0412L23.3743 44.451L21.4248 43.8012H20.422L20.775 42.9164L21.1887 42.5027L21.1557 42.4696C22.8314 42.0819 24.5458 41.8857 26.2658 41.8849C29.0052 41.8849 31.6298 42.3714 34.0613 43.2639L34.0006 43.4018L33.0176 43.3367V43.927L33.4115 44.1884V44.7136L33.7403 45.1714L32.5598 44.451L31.7732 44.8448L32.1659 45.7627L32.3634 46.8119L32.8886 47.4021L34.1319 47.5996L33.8727 48.1237L33.609 48.9125L34.7243 49.6329L34.6582 49.9606L32.5609 48.191L32.4318 48.8474L33.3486 49.7642L33.8738 49.9617L32.6922 50.2231L32.562 50.8134L31.7103 49.9606L31.1841 48.8474L30.9888 47.7309L30.4625 48.3862L30.8553 49.9606L31.5106 50.4217L31.2503 51.9276L30.8564 51.7312L30.9226 52.519L30.3313 52.4517L29.7432 51.5989H29.0228L27.9736 51.4676L26.9234 51.5349L25.9393 52.3226L25.284 53.4368L23.906 54.4871L23.7747 55.0752V55.7989L24.1035 56.5193L24.7599 55.993L24.9552 56.3869L25.2851 56.976L25.3502 57.1084L25.6778 57.5012L26.2691 57.1095L26.203 55.6654L26.9234 54.7464L26.9995 54.4121C27.0558 54.1727 27.1186 53.8947 27.1186 53.8947L27.3812 53.171L27.8413 53.2383L27.71 53.8285L27.4463 55.1391L28.6941 55.009L29.1541 55.1391L28.1689 55.4039L28.3002 56.0592L27.1826 56.7786L27.2499 57.5012L26.2669 57.7637L26.0706 58.2878L25.2829 58.0263H24.7577V56.912L24.1664 57.1106V57.6998L22.527 59.0115L21.608 59.3392L21.2163 59.7981L19.9057 59.4693L19.8384 60.0607L20.6912 60.3883L20.625 61.5677L18.2619 61.5015L17.9353 62.0266L17.6065 62.9445L17.2138 63.7345L17.804 64.3898L18.4604 65.1753L20.5599 64.5189L20.6912 63.7322L21.1512 63.3384L21.9378 63.0758L21.8717 62.5518L22.5932 62.3543L23.6423 62.1568L24.2988 62.9434L25.4792 63.7973L26.0033 64.6479V65.0418L26.6586 64.6479L26.332 64.0599L26.4633 63.4013L25.872 63.1409L25.3479 62.4205L25.6756 61.3691L26.2647 62.2219L27.1153 62.8794L27.443 64.0599L28.2969 64.7141L28.4944 65.4356L28.8882 64.5839L28.7569 64.1901L28.9522 63.8624L30.1967 62.8133L30.4603 61.5015L30.9866 61.1088L31.6408 61.1749L32.6271 60.1898L32.6911 60.9786L34.133 61.4364V62.1579H32.9548L31.1841 63.0758L29.7421 63.8635L30.1338 64.7152L31.4455 64.9767L32.167 65.3055L32.9537 64.7814L33.0187 67.0111L30.7891 67.47L28.4282 66.8136L27.5103 67.5351L27.903 67.9278L27.1804 67.7966L24.8879 66.9449L24.2315 67.0111L23.7052 66.1583V65.1091H22.5248L21.8694 64.9778L19.7711 65.4378L18.1317 65.3066L17.4102 65.7004L16.9512 65.7666L16.6898 66.6172L15.1816 67.6664L13.0822 69.2418L12.9509 71.2729L12.3618 72.5857L12.4268 73.3712L12.952 74.2913L14.4612 76.8475L16.0355 77.569L18.6579 77.7665L18.5266 76.65L17.9375 76.3235L18.199 75.7321L18.6579 76.2573L19.118 77.6341L21.0839 77.7665L21.8717 78.5531L22.987 79.0121L23.1172 80.914L24.2988 82.4222L25.413 84.3892L24.429 85.5697L25.434 87.1319C13.3194 86.695 3.63185 76.7416 3.63185 64.52V64.52ZM34.0216 85.7903L36.7576 83.8001L35.7735 81.3741L38.9222 77.2425L39.904 74.619L40.363 73.1748L38.7247 73.9637L37.7406 74.1611L35.3157 72.6519L34.5931 71.0114L33.6763 70.0935L32.4969 67.47L33.4799 68.2577L35.3179 70.291L35.9732 71.2078L37.2839 71.8653L37.6766 73.5709L39.252 72.5206L41.154 70.1586L42.0719 67.7337L41.3504 67.1446L40.9565 66.4219L40.4976 67.2747L39.5808 68.3239L38.2679 66.8787L37.8763 65.7655L38.7942 65.963L39.7121 66.4208L41.0238 65.963L41.8115 66.2245L43.9077 64.7814L45.0893 65.4367L45.8097 65.044L47.3785 67.513L48.154 66.7717L48.1695 65.8306L48.2357 63.0096L48.7178 61.6736C48.8358 62.6058 48.9031 63.5535 48.9031 64.5177C48.9009 74.2957 42.7041 82.6241 34.0216 85.7903V85.7903ZM83.4741 14.069L63.6931 0.977982C63.5659 0.893079 63.4229 0.834586 63.2726 0.805971C63.1223 0.777355 62.9678 0.779199 62.8183 0.811393L40.9091 5.43726C40.4678 5.52993 40.1203 5.87414 40.021 6.31764L39.8897 6.91008C39.786 7.37675 39.9802 7.85886 40.3806 8.12364L49.5529 14.1947L49.1789 15.886C45.8648 18.3705 43.7102 22.3179 43.7102 26.7761C43.7102 34.2957 49.81 40.3966 57.3263 40.3966C64.8438 40.3966 70.9447 34.2968 70.9447 26.7761C70.9447 25.1609 70.6479 23.6175 70.1316 22.18C70.3357 21.9196 70.4758 21.6416 70.5409 21.347L70.9976 19.2774L76.9154 18.0274C77.6513 19.0677 78.1323 20.3309 78.2525 21.9406C77.9472 22.0962 77.6907 22.333 77.5112 22.625C77.3318 22.9169 77.2363 23.2527 77.2353 23.5954C77.2353 24.2033 77.5299 24.7362 77.9789 25.0782C77.4703 27.673 76.7918 32.4401 78.1444 34.5539C78.5427 35.175 79.1075 35.5732 79.7761 35.7001C79.9875 35.7264 80.2009 35.6713 80.3731 35.5459C80.5453 35.4205 80.6633 35.2343 80.7032 35.0251C80.743 34.8158 80.7018 34.5993 80.5878 34.4193C80.4738 34.2394 80.2956 34.1096 80.0894 34.0563C79.9427 34.0287 79.7496 33.957 79.5543 33.6514C79.0766 32.9056 78.9652 31.4339 79.0535 29.7724C79.4661 31.061 80.1004 32.2205 81.079 32.8648C81.2643 32.9726 81.4839 33.0052 81.6926 32.9561C81.9012 32.907 82.0832 32.7798 82.201 32.6007C82.3188 32.4216 82.3635 32.2042 82.3259 31.9931C82.2884 31.7821 82.1714 31.5934 81.9991 31.4659C80.6841 30.5999 80.1291 27.63 80.01 25.2216C80.5837 24.9028 80.9753 24.2982 80.9753 23.5954C80.9753 22.8596 80.5462 22.2296 79.9283 21.9251C79.818 20.2096 79.3723 18.814 78.6839 17.6545L82.9435 16.7543C83.3859 16.6616 83.7334 16.3174 83.8316 15.875L83.9629 15.2825C84.014 15.0546 83.9946 14.8164 83.9073 14.5997C83.82 14.383 83.669 14.1979 83.4741 14.069V14.069ZM60.7971 9.5402C60.8159 9.38905 60.9692 9.26549 61.255 9.20481C61.8242 9.08566 62.7035 9.26439 63.2187 9.60418C63.4758 9.77408 63.5938 9.95281 63.574 10.1051L63.4901 10.5199C63.4703 10.671 63.318 10.7935 63.0334 10.8541C62.4619 10.9744 61.5848 10.7957 61.0696 10.4559C60.8126 10.2849 60.6945 10.1062 60.7133 9.95501L60.7971 9.5402V9.5402Z" fill="url(#paint1_linear)"/>
<path d="M85.5415 74.4206C85.6218 74.4206 85.6846 74.4656 85.73 74.5557C85.7753 74.6493 85.798 74.7754 85.798 74.9339C85.798 74.9771 85.7954 75.0185 85.7902 75.0581C85.7867 75.1014 85.7832 75.1392 85.7797 75.1716C85.7465 75.1608 85.7108 75.1518 85.6724 75.1446C85.634 75.1374 85.5877 75.1338 85.5337 75.1338C85.429 75.1338 85.3225 75.1518 85.2143 75.1878C85.1062 75.2274 85.0032 75.2599 84.9055 75.2851C84.8497 75.5516 84.7991 75.8092 84.7537 76.0577C84.7066 76.3099 84.6664 76.5386 84.6333 76.7439C84.6001 76.9492 84.5748 77.1275 84.5574 77.2788C84.5382 77.4301 84.5277 77.5436 84.526 77.6192C84.7232 77.5364 84.9229 77.4643 85.1254 77.4031C85.326 77.3419 85.538 77.2968 85.7614 77.268C85.7875 77.3509 85.8093 77.4427 85.8268 77.5436C85.846 77.6444 85.8556 77.7543 85.8556 77.8732C85.8556 77.902 85.8556 77.9344 85.8556 77.9704C85.8556 78.0064 85.853 78.0407 85.8477 78.0731C85.7797 78.0695 85.7081 78.0659 85.6331 78.0623C85.5563 78.0623 85.4569 78.0623 85.3347 78.0623C85.2545 78.0623 85.1786 78.0659 85.107 78.0731C85.0337 78.0803 84.9605 78.0911 84.8872 78.1055C84.8139 78.1199 84.7362 78.1397 84.6542 78.1649C84.574 78.1901 84.4824 78.2208 84.3794 78.2568C84.266 78.1667 84.1569 77.9452 84.0522 77.5922C84.0941 77.4085 84.1526 77.1311 84.2276 76.7601C84.3009 76.3927 84.3951 75.8974 84.5103 75.2743C84.4004 75.2058 84.3288 75.0798 84.2957 74.8961C84.3079 74.8708 84.3428 74.8402 84.4004 74.8042C84.4597 74.7646 84.5321 74.725 84.6176 74.6853C84.6542 74.4908 84.6856 74.3197 84.7118 74.172C84.7362 74.0244 84.7581 73.8875 84.7772 73.7614C84.7982 73.6317 84.8165 73.5057 84.8322 73.3832C84.8479 73.2571 84.8627 73.122 84.8767 72.978C84.7912 72.9672 84.724 72.9185 84.6752 72.8321C84.6263 72.742 84.6019 72.6268 84.6019 72.4863C84.6019 72.4467 84.6054 72.398 84.6124 72.3404C84.6176 72.2864 84.6237 72.2395 84.6307 72.1999C84.6795 72.2143 84.7266 72.2233 84.772 72.2269C84.8174 72.2341 84.8767 72.2377 84.95 72.2377C85.1035 72.2377 85.2475 72.2287 85.3818 72.2107C85.5162 72.1927 85.6383 72.1729 85.7483 72.1513C85.8565 72.1333 85.9498 72.1153 86.0283 72.0973C86.1069 72.0792 86.1662 72.0702 86.2063 72.0702C86.2639 72.0702 86.3145 72.1297 86.3581 72.2485C86.4017 72.371 86.4349 72.5439 86.4576 72.7672C86.3808 72.7492 86.3189 72.7384 86.2717 72.7348C86.2246 72.7312 86.1828 72.7294 86.1461 72.7294C86.0118 72.7294 85.8887 72.742 85.7771 72.7672C85.6654 72.7961 85.5581 72.8249 85.4551 72.8537C85.4412 72.9005 85.4255 72.9599 85.408 73.032C85.3888 73.1004 85.3644 73.1977 85.3347 73.3238C85.3051 73.4498 85.2693 73.6083 85.2274 73.7992C85.1838 73.9937 85.1315 74.2333 85.0704 74.5178C85.1646 74.489 85.2527 74.4656 85.3347 74.4476C85.415 74.4296 85.4839 74.4206 85.5415 74.4206ZM88.3368 77.2518C88.3735 77.0861 88.4171 76.8718 88.4677 76.6088C88.52 76.3459 88.5741 76.0613 88.63 75.7551C88.6858 75.4526 88.7434 75.141 88.8027 74.8204C88.8603 74.4998 88.9152 74.1955 88.9676 73.9073C89.0182 73.6191 89.0627 73.3616 89.1011 73.1346C89.1377 72.9077 89.1648 72.7348 89.1822 72.616C89.0287 72.7456 88.8969 72.9437 88.787 73.2103C88.6771 73.4768 88.5942 73.8118 88.5383 74.2153C88.4825 74.1756 88.431 74.1036 88.3839 73.9991C88.3368 73.8983 88.3063 73.7686 88.2923 73.6101C88.3167 73.3796 88.3621 73.1689 88.4284 72.978C88.4965 72.787 88.582 72.6232 88.6849 72.4863C88.7879 72.3494 88.9065 72.2449 89.0409 72.1729C89.1752 72.0973 89.3192 72.0594 89.4727 72.0594C89.6682 72.0594 89.8479 72.1189 90.0119 72.2377C90.1742 72.3566 90.3146 72.5223 90.4333 72.7348C90.5502 72.9473 90.6418 73.2013 90.7081 73.4967C90.7727 73.7956 90.805 74.127 90.805 74.4908C90.805 74.9843 90.7613 75.4562 90.6741 75.9064C90.5868 76.3531 90.4682 76.7475 90.3181 77.0897C90.1663 77.4355 89.9918 77.7093 89.7947 77.911C89.5975 78.1163 89.3899 78.219 89.1717 78.219C88.9711 78.219 88.7992 78.1379 88.6561 77.9758C88.513 77.8101 88.4066 77.5688 88.3368 77.2518ZM89.6298 72.4377C89.5076 72.4377 89.3916 72.4737 89.2817 72.5457C89.3899 72.625 89.4788 72.7096 89.5486 72.7997C89.6202 72.8861 89.669 72.9545 89.6952 73.005C89.676 73.0626 89.6472 73.1617 89.6088 73.3021C89.5722 73.4426 89.5286 73.6137 89.478 73.8154C89.4274 74.0172 89.3742 74.2387 89.3183 74.48C89.2625 74.7178 89.2075 74.9627 89.1534 75.2148C89.0138 75.856 88.9126 76.3603 88.8498 76.7277C88.7887 77.0951 88.7582 77.3509 88.7582 77.4949C88.7914 77.5202 88.8324 77.5364 88.8812 77.5436C88.9301 77.5544 88.9833 77.5598 89.0409 77.5598C89.238 77.5598 89.4248 77.4661 89.601 77.2788C89.779 77.0879 89.9343 76.834 90.0669 76.517C90.2012 76.2 90.3068 75.8308 90.3836 75.4093C90.4603 74.9879 90.4987 74.5449 90.4987 74.0802C90.4987 73.5615 90.4202 73.1581 90.2632 72.8699C90.1079 72.5817 89.8967 72.4377 89.6298 72.4377ZM94.1813 72.5511C94.0731 72.8501 93.9754 73.1779 93.8882 73.5345C93.7992 73.8947 93.7242 74.2621 93.6631 74.6367C93.6003 75.0113 93.5523 75.3823 93.5191 75.7497C93.486 76.1136 93.4694 76.4557 93.4694 76.7763C93.4694 77.169 93.4973 77.4535 93.5532 77.63C93.6107 77.8065 93.7076 77.8948 93.8437 77.8948C94.0025 77.8948 94.1421 77.7795 94.2625 77.549C94.3811 77.3184 94.4928 77.0015 94.5975 76.598C94.6673 76.3387 94.7266 76.0523 94.7754 75.7389C94.8243 75.4256 94.8636 75.1032 94.8932 74.7718C94.9246 74.444 94.9473 74.1126 94.9613 73.7776C94.9752 73.439 94.9822 73.1166 94.9822 72.8105C94.9822 72.6123 94.9813 72.4683 94.9796 72.3782C94.9779 72.2882 94.9744 72.2161 94.9691 72.1621C94.9761 72.1621 94.9944 72.1657 95.0241 72.1729C95.0538 72.1837 95.0869 72.1963 95.1236 72.2107C95.1619 72.2287 95.2003 72.2503 95.2387 72.2756C95.2754 72.3008 95.3076 72.3278 95.3356 72.3566C95.3233 72.7384 95.3007 73.1346 95.2675 73.5453C95.2344 73.9523 95.1907 74.3557 95.1366 74.7556C95.0825 75.1518 95.0206 75.5354 94.9508 75.9064C94.8793 76.2738 94.7999 76.6034 94.7126 76.8952C94.5835 77.3274 94.4378 77.666 94.2755 77.911C94.115 78.1559 93.9248 78.2784 93.705 78.2784C93.4799 78.2784 93.3054 78.1433 93.1815 77.8732C93.0559 77.603 92.993 77.1942 92.993 76.6467C92.993 76.3297 93.0105 75.9695 93.0454 75.566C93.0785 75.1662 93.1239 74.7592 93.1815 74.3449C93.2391 73.9271 93.3063 73.5201 93.383 73.1238C93.4581 72.7276 93.5375 72.3728 93.6212 72.0594C93.6613 72.0666 93.7102 72.0846 93.7678 72.1135C93.8236 72.1459 93.8786 72.1855 93.9327 72.2323C93.985 72.2792 94.0339 72.3314 94.0792 72.389C94.1246 72.4467 94.1586 72.5007 94.1813 72.5511ZM97.309 76.1604C97.309 75.8074 97.33 75.4616 97.3718 75.123C97.412 74.7808 97.4687 74.4566 97.542 74.1504C97.6153 73.8479 97.7025 73.5687 97.8037 73.313C97.9049 73.0572 98.0157 72.8375 98.1361 72.6538C98.2565 72.4665 98.3856 72.3206 98.5235 72.2161C98.6596 72.1117 98.8 72.0594 98.9449 72.0594C99.1124 72.0594 99.2432 72.1333 99.3375 72.281C99.4317 72.4286 99.4788 72.6322 99.4788 72.8915C99.4788 72.9924 99.4727 73.0968 99.4605 73.2049C99.4465 73.3093 99.4264 73.4138 99.4003 73.5183C99.3741 73.6227 99.3444 73.7218 99.3113 73.8154C99.2764 73.9127 99.238 73.9955 99.1961 74.064C99.1333 74.046 99.0783 73.9865 99.0312 73.8857C98.9859 73.7884 98.9571 73.675 98.9449 73.5453C99.0304 73.3976 99.0984 73.2445 99.149 73.086C99.1979 72.9275 99.2223 72.7834 99.2223 72.6538C99.2223 72.4304 99.1551 72.3188 99.0208 72.3188C98.9649 72.3188 98.9073 72.3422 98.848 72.389C98.7869 72.4395 98.7259 72.5061 98.6648 72.5889C98.6037 72.6754 98.5444 72.7798 98.4868 72.9023C98.431 73.0212 98.3786 73.1545 98.3298 73.3021C97.9895 74.3107 97.8194 75.3427 97.8194 76.3981C97.8194 76.7691 97.8473 77.0681 97.9032 77.295C97.959 77.522 98.034 77.6552 98.1282 77.6949C98.2329 77.6444 98.3656 77.5057 98.5261 77.2788C98.6884 77.0519 98.8646 76.7583 99.0548 76.3981C99.0792 76.4485 99.094 76.5008 99.0993 76.5548C99.0277 76.7457 98.9545 76.9294 98.8794 77.1059C98.8026 77.2824 98.7276 77.4445 98.6543 77.5922C98.5793 77.7363 98.5051 77.8642 98.4319 77.9758C98.3603 78.0875 98.294 78.1739 98.2329 78.2352C97.9311 78.2244 97.7016 78.0443 97.5446 77.6949C97.3875 77.3491 97.309 76.8376 97.309 76.1604ZM101.353 78.219C101.234 78.1469 101.153 78.0767 101.109 78.0082C101.064 77.9362 101.041 77.8479 101.041 77.7435C101.041 77.6606 101.052 77.5472 101.073 77.4031C101.095 77.2554 101.128 77.0825 101.17 76.8844C101.213 76.6863 101.265 76.4648 101.324 76.2198C101.383 75.9785 101.451 75.7191 101.528 75.4418C101.464 75.4382 101.407 75.4346 101.358 75.431C101.307 75.4274 101.266 75.4256 101.235 75.4256C101.249 75.3499 101.29 75.2851 101.358 75.231C101.428 75.177 101.519 75.1284 101.63 75.0852C101.726 74.7574 101.828 74.4458 101.936 74.1504C102.045 73.8515 102.154 73.5777 102.264 73.3292C102.374 73.0806 102.483 72.8609 102.593 72.67C102.703 72.4827 102.809 72.3332 102.91 72.2215C102.912 72.1855 102.914 72.1549 102.915 72.1297C102.915 72.1045 102.915 72.0864 102.915 72.0756C102.95 72.0756 102.996 72.0937 103.054 72.1297C103.112 72.1657 103.167 72.2089 103.222 72.2593C103.277 72.3098 103.326 72.3602 103.368 72.4106C103.412 72.4647 103.436 72.5097 103.441 72.5457C103.359 72.8375 103.28 73.2751 103.203 73.8587C103.125 74.4422 103.059 75.1392 103.007 75.9497C102.995 76.1514 102.985 76.3801 102.978 76.6358C102.969 76.8952 102.965 77.1834 102.965 77.5003C102.965 77.612 102.965 77.7255 102.965 77.8407C102.965 77.956 102.967 78.0767 102.97 78.2027C102.967 78.2099 102.962 78.2136 102.957 78.2136C102.952 78.2136 102.942 78.2136 102.928 78.2136C102.894 78.2136 102.853 78.2009 102.808 78.1757C102.763 78.1541 102.719 78.1271 102.677 78.0947C102.634 78.0623 102.597 78.0262 102.567 77.9866C102.536 77.9434 102.517 77.9074 102.51 77.8786C102.508 77.8137 102.507 77.7489 102.507 77.684C102.507 77.6228 102.507 77.5562 102.507 77.4841C102.507 77.1708 102.512 76.8538 102.523 76.5332C102.533 76.209 102.552 75.8758 102.58 75.5336C102.545 75.53 102.5 75.5228 102.444 75.512C102.388 75.5048 102.326 75.4994 102.256 75.4958C102.186 75.4922 102.111 75.485 102.031 75.4742C101.952 75.467 101.875 75.4616 101.798 75.458C101.74 75.6849 101.685 75.91 101.633 76.1334C101.582 76.3603 101.539 76.5872 101.502 76.8142C101.46 77.0555 101.427 77.2968 101.403 77.5382C101.376 77.7795 101.36 78.0064 101.353 78.219ZM102.766 73.675C102.777 73.6029 102.788 73.5057 102.8 73.3832C102.814 73.2571 102.827 73.1274 102.839 72.9942C102.778 73.0374 102.71 73.1202 102.635 73.2427C102.562 73.3616 102.485 73.5111 102.405 73.6912C102.326 73.8713 102.246 74.073 102.164 74.2963C102.082 74.5196 102.003 74.7574 101.926 75.0095C102.132 74.9771 102.366 74.9555 102.627 74.9447C102.647 74.7322 102.668 74.5214 102.69 74.3125C102.715 74.1036 102.74 73.8911 102.766 73.675ZM105.946 73.059C105.848 73.059 105.773 73.0032 105.721 72.8915C105.669 72.7762 105.643 72.6376 105.643 72.4755C105.643 72.4358 105.646 72.389 105.653 72.335C105.658 72.2774 105.666 72.2287 105.677 72.1891C105.708 72.2215 105.755 72.2431 105.818 72.2539C105.879 72.2684 105.951 72.2756 106.035 72.2756C106.159 72.2756 106.3 72.263 106.459 72.2377C106.616 72.2161 106.766 72.1927 106.909 72.1675C107.054 72.1423 107.182 72.1189 107.292 72.0973C107.401 72.072 107.472 72.0594 107.504 72.0594C107.594 72.0594 107.66 72.1297 107.7 72.2702C107.74 72.407 107.77 72.5925 107.789 72.8267C107.726 72.8159 107.663 72.8069 107.6 72.7997C107.539 72.7925 107.486 72.7889 107.441 72.7889C107.364 72.7889 107.285 72.7943 107.205 72.8051C107.127 72.8123 107.046 72.8267 106.964 72.8483C106.931 72.996 106.894 73.1689 106.852 73.367C106.81 73.5651 106.769 73.7722 106.729 73.9883C106.689 74.2081 106.65 74.4242 106.614 74.6367C106.577 74.8528 106.546 75.0455 106.519 75.2148C106.465 75.5498 106.418 75.8578 106.378 76.1388C106.338 76.4197 106.302 76.6827 106.271 76.9276C106.241 77.1726 106.215 77.4067 106.192 77.63C106.17 77.8497 106.15 78.0659 106.135 78.2784C105.971 78.228 105.834 78.0172 105.724 77.6462C105.743 77.4877 105.766 77.3166 105.794 77.1329C105.822 76.9492 105.855 76.7403 105.894 76.5062C105.932 76.272 105.977 76.0055 106.027 75.7065C106.078 75.4111 106.136 75.0744 106.203 74.6961C106.227 74.5521 106.253 74.4044 106.281 74.2531C106.307 74.0982 106.334 73.9451 106.36 73.7938C106.384 73.6425 106.407 73.4967 106.428 73.3562C106.449 73.2157 106.467 73.086 106.483 72.9672C106.38 72.9924 106.282 73.014 106.19 73.032C106.099 73.05 106.018 73.059 105.946 73.059ZM109.317 77.214C109.317 77.0303 109.331 76.7943 109.359 76.5062C109.387 76.2144 109.424 75.901 109.469 75.566C109.515 75.231 109.567 74.8889 109.626 74.5395C109.684 74.1901 109.743 73.8605 109.804 73.5507C109.865 73.2445 109.925 72.9744 109.985 72.7402C110.044 72.5097 110.096 72.344 110.142 72.2431C110.166 72.2467 110.198 72.2666 110.239 72.3026C110.279 72.335 110.32 72.3728 110.362 72.416C110.404 72.4629 110.442 72.5133 110.477 72.5673C110.51 72.6178 110.532 72.6664 110.542 72.7132C110.471 72.8429 110.4 73.041 110.33 73.3075C110.26 73.5705 110.193 73.8713 110.129 74.2099C110.064 74.5485 110.004 74.9051 109.948 75.2797C109.892 75.6543 109.843 76.0181 109.802 76.3711C109.76 76.7241 109.727 77.0519 109.705 77.3545C109.682 77.657 109.671 77.902 109.671 78.0893C109.671 78.1757 109.674 78.2298 109.681 78.2514C109.627 78.2442 109.588 78.2244 109.563 78.1919C109.539 78.1595 109.52 78.1253 109.506 78.0893C109.494 78.0497 109.481 78.0118 109.469 77.9758C109.459 77.9362 109.442 77.9056 109.419 77.884C109.404 77.8696 109.39 77.8353 109.378 77.7813C109.365 77.7237 109.355 77.6624 109.346 77.5976C109.337 77.5292 109.33 77.4589 109.325 77.3869C109.32 77.3148 109.317 77.2572 109.317 77.214ZM113.885 72.1351C113.93 72.1783 113.977 72.2305 114.026 72.2918C114.075 72.3566 114.12 72.4214 114.162 72.4863C114.204 72.5511 114.239 72.6142 114.267 72.6754C114.295 72.7402 114.309 72.7925 114.311 72.8321C114.271 72.8141 114.23 72.8015 114.188 72.7943C114.146 72.7834 114.108 72.778 114.073 72.778C113.963 72.778 113.854 72.8339 113.746 72.9455C113.638 73.0572 113.535 73.2085 113.437 73.3994C113.339 73.5903 113.249 73.8154 113.165 74.0748C113.083 74.3305 113.011 74.6043 112.95 74.8961C112.891 75.1914 112.844 75.494 112.809 75.8038C112.776 76.1172 112.759 76.4251 112.759 76.7277C112.759 77.1203 112.791 77.4139 112.853 77.6084C112.918 77.7993 113.011 77.8948 113.133 77.8948C113.191 77.8948 113.254 77.8714 113.322 77.8245C113.392 77.7741 113.461 77.7057 113.531 77.6192C113.603 77.5364 113.673 77.4337 113.741 77.3112C113.809 77.1888 113.872 77.0555 113.932 76.9114C114.017 76.6989 114.094 76.4575 114.162 76.1874C114.23 75.9172 114.289 75.6309 114.337 75.3283C114.384 75.0257 114.421 74.7142 114.447 74.3936C114.472 74.073 114.484 73.7596 114.484 73.4534C114.484 73.331 114.483 73.2283 114.481 73.1455C114.478 73.0626 114.474 72.9924 114.471 72.9347C114.467 72.8771 114.465 72.8303 114.463 72.7943C114.46 72.7582 114.457 72.7276 114.455 72.7024C114.485 72.7348 114.517 72.7726 114.552 72.8159C114.587 72.8591 114.62 72.9221 114.651 73.005C114.681 73.0878 114.706 73.1977 114.727 73.3346C114.748 73.4678 114.759 73.6443 114.759 73.8641C114.759 74.2171 114.739 74.5629 114.699 74.9015C114.658 75.2437 114.603 75.5678 114.531 75.874C114.458 76.1802 114.372 76.4684 114.275 76.7385C114.177 77.0051 114.072 77.2392 113.96 77.4409C113.814 77.7075 113.658 77.9146 113.492 78.0623C113.326 78.2063 113.166 78.2784 113.01 78.2784C112.787 78.2784 112.616 78.1307 112.497 77.8353C112.379 77.54 112.319 77.1059 112.319 76.5332C112.319 76.2234 112.336 75.8974 112.369 75.5552C112.402 75.213 112.449 74.8762 112.508 74.5449C112.567 74.2099 112.639 73.8929 112.722 73.5939C112.804 73.2949 112.895 73.0302 112.995 72.7997C113.094 72.5691 113.201 72.3854 113.314 72.2485C113.427 72.1153 113.544 72.0486 113.665 72.0486C113.703 72.0486 113.74 72.054 113.775 72.0648C113.808 72.0792 113.844 72.1027 113.885 72.1351ZM117.002 78.219C116.862 78.1325 116.768 78.0515 116.719 77.9758C116.67 77.8966 116.646 77.7885 116.646 77.6516C116.646 77.5003 116.663 77.2878 116.698 77.0141C116.731 76.7367 116.776 76.4305 116.832 76.0955C116.886 75.7569 116.949 75.4039 117.02 75.0365C117.092 74.6655 117.164 74.3125 117.237 73.9775C117.311 73.6389 117.382 73.3292 117.452 73.0482C117.52 72.7672 117.581 72.5493 117.635 72.3944L117.609 72.0756C117.644 72.0756 117.692 72.0937 117.753 72.1297C117.814 72.1657 117.876 72.2089 117.939 72.2593C118 72.3098 118.055 72.3602 118.104 72.4106C118.151 72.4647 118.177 72.5097 118.182 72.5457C118.17 72.6682 118.16 72.8519 118.153 73.0968C118.145 73.3382 118.14 73.5975 118.14 73.8749C118.14 74.426 118.151 74.9645 118.172 75.4904C118.193 76.0199 118.242 76.5566 118.318 77.1005C118.357 76.6971 118.399 76.2955 118.444 75.8956C118.489 75.4922 118.536 75.1086 118.585 74.7448C118.634 74.3774 118.683 74.037 118.732 73.7236C118.781 73.4138 118.828 73.1401 118.873 72.9023C118.919 72.6682 118.96 72.4845 118.999 72.3512C119.037 72.2179 119.073 72.1459 119.106 72.1351C119.132 72.1459 119.161 72.1675 119.193 72.1999C119.224 72.2323 119.254 72.272 119.284 72.3188C119.314 72.3656 119.341 72.416 119.365 72.4701C119.39 72.5241 119.409 72.5799 119.423 72.6376C119.346 72.7024 119.269 72.8555 119.193 73.0968C119.114 73.3382 119.041 73.6317 118.973 73.9775C118.903 74.3233 118.837 74.6979 118.776 75.1014C118.717 75.5048 118.665 75.9028 118.619 76.2955C118.574 76.6845 118.539 77.0465 118.515 77.3815C118.488 77.7129 118.474 77.9794 118.47 78.1811C118.47 78.1919 118.472 78.1991 118.475 78.2027C118.468 78.2099 118.461 78.2136 118.452 78.2136C118.443 78.2136 118.435 78.2136 118.428 78.2136C118.315 78.2136 118.215 78.1847 118.13 78.1271C118.043 78.0659 117.985 77.983 117.957 77.8786C117.907 77.4535 117.864 77.0447 117.829 76.6521C117.796 76.2594 117.768 75.8668 117.745 75.4742C117.721 75.0816 117.702 74.6835 117.69 74.2801C117.676 73.8803 117.666 73.4606 117.659 73.0212C117.612 73.1725 117.563 73.3706 117.512 73.6155C117.46 73.8605 117.409 74.1288 117.36 74.4206C117.312 74.7123 117.264 75.0203 117.219 75.3445C117.174 75.6687 117.134 75.9839 117.101 76.2901C117.066 76.5962 117.039 76.888 117.02 77.1654C117.001 77.4391 116.991 77.6768 116.991 77.8786C116.991 77.983 116.992 78.0587 116.994 78.1055C116.994 78.1523 116.997 78.1901 117.002 78.219ZM121.176 78.219C121.058 78.1469 120.977 78.0767 120.933 78.0082C120.888 77.9362 120.865 77.8479 120.865 77.7435C120.865 77.6606 120.875 77.5472 120.896 77.4031C120.919 77.2554 120.951 77.0825 120.993 76.8844C121.037 76.6863 121.088 76.4648 121.148 76.2198C121.207 75.9785 121.275 75.7191 121.352 75.4418C121.287 75.4382 121.231 75.4346 121.182 75.431C121.131 75.4274 121.09 75.4256 121.059 75.4256C121.073 75.3499 121.114 75.2851 121.182 75.231C121.251 75.177 121.342 75.1284 121.454 75.0852C121.55 74.7574 121.652 74.4458 121.76 74.1504C121.868 73.8515 121.977 73.5777 122.087 73.3292C122.197 73.0806 122.307 72.8609 122.417 72.67C122.527 72.4827 122.633 72.3332 122.734 72.2215C122.736 72.1855 122.737 72.1549 122.739 72.1297C122.739 72.1045 122.739 72.0864 122.739 72.0756C122.774 72.0756 122.82 72.0937 122.878 72.1297C122.935 72.1657 122.991 72.2089 123.045 72.2593C123.101 72.3098 123.15 72.3602 123.192 72.4106C123.235 72.4647 123.26 72.5097 123.265 72.5457C123.183 72.8375 123.104 73.2751 123.027 73.8587C122.948 74.4422 122.883 75.1392 122.831 75.9497C122.818 76.1514 122.809 76.3801 122.802 76.6358C122.793 76.8952 122.789 77.1834 122.789 77.5003C122.789 77.612 122.789 77.7255 122.789 77.8407C122.789 77.956 122.79 78.0767 122.794 78.2027C122.79 78.2099 122.786 78.2136 122.781 78.2136C122.776 78.2136 122.766 78.2136 122.752 78.2136C122.717 78.2136 122.677 78.2009 122.632 78.1757C122.586 78.1541 122.543 78.1271 122.501 78.0947C122.457 78.0623 122.421 78.0262 122.391 77.9866C122.359 77.9434 122.34 77.9074 122.333 77.8786C122.332 77.8137 122.331 77.7489 122.331 77.684C122.331 77.6228 122.331 77.5562 122.331 77.4841C122.331 77.1708 122.336 76.8538 122.346 76.5332C122.357 76.209 122.376 75.8758 122.404 75.5336C122.369 75.53 122.324 75.5228 122.268 75.512C122.212 75.5048 122.149 75.4994 122.079 75.4958C122.01 75.4922 121.935 75.485 121.854 75.4742C121.776 75.467 121.698 75.4616 121.621 75.458C121.564 75.6849 121.509 75.91 121.457 76.1334C121.406 76.3603 121.362 76.5872 121.326 76.8142C121.284 77.0555 121.251 77.2968 121.226 77.5382C121.2 77.7795 121.183 78.0064 121.176 78.219ZM122.59 73.675C122.6 73.6029 122.612 73.5057 122.624 73.3832C122.638 73.2571 122.651 73.1274 122.663 72.9942C122.602 73.0374 122.534 73.1202 122.459 73.2427C122.386 73.3616 122.309 73.5111 122.229 73.6912C122.15 73.8713 122.07 74.073 121.988 74.2963C121.906 74.5196 121.826 74.7574 121.75 75.0095C121.956 74.9771 122.189 74.9555 122.451 74.9447C122.47 74.7322 122.491 74.5214 122.514 74.3125C122.538 74.1036 122.564 73.8911 122.59 73.675ZM126.558 77.214C126.619 77.4301 126.649 77.639 126.649 77.8407C126.649 77.8876 126.648 77.929 126.644 77.965C126.641 78.0046 126.636 78.0443 126.631 78.0839C126.589 78.0731 126.546 78.0659 126.503 78.0623C126.457 78.0551 126.41 78.0515 126.361 78.0515C126.302 78.0515 126.243 78.0551 126.183 78.0623C126.122 78.0695 126.055 78.0821 125.982 78.1001C125.909 78.1145 125.827 78.1343 125.738 78.1595C125.648 78.1847 125.542 78.2172 125.422 78.2568C125.366 78.2172 125.31 78.1379 125.254 78.019C125.198 77.9002 125.146 77.7579 125.097 77.5922C125.122 77.4805 125.152 77.3419 125.189 77.1762C125.225 77.0141 125.268 76.816 125.317 76.5818C125.366 76.3477 125.42 76.0721 125.479 75.7551C125.539 75.4418 125.602 75.078 125.67 74.6637C125.716 74.39 125.754 74.1504 125.786 73.9451C125.817 73.7398 125.846 73.5399 125.872 73.3454C125.896 73.1509 125.921 72.9473 125.945 72.7348C125.97 72.5223 125.997 72.2774 126.026 72C126.124 72.0396 126.21 72.1135 126.283 72.2215C126.354 72.3332 126.423 72.4899 126.49 72.6916C126.469 72.7564 126.443 72.8609 126.411 73.005C126.38 73.1527 126.343 73.331 126.301 73.5399C126.258 73.7488 126.21 73.9865 126.16 74.2531C126.108 74.516 126.053 74.7988 125.998 75.1014C125.943 75.4003 125.891 75.6813 125.841 75.9443C125.788 76.2036 125.742 76.4395 125.702 76.6521C125.662 76.8646 125.629 77.0465 125.605 77.1978C125.581 77.3491 125.568 77.4625 125.568 77.5382C125.608 77.5346 125.644 77.5292 125.676 77.522C125.707 77.5184 125.74 77.5093 125.775 77.4949C125.808 77.4841 125.845 77.4697 125.885 77.4517C125.925 77.4337 125.974 77.4103 126.032 77.3815C126.08 77.3563 126.125 77.3346 126.165 77.3166C126.207 77.2986 126.248 77.2824 126.288 77.268C126.328 77.2572 126.37 77.2482 126.414 77.241C126.456 77.2338 126.504 77.2248 126.558 77.214ZM131.714 76.1604C131.714 75.8074 131.734 75.4616 131.774 75.123C131.814 74.7808 131.871 74.4566 131.944 74.1504C132.017 73.8479 132.105 73.5687 132.206 73.313C132.307 73.0572 132.419 72.8375 132.541 72.6538C132.661 72.4665 132.79 72.3206 132.926 72.2161C133.063 72.1117 133.204 72.0594 133.347 72.0594C133.516 72.0594 133.648 72.1333 133.742 72.281C133.836 72.4286 133.884 72.6322 133.884 72.8915C133.884 72.9924 133.877 73.0968 133.863 73.2049C133.849 73.3093 133.83 73.4138 133.805 73.5183C133.779 73.6227 133.748 73.7218 133.713 73.8154C133.68 73.9127 133.643 73.9955 133.601 74.064C133.538 74.046 133.483 73.9865 133.436 73.8857C133.389 73.7884 133.359 73.675 133.347 73.5453C133.433 73.3976 133.501 73.2445 133.551 73.086C133.602 72.9275 133.627 72.7834 133.627 72.6538C133.627 72.4304 133.56 72.3188 133.426 72.3188C133.37 72.3188 133.311 72.3422 133.25 72.389C133.191 72.4395 133.131 72.5061 133.07 72.5889C133.009 72.6754 132.949 72.7798 132.892 72.9023C132.834 73.0212 132.781 73.1545 132.732 73.3021C132.393 74.3107 132.224 75.3427 132.224 76.3981C132.224 76.7691 132.252 77.0681 132.308 77.295C132.364 77.522 132.438 77.6552 132.53 77.6949C132.635 77.6444 132.769 77.5057 132.931 77.2788C133.091 77.0519 133.267 76.7583 133.457 76.3981C133.481 76.4485 133.496 76.5008 133.501 76.5548C133.432 76.7457 133.358 76.9294 133.282 77.1059C133.207 77.2824 133.132 77.4445 133.057 77.5922C132.981 77.7363 132.908 77.8642 132.837 77.9758C132.765 78.0875 132.699 78.1739 132.638 78.2352C132.334 78.2244 132.105 78.0443 131.949 77.6949C131.792 77.3491 131.714 76.8376 131.714 76.1604ZM137.299 72.1351C137.345 72.1783 137.392 72.2305 137.441 72.2918C137.489 72.3566 137.535 72.4214 137.577 72.4863C137.619 72.5511 137.653 72.6142 137.681 72.6754C137.709 72.7402 137.724 72.7925 137.726 72.8321C137.686 72.8141 137.645 72.8015 137.603 72.7943C137.561 72.7834 137.523 72.778 137.488 72.778C137.378 72.778 137.269 72.8339 137.16 72.9455C137.052 73.0572 136.949 73.2085 136.852 73.3994C136.754 73.5903 136.663 73.8154 136.579 74.0748C136.497 74.3305 136.426 74.6043 136.365 74.8961C136.305 75.1914 136.258 75.494 136.223 75.8038C136.19 76.1172 136.174 76.4251 136.174 76.7277C136.174 77.1203 136.205 77.4139 136.268 77.6084C136.333 77.7993 136.426 77.8948 136.548 77.8948C136.606 77.8948 136.668 77.8714 136.736 77.8245C136.806 77.7741 136.876 77.7057 136.946 77.6192C137.017 77.5364 137.087 77.4337 137.155 77.3112C137.223 77.1888 137.287 77.0555 137.346 76.9114C137.432 76.6989 137.509 76.4575 137.577 76.1874C137.645 75.9172 137.703 75.6309 137.752 75.3283C137.799 75.0257 137.835 74.7142 137.859 74.3936C137.885 74.073 137.899 73.7596 137.899 73.4534C137.899 73.331 137.898 73.2283 137.896 73.1455C137.892 73.0626 137.889 72.9924 137.885 72.9347C137.882 72.8771 137.879 72.8303 137.878 72.7943C137.874 72.7582 137.872 72.7276 137.87 72.7024C137.899 72.7348 137.932 72.7726 137.967 72.8159C138.002 72.8591 138.035 72.9221 138.066 73.005C138.096 73.0878 138.121 73.1977 138.142 73.3346C138.163 73.4678 138.173 73.6443 138.173 73.8641C138.173 74.2171 138.153 74.5629 138.113 74.9015C138.073 75.2437 138.017 75.5678 137.946 75.874C137.872 76.1802 137.787 76.4684 137.689 76.7385C137.591 77.0051 137.487 77.2392 137.375 77.4409C137.229 77.7075 137.072 77.9146 136.907 78.0623C136.741 78.2063 136.58 78.2784 136.425 78.2784C136.202 78.2784 136.031 78.1307 135.912 77.8353C135.793 77.54 135.734 77.1059 135.734 76.5332C135.734 76.2234 135.751 75.8974 135.784 75.5552C135.817 75.213 135.863 74.8762 135.922 74.5449C135.982 74.2099 136.053 73.8929 136.137 73.5939C136.219 73.2949 136.31 73.0302 136.409 72.7997C136.509 72.5691 136.615 72.3854 136.729 72.2485C136.842 72.1153 136.959 72.0486 137.079 72.0486C137.118 72.0486 137.154 72.054 137.189 72.0648C137.222 72.0792 137.259 72.1027 137.299 72.1351ZM140.416 78.219C140.277 78.1325 140.183 78.0515 140.134 77.9758C140.085 77.8966 140.06 77.7885 140.06 77.6516C140.06 77.5003 140.078 77.2878 140.113 77.0141C140.146 76.7367 140.19 76.4305 140.246 76.0955C140.3 75.7569 140.363 75.4039 140.435 75.0365C140.506 74.6655 140.579 74.3125 140.652 73.9775C140.725 73.6389 140.796 73.3292 140.864 73.0482C140.934 72.7672 140.996 72.5493 141.05 72.3944L141.024 72.0756C141.059 72.0756 141.107 72.0937 141.168 72.1297C141.229 72.1657 141.291 72.2089 141.353 72.2593C141.415 72.3098 141.469 72.3602 141.518 72.4106C141.565 72.4647 141.592 72.5097 141.597 72.5457C141.585 72.6682 141.575 72.8519 141.568 73.0968C141.559 73.3382 141.555 73.5975 141.555 73.8749C141.555 74.426 141.565 74.9645 141.586 75.4904C141.607 76.0199 141.656 76.5566 141.733 77.1005C141.771 76.6971 141.813 76.2955 141.859 75.8956C141.904 75.4922 141.951 75.1086 142 74.7448C142.049 74.3774 142.098 74.037 142.147 73.7236C142.195 73.4138 142.242 73.1401 142.288 72.9023C142.333 72.6682 142.375 72.4845 142.413 72.3512C142.452 72.2179 142.488 72.1459 142.521 72.1351C142.547 72.1459 142.576 72.1675 142.607 72.1999C142.639 72.2323 142.669 72.272 142.699 72.3188C142.728 72.3656 142.755 72.416 142.78 72.4701C142.804 72.5241 142.824 72.5799 142.837 72.6376C142.761 72.7024 142.683 72.8555 142.605 73.0968C142.528 73.3382 142.454 73.6317 142.385 73.9775C142.317 74.3233 142.252 74.6979 142.191 75.1014C142.132 75.5048 142.079 75.9028 142.034 76.2955C141.989 76.6845 141.953 77.0465 141.927 77.3815C141.902 77.7129 141.888 77.9794 141.885 78.1811C141.885 78.1919 141.887 78.1991 141.89 78.2027C141.883 78.2099 141.875 78.2136 141.866 78.2136C141.858 78.2136 141.85 78.2136 141.843 78.2136C141.729 78.2136 141.629 78.1847 141.542 78.1271C141.456 78.0659 141.4 77.983 141.372 77.8786C141.321 77.4535 141.278 77.0447 141.244 76.6521C141.21 76.2594 141.182 75.8668 141.157 75.4742C141.134 75.0816 141.116 74.6835 141.102 74.2801C141.09 73.8803 141.08 73.4606 141.073 73.0212C141.026 73.1725 140.977 73.3706 140.927 73.6155C140.874 73.8605 140.824 74.1288 140.775 74.4206C140.726 74.7123 140.679 75.0203 140.634 75.3445C140.588 75.6687 140.549 75.9839 140.516 76.2901C140.481 76.5962 140.454 76.888 140.435 77.1654C140.416 77.4391 140.406 77.6768 140.406 77.8786C140.406 77.983 140.406 78.0587 140.406 78.1055C140.408 78.1523 140.411 78.1901 140.416 78.219ZM145.151 73.059C145.053 73.059 144.978 73.0032 144.926 72.8915C144.874 72.7762 144.848 72.6376 144.848 72.4755C144.848 72.4358 144.85 72.389 144.855 72.335C144.862 72.2774 144.87 72.2287 144.879 72.1891C144.91 72.2215 144.958 72.2431 145.02 72.2539C145.083 72.2684 145.156 72.2756 145.238 72.2756C145.363 72.2756 145.505 72.263 145.662 72.2377C145.819 72.2161 145.97 72.1927 146.114 72.1675C146.259 72.1423 146.387 72.1189 146.497 72.0973C146.606 72.072 146.677 72.0594 146.709 72.0594C146.799 72.0594 146.865 72.1297 146.905 72.2702C146.945 72.407 146.975 72.5925 146.994 72.8267C146.931 72.8159 146.868 72.8069 146.805 72.7997C146.743 72.7925 146.689 72.7889 146.646 72.7889C146.567 72.7889 146.489 72.7943 146.41 72.8051C146.33 72.8123 146.25 72.8267 146.169 72.8483C146.134 72.996 146.097 73.1689 146.057 73.367C146.015 73.5651 145.974 73.7722 145.934 73.9883C145.894 74.2081 145.855 74.4242 145.819 74.6367C145.782 74.8528 145.75 75.0455 145.722 75.2148C145.668 75.5498 145.621 75.8578 145.58 76.1388C145.54 76.4197 145.505 76.6827 145.476 76.9276C145.444 77.1726 145.418 77.4067 145.397 77.63C145.375 77.8497 145.354 78.0659 145.337 78.2784C145.173 78.228 145.036 78.0172 144.926 77.6462C144.947 77.4877 144.971 77.3166 144.999 77.1329C145.027 76.9492 145.06 76.7403 145.099 76.5062C145.135 76.272 145.18 76.0055 145.232 75.7065C145.283 75.4111 145.341 75.0744 145.408 74.6961C145.432 74.5521 145.457 74.4044 145.484 74.2531C145.512 74.0982 145.538 73.9451 145.562 73.7938C145.588 73.6425 145.612 73.4967 145.633 73.3562C145.654 73.2157 145.671 73.086 145.685 72.9672C145.582 72.9924 145.485 73.014 145.395 73.032C145.302 73.05 145.221 73.059 145.151 73.059ZM149.925 74.4206C150.005 74.4206 150.068 74.4656 150.114 74.5557C150.159 74.6493 150.182 74.7754 150.182 74.9339C150.182 74.9771 150.18 75.0185 150.176 75.0581C150.173 75.1014 150.169 75.1392 150.163 75.1716C150.132 75.1608 150.096 75.1518 150.056 75.1446C150.018 75.1374 149.971 75.1338 149.917 75.1338C149.813 75.1338 149.706 75.1518 149.598 75.1878C149.492 75.2274 149.39 75.2599 149.292 75.2851C149.236 75.5516 149.185 75.8092 149.137 76.0577C149.09 76.3099 149.05 76.5386 149.017 76.7439C148.986 76.9492 148.96 77.1275 148.941 77.2788C148.924 77.4301 148.913 77.5436 148.91 77.6192C149.109 77.5364 149.308 77.4643 149.509 77.4031C149.711 77.3419 149.923 77.2968 150.145 77.268C150.171 77.3509 150.194 77.4427 150.213 77.5436C150.231 77.6444 150.239 77.7543 150.239 77.8732C150.239 77.902 150.239 77.9344 150.239 77.9704C150.239 78.0064 150.238 78.0407 150.234 78.0731C150.164 78.0695 150.092 78.0659 150.017 78.0623C149.942 78.0623 149.843 78.0623 149.721 78.0623C149.639 78.0623 149.562 78.0659 149.491 78.0731C149.419 78.0803 149.347 78.0911 149.273 78.1055C149.2 78.1199 149.123 78.1397 149.041 78.1649C148.959 78.1901 148.866 78.2208 148.763 78.2568C148.651 78.1667 148.543 77.9452 148.439 77.5922C148.479 77.4085 148.536 77.1311 148.611 76.7601C148.686 76.3927 148.781 75.8974 148.897 75.2743C148.787 75.2058 148.714 75.0798 148.679 74.8961C148.692 74.8708 148.727 74.8402 148.787 74.8042C148.844 74.7646 148.916 74.725 149.001 74.6853C149.038 74.4908 149.069 74.3197 149.096 74.172C149.122 74.0244 149.144 73.8875 149.164 73.7614C149.183 73.6317 149.2 73.5057 149.216 73.3832C149.232 73.2571 149.247 73.122 149.263 72.978C149.178 72.9672 149.11 72.9185 149.061 72.8321C149.013 72.742 148.988 72.6268 148.988 72.4863C148.988 72.4467 148.991 72.398 148.996 72.3404C149.003 72.2864 149.01 72.2395 149.017 72.1999C149.066 72.2143 149.113 72.2233 149.158 72.2269C149.204 72.2341 149.263 72.2377 149.336 72.2377C149.49 72.2377 149.634 72.2287 149.768 72.2107C149.903 72.1927 150.024 72.1729 150.132 72.1513C150.24 72.1333 150.334 72.1153 150.412 72.0973C150.491 72.0792 150.551 72.0702 150.593 72.0702C150.648 72.0702 150.698 72.1297 150.742 72.2485C150.785 72.371 150.819 72.5439 150.841 72.7672C150.766 72.7492 150.704 72.7384 150.655 72.7348C150.608 72.7312 150.566 72.7294 150.53 72.7294C150.395 72.7294 150.272 72.742 150.161 72.7672C150.051 72.7961 149.944 72.8249 149.841 72.8537C149.826 72.9005 149.809 72.9599 149.792 73.032C149.773 73.1004 149.749 73.1977 149.721 73.3238C149.691 73.4498 149.655 73.6083 149.611 73.7992C149.569 73.9937 149.518 74.2333 149.457 74.5178C149.549 74.489 149.636 74.4656 149.718 74.4476C149.8 74.4296 149.869 74.4206 149.925 74.4206ZM152.802 78.219C152.662 78.1325 152.568 78.0515 152.519 77.9758C152.47 77.8966 152.446 77.7885 152.446 77.6516C152.446 77.5003 152.463 77.2878 152.498 77.0141C152.531 76.7367 152.576 76.4305 152.632 76.0955C152.686 75.7569 152.748 75.4039 152.82 75.0365C152.892 74.6655 152.964 74.3125 153.037 73.9775C153.11 73.6389 153.181 73.3292 153.249 73.0482C153.319 72.7672 153.381 72.5493 153.435 72.3944L153.409 72.0756C153.444 72.0756 153.492 72.0937 153.553 72.1297C153.614 72.1657 153.676 72.2089 153.739 72.2593C153.8 72.3098 153.855 72.3602 153.904 72.4106C153.951 72.4647 153.977 72.5097 153.982 72.5457C153.97 72.6682 153.96 72.8519 153.953 73.0968C153.945 73.3382 153.94 73.5975 153.94 73.8749C153.94 74.426 153.951 74.9645 153.972 75.4904C153.993 76.0199 154.041 76.5566 154.118 77.1005C154.157 76.6971 154.198 76.2955 154.244 75.8956C154.289 75.4922 154.336 75.1086 154.385 74.7448C154.434 74.3774 154.483 74.037 154.532 73.7236C154.581 73.4138 154.628 73.1401 154.673 72.9023C154.718 72.6682 154.76 72.4845 154.799 72.3512C154.837 72.2179 154.873 72.1459 154.906 72.1351C154.932 72.1459 154.961 72.1675 154.992 72.1999C155.024 72.2323 155.054 72.272 155.084 72.3188C155.114 72.3656 155.141 72.416 155.165 72.4701C155.19 72.5241 155.209 72.5799 155.223 72.6376C155.146 72.7024 155.068 72.8555 154.99 73.0968C154.913 73.3382 154.84 73.6317 154.77 73.9775C154.702 74.3233 154.637 74.6979 154.576 75.1014C154.517 75.5048 154.465 75.9028 154.419 76.2955C154.374 76.6845 154.338 77.0465 154.312 77.3815C154.287 77.7129 154.273 77.9794 154.27 78.1811C154.27 78.1919 154.272 78.1991 154.275 78.2027C154.268 78.2099 154.26 78.2136 154.252 78.2136C154.243 78.2136 154.235 78.2136 154.228 78.2136C154.115 78.2136 154.014 78.1847 153.927 78.1271C153.842 78.0659 153.785 77.983 153.757 77.8786C153.706 77.4535 153.664 77.0447 153.629 76.6521C153.596 76.2594 153.567 75.8668 153.542 75.4742C153.52 75.0816 153.502 74.6835 153.49 74.2801C153.476 73.8803 153.466 73.4606 153.459 73.0212C153.411 73.1725 153.363 73.3706 153.312 73.6155C153.26 73.8605 153.209 74.1288 153.16 74.4206C153.111 74.7123 153.064 75.0203 153.019 75.3445C152.974 75.6687 152.934 75.9839 152.901 76.2901C152.866 76.5962 152.839 76.888 152.82 77.1654C152.801 77.4391 152.791 77.6768 152.791 77.8786C152.791 77.983 152.791 78.0587 152.791 78.1055C152.793 78.1523 152.796 78.1901 152.802 78.219ZM157.536 73.059C157.439 73.059 157.364 73.0032 157.311 72.8915C157.259 72.7762 157.233 72.6376 157.233 72.4755C157.233 72.4358 157.235 72.389 157.241 72.335C157.248 72.2774 157.255 72.2287 157.264 72.1891C157.296 72.2215 157.343 72.2431 157.406 72.2539C157.468 72.2684 157.541 72.2756 157.623 72.2756C157.748 72.2756 157.89 72.263 158.047 72.2377C158.204 72.2161 158.355 72.1927 158.5 72.1675C158.644 72.1423 158.772 72.1189 158.882 72.0973C158.992 72.072 159.062 72.0594 159.094 72.0594C159.184 72.0594 159.25 72.1297 159.29 72.2702C159.33 72.407 159.36 72.5925 159.379 72.8267C159.316 72.8159 159.253 72.8069 159.191 72.7997C159.128 72.7925 159.075 72.7889 159.031 72.7889C158.952 72.7889 158.874 72.7943 158.795 72.8051C158.715 72.8123 158.635 72.8267 158.555 72.8483C158.52 72.996 158.482 73.1689 158.442 73.367C158.4 73.5651 158.359 73.7722 158.319 73.9883C158.279 74.2081 158.24 74.4242 158.204 74.6367C158.167 74.8528 158.135 75.0455 158.107 75.2148C158.053 75.5498 158.006 75.8578 157.966 76.1388C157.926 76.4197 157.891 76.6827 157.861 76.9276C157.83 77.1726 157.803 77.4067 157.782 77.63C157.76 77.8497 157.74 78.0659 157.722 78.2784C157.558 78.228 157.421 78.0172 157.311 77.6462C157.332 77.4877 157.357 77.3166 157.385 77.1329C157.413 76.9492 157.445 76.7403 157.481 76.5062C157.52 76.272 157.565 76.0055 157.618 75.7065C157.668 75.4111 157.727 75.0744 157.793 74.6961C157.817 74.5521 157.843 74.4044 157.869 74.2531C157.897 74.0982 157.923 73.9451 157.947 73.7938C157.973 73.6425 157.997 73.4967 158.018 73.3562C158.039 73.2157 158.056 73.086 158.07 72.9672C157.967 72.9924 157.871 73.014 157.78 73.032C157.687 73.05 157.606 73.059 157.536 73.059ZM163.666 78.219C163.549 78.1469 163.468 78.0767 163.423 78.0082C163.377 77.9362 163.355 77.8479 163.355 77.7435C163.355 77.6606 163.366 77.5472 163.389 77.4031C163.41 77.2554 163.442 77.0825 163.486 76.8844C163.527 76.6863 163.578 76.4648 163.637 76.2198C163.698 75.9785 163.767 75.7191 163.842 75.4418C163.779 75.4382 163.722 75.4346 163.671 75.431C163.621 75.4274 163.58 75.4256 163.548 75.4256C163.564 75.3499 163.606 75.2851 163.674 75.231C163.742 75.177 163.832 75.1284 163.944 75.0852C164.04 74.7574 164.142 74.4458 164.25 74.1504C164.36 73.8515 164.47 73.5777 164.58 73.3292C164.69 73.0806 164.799 72.8609 164.909 72.67C165.019 72.4827 165.124 72.3332 165.224 72.2215C165.225 72.1855 165.227 72.1549 165.229 72.1297C165.23 72.1045 165.231 72.0864 165.231 72.0756C165.265 72.0756 165.31 72.0937 165.367 72.1297C165.425 72.1657 165.482 72.2089 165.538 72.2593C165.592 72.3098 165.641 72.3602 165.684 72.4106C165.726 72.4647 165.75 72.5097 165.755 72.5457C165.675 72.8375 165.595 73.2751 165.517 73.8587C165.438 74.4422 165.374 75.1392 165.323 75.9497C165.311 76.1514 165.3 76.3801 165.292 76.6358C165.283 76.8952 165.278 77.1834 165.278 77.5003C165.278 77.612 165.278 77.7255 165.278 77.8407C165.278 77.956 165.281 78.0767 165.286 78.2027C165.281 78.2099 165.276 78.2136 165.271 78.2136C165.265 78.2136 165.256 78.2136 165.242 78.2136C165.207 78.2136 165.167 78.2009 165.121 78.1757C165.078 78.1541 165.034 78.1271 164.991 78.0947C164.949 78.0623 164.912 78.0262 164.881 77.9866C164.851 77.9434 164.832 77.9074 164.823 77.8786C164.821 77.8137 164.82 77.7489 164.82 77.684C164.82 77.6228 164.82 77.5562 164.82 77.4841C164.82 77.1708 164.826 76.8538 164.836 76.5332C164.848 76.209 164.868 75.8758 164.894 75.5336C164.859 75.53 164.813 75.5228 164.758 75.512C164.702 75.5048 164.639 75.4994 164.569 75.4958C164.499 75.4922 164.425 75.485 164.347 75.4742C164.266 75.467 164.189 75.4616 164.114 75.458C164.054 75.6849 163.999 75.91 163.949 76.1334C163.897 76.3603 163.852 76.5872 163.815 76.8142C163.775 77.0555 163.742 77.2968 163.716 77.5382C163.69 77.7795 163.673 78.0064 163.666 78.219ZM165.08 73.675C165.09 73.6029 165.102 73.5057 165.116 73.3832C165.128 73.2571 165.141 73.1274 165.153 72.9942C165.092 73.0374 165.025 73.1202 164.951 73.2427C164.876 73.3616 164.799 73.5111 164.718 73.6912C164.64 73.8713 164.56 74.073 164.478 74.2963C164.396 74.5196 164.317 74.7574 164.242 75.0095C164.446 74.9771 164.679 74.9555 164.941 74.9447C164.96 74.7322 164.982 74.5214 165.006 74.3125C165.029 74.1036 165.053 73.8911 165.08 73.675ZM168.011 78.219C167.873 78.1325 167.78 78.0515 167.731 77.9758C167.682 77.8966 167.658 77.7885 167.658 77.6516C167.658 77.5003 167.674 77.2878 167.707 77.0141C167.742 76.7367 167.787 76.4305 167.841 76.0955C167.897 75.7569 167.959 75.4039 168.029 75.0365C168.101 74.6655 168.173 74.3125 168.247 73.9775C168.32 73.6389 168.391 73.3292 168.461 73.0482C168.531 72.7672 168.593 72.5493 168.647 72.3944L168.621 72.0756C168.654 72.0756 168.701 72.0937 168.762 72.1297C168.823 72.1657 168.885 72.2089 168.948 72.2593C169.011 72.3098 169.066 72.3602 169.113 72.4106C169.16 72.4647 169.186 72.5097 169.191 72.5457C169.179 72.6682 169.17 72.8519 169.163 73.0968C169.156 73.3382 169.152 73.5975 169.152 73.8749C169.152 74.426 169.163 74.9645 169.184 75.4904C169.204 76.0199 169.252 76.5566 169.327 77.1005C169.366 76.6971 169.408 76.2955 169.453 75.8956C169.498 75.4922 169.546 75.1086 169.594 74.7448C169.643 74.3774 169.692 74.037 169.741 73.7236C169.79 73.4138 169.837 73.1401 169.882 72.9023C169.928 72.6682 169.97 72.4845 170.008 72.3512C170.048 72.2179 170.084 72.1459 170.115 72.1351C170.141 72.1459 170.171 72.1675 170.204 72.1999C170.236 72.2323 170.266 72.272 170.296 72.3188C170.324 72.3656 170.35 72.416 170.374 72.4701C170.399 72.5241 170.419 72.5799 170.435 72.6376C170.356 72.7024 170.278 72.8555 170.202 73.0968C170.125 73.3382 170.052 73.6317 169.982 73.9775C169.912 74.3233 169.847 74.6979 169.788 75.1014C169.727 75.5048 169.674 75.9028 169.628 76.2955C169.585 76.6845 169.55 77.0465 169.524 77.3815C169.498 77.7129 169.484 77.9794 169.482 78.1811C169.482 78.1919 169.483 78.1991 169.485 78.2027C169.478 78.2099 169.47 78.2136 169.461 78.2136C169.452 78.2136 169.444 78.2136 169.437 78.2136C169.326 78.2136 169.226 78.1847 169.139 78.1271C169.052 78.0659 168.995 77.983 168.969 77.8786C168.917 77.4535 168.874 77.0447 168.841 76.6521C168.806 76.2594 168.777 75.8668 168.754 75.4742C168.732 75.0816 168.713 74.6835 168.699 74.2801C168.685 73.8803 168.675 73.4606 168.668 73.0212C168.621 73.1725 168.572 73.3706 168.521 73.6155C168.471 73.8605 168.421 74.1288 168.372 74.4206C168.323 74.7123 168.276 75.0203 168.231 75.3445C168.185 75.6687 168.145 75.9839 168.11 76.2901C168.077 76.5962 168.05 76.888 168.029 77.1654C168.01 77.4391 168 77.6768 168 77.8786C168 77.983 168.001 78.0587 168.003 78.1055C168.005 78.1523 168.007 78.1901 168.011 78.219ZM173.374 75.0365C173.557 74.6223 173.721 74.1828 173.866 73.7182C174.011 73.2535 174.146 72.7312 174.272 72.1513C174.334 72.1657 174.395 72.2017 174.455 72.2593C174.512 72.3134 174.559 72.3764 174.594 72.4485C174.459 72.7798 174.337 73.0824 174.227 73.3562C174.119 73.6263 174.019 73.8821 173.929 74.1234C173.84 74.3611 173.756 74.5899 173.677 74.8096C173.601 75.0293 173.526 75.2509 173.452 75.4742C173.416 75.7299 173.382 75.9893 173.35 76.2522C173.319 76.5152 173.291 76.7655 173.267 77.0033C173.242 77.2446 173.223 77.4661 173.209 77.6678C173.197 77.8732 173.191 78.0497 173.191 78.1973C173.163 78.1973 173.12 78.1865 173.062 78.1649C173.003 78.1397 172.943 78.1127 172.882 78.0839C172.821 78.0515 172.765 78.0208 172.714 77.992C172.665 77.9632 172.636 77.938 172.625 77.9164C172.664 77.7795 172.702 77.612 172.74 77.4139C172.779 77.2158 172.816 77.0069 172.853 76.7871C172.89 76.5674 172.925 76.3459 172.958 76.1226C172.993 75.8956 173.025 75.6867 173.055 75.4958C172.993 75.1032 172.934 74.734 172.877 74.3882C172.819 74.0424 172.763 73.729 172.709 73.448C172.655 73.1707 172.603 72.9311 172.555 72.7294C172.506 72.5277 172.46 72.3728 172.416 72.2648C172.44 72.2467 172.478 72.2269 172.528 72.2053C172.579 72.1837 172.634 72.1639 172.693 72.1459C172.753 72.1243 172.814 72.1081 172.877 72.0973C172.939 72.0828 172.995 72.0738 173.044 72.0702C173.044 72.1963 173.049 72.3494 173.06 72.5295C173.07 72.7132 173.085 72.9077 173.104 73.113C173.122 73.3184 173.143 73.5273 173.167 73.7398C173.192 73.9523 173.216 74.1468 173.24 74.3233C173.265 74.4998 173.288 74.6529 173.311 74.7826C173.335 74.9087 173.356 74.9933 173.374 75.0365ZM176.567 77.8786C176.555 77.6732 176.546 77.4481 176.541 77.2032C176.534 76.9582 176.53 76.7295 176.53 76.517C176.53 76.1784 176.536 75.8542 176.549 75.5444C176.559 75.2346 176.572 74.9087 176.588 74.5665C176.604 74.2279 176.621 73.8587 176.64 73.4588C176.661 73.0554 176.679 72.5925 176.693 72.0702C176.724 72.0702 176.769 72.0883 176.829 72.1243C176.89 72.1639 176.951 72.2089 177.012 72.2593C177.073 72.3098 177.126 72.3602 177.172 72.4106C177.219 72.4647 177.246 72.5097 177.253 72.5457C177.211 72.7438 177.173 73.0032 177.14 73.3238C177.109 73.6407 177.082 73.9883 177.059 74.3666C177.036 74.7448 177.019 75.1338 177.007 75.5336C176.995 75.9334 176.988 76.3063 176.988 76.6521C176.988 76.8142 176.99 76.9726 176.994 77.1275C176.995 77.286 176.999 77.4301 177.004 77.5598C177.055 77.4049 177.114 77.1816 177.182 76.8898C177.248 76.6016 177.318 76.2774 177.391 75.9172C177.463 75.5606 177.535 75.1878 177.606 74.7988C177.679 74.4062 177.747 74.0316 177.808 73.675C177.869 73.322 177.92 73.0014 177.962 72.7132C178.006 72.4286 178.035 72.2143 178.051 72.0702C178.084 72.0702 178.131 72.0883 178.192 72.1243C178.255 72.1639 178.316 72.2089 178.376 72.2593C178.437 72.3098 178.49 72.3602 178.535 72.4106C178.582 72.4647 178.609 72.5097 178.614 72.5457C178.572 72.7438 178.534 73.0032 178.501 73.3238C178.468 73.6407 178.44 73.9883 178.417 74.3666C178.397 74.7448 178.38 75.1338 178.368 75.5336C178.356 75.9334 178.349 76.3063 178.349 76.6521C178.349 76.7997 178.349 76.9456 178.349 77.0897C178.351 77.2338 178.355 77.3635 178.36 77.4787C178.438 77.0609 178.52 76.6449 178.603 76.2306C178.687 75.82 178.771 75.4274 178.855 75.0527C178.938 74.6781 179.019 74.3269 179.095 73.9991C179.174 73.675 179.246 73.385 179.313 73.1292C179.379 72.8771 179.436 72.6682 179.485 72.5025C179.534 72.3332 179.572 72.2215 179.598 72.1675C179.654 72.1819 179.712 72.2233 179.773 72.2918C179.833 72.3602 179.886 72.4467 179.933 72.5511C179.861 72.67 179.78 72.8609 179.689 73.1238C179.599 73.3904 179.506 73.6966 179.412 74.0424C179.316 74.3918 179.22 74.7628 179.124 75.1554C179.028 75.548 178.938 75.9316 178.855 76.3063C178.771 76.6773 178.697 77.0249 178.632 77.3491C178.568 77.6732 178.519 77.9326 178.486 78.1271C178.421 78.1883 178.358 78.219 178.297 78.219C178.219 78.1973 178.144 78.1577 178.075 78.1001C178.007 78.0389 177.958 77.965 177.928 77.8786C177.921 77.7993 177.915 77.7057 177.91 77.5976C177.904 77.4859 177.901 77.3779 177.899 77.2734C177.896 77.169 177.893 77.0663 177.891 76.9654C177.891 76.8682 177.891 76.7835 177.891 76.7115C177.891 76.2648 177.9 75.8074 177.918 75.3391C177.933 74.8744 177.953 74.3738 177.978 73.837C177.922 74.1828 177.86 74.5521 177.792 74.9447C177.724 75.3373 177.652 75.7263 177.577 76.1117C177.502 76.4972 177.426 76.8646 177.35 77.214C177.273 77.567 177.198 77.8714 177.124 78.1271C177.062 78.1883 177 78.219 176.939 78.219C176.86 78.1973 176.786 78.1577 176.716 78.1001C176.646 78.0389 176.597 77.965 176.567 77.8786ZM182.851 77.2032C182.851 76.9943 182.869 76.7223 182.904 76.3873C182.938 76.0559 182.984 75.7011 183.04 75.3229C182.877 75.3481 182.715 75.3805 182.553 75.4202C182.391 75.4598 182.25 75.4832 182.131 75.4904C182.022 76.0199 181.933 76.5062 181.867 76.9492C181.803 77.3959 181.752 77.8317 181.715 78.2568C181.623 78.2099 181.546 78.1307 181.485 78.019C181.424 77.9038 181.368 77.7615 181.317 77.5922C181.337 77.5093 181.359 77.4049 181.386 77.2788C181.41 77.1527 181.44 77.0015 181.477 76.825C181.512 76.6449 181.552 76.4359 181.598 76.1982C181.643 75.9569 181.694 75.6777 181.752 75.3607C181.672 75.2887 181.618 75.1896 181.592 75.0636C181.604 75.0455 181.632 75.0239 181.673 74.9987C181.717 74.9771 181.77 74.9537 181.833 74.9285L181.88 74.6853C181.933 74.4152 181.975 74.1864 182.008 73.9991C182.042 73.8118 182.07 73.6281 182.092 73.448C182.115 73.2715 182.137 73.0734 182.158 72.8537C182.179 72.6376 182.204 72.3638 182.234 72.0324C182.336 72.072 182.43 72.1657 182.514 72.3134C182.597 72.4575 182.67 72.634 182.731 72.8429C182.71 72.9005 182.683 72.9906 182.65 73.113C182.618 73.2355 182.583 73.3796 182.545 73.5453C182.508 73.7146 182.468 73.9037 182.425 74.1126C182.379 74.3251 182.331 74.5467 182.281 74.7772C182.432 74.7376 182.586 74.6997 182.741 74.6637C182.897 74.6277 183.034 74.6025 183.152 74.5881C183.196 74.3251 183.242 74.0694 183.291 73.8208C183.338 73.5723 183.385 73.3436 183.432 73.1346C183.478 72.9293 183.522 72.7474 183.566 72.5889C183.608 72.434 183.646 72.3188 183.681 72.2431C183.705 72.2467 183.738 72.2666 183.778 72.3026C183.818 72.335 183.859 72.3728 183.901 72.416C183.943 72.4629 183.98 72.5133 184.013 72.5673C184.048 72.6178 184.072 72.6664 184.084 72.7132C184.04 72.7997 183.996 72.9095 183.95 73.0428C183.907 73.1797 183.864 73.3364 183.822 73.5129C183.779 73.6894 183.736 73.8821 183.694 74.091C183.654 74.2963 183.615 74.5106 183.579 74.734C183.628 74.824 183.652 74.9375 183.652 75.0744C183.652 75.168 183.642 75.2563 183.621 75.3391C183.6 75.3283 183.578 75.3211 183.555 75.3175C183.534 75.3139 183.512 75.3103 183.487 75.3067C183.445 75.5804 183.407 75.8506 183.372 76.1172C183.339 76.3837 183.31 76.6377 183.286 76.879C183.263 77.1203 183.245 77.3419 183.231 77.5436C183.219 77.7453 183.212 77.9146 183.212 78.0515C183.212 78.1019 183.212 78.1433 183.212 78.1757C183.214 78.2045 183.216 78.2298 183.218 78.2514C183.165 78.2442 183.127 78.2244 183.102 78.1919C183.078 78.1595 183.06 78.1253 183.048 78.0893C183.035 78.0497 183.024 78.0118 183.013 77.9758C183.003 77.9362 182.987 77.9056 182.966 77.884C182.949 77.8696 182.933 77.8353 182.919 77.7813C182.904 77.7237 182.891 77.6606 182.883 77.5922C182.872 77.5202 182.864 77.4499 182.859 77.3815C182.854 77.3094 182.851 77.25 182.851 77.2032ZM187.243 74.4206C187.323 74.4206 187.386 74.4656 187.432 74.5557C187.477 74.6493 187.5 74.7754 187.5 74.9339C187.5 74.9771 187.497 75.0185 187.492 75.0581C187.488 75.1014 187.485 75.1392 187.481 75.1716C187.448 75.1608 187.412 75.1518 187.374 75.1446C187.336 75.1374 187.289 75.1338 187.235 75.1338C187.131 75.1338 187.024 75.1518 186.916 75.1878C186.808 75.2274 186.705 75.2599 186.607 75.2851C186.551 75.5516 186.501 75.8092 186.455 76.0577C186.408 76.3099 186.368 76.5386 186.335 76.7439C186.302 76.9492 186.276 77.1275 186.259 77.2788C186.24 77.4301 186.229 77.5436 186.228 77.6192C186.425 77.5364 186.625 77.4643 186.827 77.4031C187.028 77.3419 187.24 77.2968 187.463 77.268C187.489 77.3509 187.511 77.4427 187.528 77.5436C187.548 77.6444 187.557 77.7543 187.557 77.8732C187.557 77.902 187.557 77.9344 187.557 77.9704C187.557 78.0064 187.555 78.0407 187.549 78.0731C187.481 78.0695 187.41 78.0659 187.335 78.0623C187.258 78.0623 187.158 78.0623 187.036 78.0623C186.956 78.0623 186.88 78.0659 186.809 78.0731C186.735 78.0803 186.662 78.0911 186.589 78.1055C186.515 78.1199 186.438 78.1397 186.356 78.1649C186.276 78.1901 186.184 78.2208 186.081 78.2568C185.968 78.1667 185.859 77.9452 185.754 77.5922C185.796 77.4085 185.854 77.1311 185.929 76.7601C186.002 76.3927 186.097 75.8974 186.212 75.2743C186.102 75.2058 186.03 75.0798 185.997 74.8961C186.009 74.8708 186.044 74.8402 186.102 74.8042C186.161 74.7646 186.234 74.725 186.319 74.6853C186.356 74.4908 186.386 74.3197 186.411 74.172C186.437 74.0244 186.46 73.8875 186.479 73.7614C186.5 73.6317 186.518 73.5057 186.534 73.3832C186.55 73.2571 186.564 73.122 186.578 72.978C186.493 72.9672 186.426 72.9185 186.377 72.8321C186.328 72.742 186.303 72.6268 186.303 72.4863C186.303 72.4467 186.307 72.398 186.314 72.3404C186.319 72.2864 186.325 72.2395 186.332 72.1999C186.381 72.2143 186.428 72.2233 186.474 72.2269C186.519 72.2341 186.578 72.2377 186.652 72.2377C186.805 72.2377 186.949 72.2287 187.083 72.2107C187.218 72.1927 187.34 72.1729 187.45 72.1513C187.558 72.1333 187.651 72.1153 187.73 72.0973C187.808 72.0792 187.868 72.0702 187.908 72.0702C187.965 72.0702 188.016 72.1297 188.06 72.2485C188.103 72.371 188.136 72.5439 188.159 72.7672C188.082 72.7492 188.02 72.7384 187.973 72.7348C187.926 72.7312 187.884 72.7294 187.848 72.7294C187.713 72.7294 187.59 72.742 187.479 72.7672C187.367 72.7961 187.26 72.8249 187.157 72.8537C187.143 72.9005 187.126 72.9599 187.107 73.032C187.09 73.1004 187.066 73.1977 187.036 73.3238C187.007 73.4498 186.971 73.6083 186.929 73.7992C186.885 73.9937 186.833 74.2333 186.772 74.5178C186.866 74.489 186.953 74.4656 187.034 74.4476C187.116 74.4296 187.186 74.4206 187.243 74.4206ZM192.284 73.475C192.284 73.7164 192.258 73.9451 192.206 74.1612C192.153 74.3738 192.081 74.5647 191.988 74.734C191.894 74.9033 191.785 75.0455 191.661 75.1608C191.537 75.2797 191.402 75.3589 191.255 75.3985C191.292 75.6255 191.337 75.8578 191.389 76.0955C191.441 76.3369 191.498 76.5674 191.559 76.7871C191.62 77.0105 191.684 77.2158 191.75 77.4031C191.815 77.5904 191.879 77.7435 191.944 77.8624C191.932 77.9128 191.913 77.9632 191.889 78.0136C191.866 78.0641 191.84 78.1109 191.81 78.1541C191.779 78.1973 191.747 78.2334 191.713 78.2622C191.68 78.2874 191.65 78.3 191.622 78.3C191.568 78.3 191.516 78.2478 191.467 78.1433C191.419 78.0389 191.369 77.8714 191.318 77.6408C191.268 77.4103 191.215 77.1131 191.161 76.7493C191.105 76.3819 191.045 75.9407 190.981 75.4256C190.953 75.4256 190.926 75.4256 190.9 75.4256C190.872 75.4256 190.851 75.422 190.837 75.4148C190.819 75.3931 190.801 75.3571 190.782 75.3067C190.715 75.5985 190.657 75.874 190.606 76.1334C190.554 76.3891 190.508 76.6377 190.468 76.879C190.428 77.1167 190.393 77.3473 190.363 77.5706C190.332 77.7975 190.305 78.0262 190.284 78.2568C190.201 78.2172 190.128 78.1433 190.067 78.0352C190.006 77.9308 189.949 77.7831 189.894 77.5922C189.905 77.5454 189.915 77.5003 189.926 77.4571C189.936 77.4139 189.95 77.3545 189.968 77.2788C189.985 77.1996 190.007 77.0987 190.033 76.9762C190.058 76.8574 190.092 76.6971 190.135 76.4954C190.177 76.2937 190.229 76.0469 190.29 75.7551C190.349 75.4598 190.421 75.1032 190.507 74.6853C190.545 74.498 190.578 74.3341 190.606 74.1937C190.636 74.0532 190.661 73.9181 190.682 73.7884C190.705 73.6623 190.725 73.5345 190.742 73.4048C190.762 73.2751 190.781 73.1274 190.8 72.9617C190.688 73.041 190.584 73.131 190.486 73.2319C190.39 73.3292 190.311 73.4336 190.248 73.5453C190.225 73.5129 190.202 73.4678 190.18 73.4102C190.155 73.349 190.133 73.2805 190.114 73.2049C190.095 73.1328 190.079 73.059 190.065 72.9834C190.049 72.9077 190.04 72.8393 190.038 72.778C190.112 72.6772 190.202 72.5853 190.308 72.5025C190.414 72.416 190.527 72.3404 190.646 72.2756C190.766 72.2143 190.888 72.1657 191.012 72.1297C191.138 72.0937 191.254 72.0756 191.36 72.0756C191.653 72.0756 191.881 72.1999 192.043 72.4485C192.204 72.7006 192.284 73.0428 192.284 73.475ZM191.347 72.697L191.389 72.8429C191.373 72.8861 191.347 72.9762 191.31 73.113C191.274 73.2499 191.231 73.412 191.182 73.5993C191.135 73.7902 191.085 73.9955 191.033 74.2153C190.981 74.4386 190.93 74.6583 190.881 74.8744C191.064 74.8744 191.233 74.8402 191.386 74.7718C191.54 74.6997 191.673 74.5989 191.787 74.4692C191.898 74.3431 191.986 74.1919 192.049 74.0154C192.11 73.8425 192.14 73.6497 192.14 73.4372C192.14 73.1851 192.096 72.9924 192.009 72.8591C191.922 72.7258 191.787 72.6592 191.604 72.6592C191.562 72.6592 191.52 72.6628 191.478 72.67C191.436 72.6772 191.392 72.6862 191.347 72.697ZM195.639 74.4206C195.722 74.4206 195.784 74.4656 195.828 74.5557C195.873 74.6493 195.896 74.7754 195.896 74.9339C195.896 74.9771 195.894 75.0185 195.891 75.0581C195.887 75.1014 195.883 75.1392 195.878 75.1716C195.846 75.1608 195.811 75.1518 195.773 75.1446C195.733 75.1374 195.687 75.1338 195.634 75.1338C195.528 75.1338 195.421 75.1518 195.315 75.1878C195.207 75.2274 195.104 75.2599 195.006 75.2851C194.95 75.5516 194.899 75.8092 194.852 76.0577C194.806 76.3099 194.767 76.5386 194.734 76.7439C194.701 76.9492 194.675 77.1275 194.655 77.2788C194.638 77.4301 194.628 77.5436 194.627 77.6192C194.824 77.5364 195.023 77.4643 195.223 77.4031C195.426 77.3419 195.638 77.2968 195.859 77.268C195.887 77.3509 195.91 77.4427 195.927 77.5436C195.947 77.6444 195.956 77.7543 195.956 77.8732C195.956 77.902 195.956 77.9344 195.956 77.9704C195.956 78.0064 195.954 78.0407 195.948 78.0731C195.88 78.0695 195.808 78.0659 195.731 78.0623C195.656 78.0623 195.557 78.0623 195.435 78.0623C195.355 78.0623 195.278 78.0659 195.205 78.0731C195.133 78.0803 195.061 78.0911 194.988 78.1055C194.914 78.1199 194.837 78.1397 194.755 78.1649C194.673 78.1901 194.581 78.2208 194.48 78.2568C194.367 78.1667 194.258 77.9452 194.153 77.5922C194.195 77.4085 194.252 77.1311 194.326 76.7601C194.401 76.3927 194.496 75.8974 194.611 75.2743C194.501 75.2058 194.429 75.0798 194.394 74.8961C194.406 74.8708 194.442 74.8402 194.501 74.8042C194.56 74.7646 194.633 74.725 194.718 74.6853C194.755 74.4908 194.785 74.3197 194.81 74.172C194.836 74.0244 194.859 73.8875 194.878 73.7614C194.897 73.6317 194.914 73.5057 194.93 73.3832C194.948 73.2571 194.963 73.122 194.977 72.978C194.892 72.9672 194.825 72.9185 194.776 72.8321C194.727 72.742 194.702 72.6268 194.702 72.4863C194.702 72.4467 194.705 72.398 194.71 72.3404C194.717 72.2864 194.724 72.2395 194.731 72.1999C194.78 72.2143 194.827 72.2233 194.873 72.2269C194.918 72.2341 194.977 72.2377 195.051 72.2377C195.204 72.2377 195.348 72.2287 195.482 72.2107C195.617 72.1927 195.738 72.1729 195.846 72.1513C195.956 72.1333 196.05 72.1153 196.129 72.0973C196.206 72.0792 196.265 72.0702 196.307 72.0702C196.363 72.0702 196.413 72.1297 196.459 72.2485C196.502 72.371 196.535 72.5439 196.556 72.7672C196.481 72.7492 196.419 72.7384 196.372 72.7348C196.323 72.7312 196.281 72.7294 196.244 72.7294C196.11 72.7294 195.988 72.742 195.878 72.7672C195.766 72.7961 195.659 72.8249 195.556 72.8537C195.542 72.9005 195.525 72.9599 195.506 73.032C195.489 73.1004 195.465 73.1977 195.435 73.3238C195.406 73.4498 195.37 73.6083 195.328 73.7992C195.284 73.9937 195.232 74.2333 195.171 74.5178C195.263 74.489 195.351 74.4656 195.433 74.4476C195.515 74.4296 195.584 74.4206 195.639 74.4206ZM201.06 78.219C200.943 78.1469 200.862 78.0767 200.817 78.0082C200.771 77.9362 200.749 77.8479 200.749 77.7435C200.749 77.6606 200.76 77.5472 200.783 77.4031C200.803 77.2554 200.836 77.0825 200.879 76.8844C200.921 76.6863 200.972 76.4648 201.031 76.2198C201.092 75.9785 201.16 75.7191 201.235 75.4418C201.173 75.4382 201.116 75.4346 201.065 75.431C201.015 75.4274 200.974 75.4256 200.942 75.4256C200.958 75.3499 201 75.2851 201.068 75.231C201.136 75.177 201.226 75.1284 201.337 75.0852C201.433 74.7574 201.535 74.4458 201.644 74.1504C201.754 73.8515 201.863 73.5777 201.973 73.3292C202.083 73.0806 202.193 72.8609 202.303 72.67C202.413 72.4827 202.518 72.3332 202.617 72.2215C202.619 72.1855 202.621 72.1549 202.623 72.1297C202.624 72.1045 202.625 72.0864 202.625 72.0756C202.658 72.0756 202.704 72.0937 202.761 72.1297C202.819 72.1657 202.876 72.2089 202.931 72.2593C202.985 72.3098 203.034 72.3602 203.078 72.4106C203.12 72.4647 203.143 72.5097 203.149 72.5457C203.068 72.8375 202.989 73.2751 202.91 73.8587C202.832 74.4422 202.767 75.1392 202.717 75.9497C202.705 76.1514 202.694 76.3801 202.685 76.6358C202.677 76.8952 202.672 77.1834 202.672 77.5003C202.672 77.612 202.672 77.7255 202.672 77.8407C202.672 77.956 202.675 78.0767 202.68 78.2027C202.675 78.2099 202.67 78.2136 202.664 78.2136C202.659 78.2136 202.65 78.2136 202.636 78.2136C202.601 78.2136 202.561 78.2009 202.515 78.1757C202.472 78.1541 202.428 78.1271 202.384 78.0947C202.342 78.0623 202.306 78.0262 202.274 77.9866C202.245 77.9434 202.226 77.9074 202.217 77.8786C202.215 77.8137 202.214 77.7489 202.214 77.684C202.214 77.6228 202.214 77.5562 202.214 77.4841C202.214 77.1708 202.219 76.8538 202.23 76.5332C202.242 76.209 202.261 75.8758 202.288 75.5336C202.253 75.53 202.207 75.5228 202.151 75.512C202.096 75.5048 202.033 75.4994 201.963 75.4958C201.893 75.4922 201.819 75.485 201.74 75.4742C201.66 75.467 201.583 75.4616 201.508 75.458C201.448 75.6849 201.393 75.91 201.343 76.1334C201.29 76.3603 201.246 76.5872 201.209 76.8142C201.169 77.0555 201.136 77.2968 201.11 77.5382C201.084 77.7795 201.067 78.0064 201.06 78.219ZM202.473 73.675C202.484 73.6029 202.496 73.5057 202.51 73.3832C202.522 73.2571 202.534 73.1274 202.547 72.9942C202.486 73.0374 202.418 73.1202 202.345 73.2427C202.27 73.3616 202.192 73.5111 202.112 73.6912C202.034 73.8713 201.953 74.073 201.871 74.2963C201.789 74.5196 201.711 74.7574 201.636 75.0095C201.84 74.9771 202.073 74.9555 202.335 74.9447C202.354 74.7322 202.376 74.5214 202.4 74.3125C202.423 74.1036 202.447 73.8911 202.473 73.675ZM205.405 78.219C205.267 78.1325 205.174 78.0515 205.125 77.9758C205.076 77.8966 205.051 77.7885 205.051 77.6516C205.051 77.5003 205.068 77.2878 205.101 77.0141C205.136 76.7367 205.181 76.4305 205.235 76.0955C205.29 75.7569 205.353 75.4039 205.423 75.0365C205.495 74.6655 205.567 74.3125 205.64 73.9775C205.714 73.6389 205.785 73.3292 205.855 73.0482C205.925 72.7672 205.987 72.5493 206.041 72.3944L206.015 72.0756C206.048 72.0756 206.095 72.0937 206.156 72.1297C206.217 72.1657 206.279 72.2089 206.342 72.2593C206.405 72.3098 206.46 72.3602 206.507 72.4106C206.554 72.4647 206.58 72.5097 206.585 72.5457C206.573 72.6682 206.563 72.8519 206.556 73.0968C206.549 73.3382 206.546 73.5975 206.546 73.8749C206.546 74.426 206.556 74.9645 206.577 75.4904C206.598 76.0199 206.646 76.5566 206.721 77.1005C206.76 76.6971 206.802 76.2955 206.847 75.8956C206.892 75.4922 206.939 75.1086 206.988 74.7448C207.037 74.3774 207.086 74.037 207.135 73.7236C207.184 73.4138 207.231 73.1401 207.276 72.9023C207.322 72.6682 207.363 72.4845 207.402 72.3512C207.442 72.2179 207.478 72.1459 207.509 72.1351C207.535 72.1459 207.565 72.1675 207.598 72.1999C207.629 72.2323 207.66 72.272 207.69 72.3188C207.718 72.3656 207.744 72.416 207.768 72.4701C207.793 72.5241 207.813 72.5799 207.828 72.6376C207.75 72.7024 207.672 72.8555 207.595 73.0968C207.519 73.3382 207.445 73.6317 207.376 73.9775C207.306 74.3233 207.241 74.6979 207.182 75.1014C207.121 75.5048 207.068 75.9028 207.022 76.2955C206.979 76.6845 206.944 77.0465 206.918 77.3815C206.891 77.7129 206.877 77.9794 206.876 78.1811C206.876 78.1919 206.877 78.1991 206.878 78.2027C206.871 78.2099 206.863 78.2136 206.855 78.2136C206.846 78.2136 206.838 78.2136 206.831 78.2136C206.72 78.2136 206.62 78.1847 206.533 78.1271C206.446 78.0659 206.389 77.983 206.363 77.8786C206.31 77.4535 206.268 77.0447 206.234 76.6521C206.2 76.2594 206.171 75.8668 206.148 75.4742C206.125 75.0816 206.107 74.6835 206.093 74.2801C206.079 73.8803 206.069 73.4606 206.062 73.0212C206.015 73.1725 205.966 73.3706 205.915 73.6155C205.865 73.8605 205.815 74.1288 205.766 74.4206C205.717 74.7123 205.67 75.0203 205.625 75.3445C205.579 75.6687 205.539 75.9839 205.504 76.2901C205.471 76.5962 205.444 76.888 205.423 77.1654C205.404 77.4391 205.394 77.6768 205.394 77.8786C205.394 77.983 205.395 78.0587 205.397 78.1055C205.399 78.1523 205.401 78.1901 205.405 78.219ZM209.661 77.2518C209.697 77.0861 209.741 76.8718 209.791 76.6088C209.844 76.3459 209.898 76.0613 209.954 75.7551C210.01 75.4526 210.067 75.141 210.126 74.8204C210.184 74.4998 210.239 74.1955 210.291 73.9073C210.342 73.6191 210.386 73.3616 210.425 73.1346C210.461 72.9077 210.488 72.7348 210.506 72.616C210.352 72.7456 210.221 72.9437 210.111 73.2103C210.001 73.4768 209.918 73.8118 209.862 74.2153C209.806 74.1756 209.755 74.1036 209.708 73.9991C209.661 73.8983 209.63 73.7686 209.616 73.6101C209.64 73.3796 209.686 73.1689 209.752 72.978C209.82 72.787 209.906 72.6232 210.009 72.4863C210.112 72.3494 210.23 72.2449 210.365 72.1729C210.499 72.0973 210.643 72.0594 210.796 72.0594C210.992 72.0594 211.172 72.1189 211.336 72.2377C211.498 72.3566 211.638 72.5223 211.757 72.7348C211.874 72.9473 211.966 73.2013 212.032 73.4967C212.096 73.7956 212.129 74.127 212.129 74.4908C212.129 74.9843 212.085 75.4562 211.998 75.9064C211.911 76.3531 211.791 76.7475 211.639 77.0897C211.489 77.4355 211.316 77.7093 211.118 77.911C210.921 78.1163 210.714 78.219 210.495 78.219C210.295 78.219 210.123 78.1379 209.98 77.9758C209.837 77.8101 209.73 77.5688 209.661 77.2518ZM210.953 72.4377C210.831 72.4377 210.715 72.4737 210.605 72.5457C210.714 72.625 210.803 72.7096 210.872 72.7997C210.944 72.8861 210.993 72.9545 211.019 73.005C211 73.0626 210.971 73.1617 210.933 73.3021C210.896 73.4426 210.852 73.6137 210.802 73.8154C210.751 74.0172 210.698 74.2387 210.642 74.48C210.586 74.7178 210.531 74.9627 210.477 75.2148C210.338 75.856 210.236 76.3603 210.174 76.7277C210.112 77.0951 210.082 77.3509 210.082 77.4949C210.115 77.5202 210.156 77.5364 210.205 77.5436C210.254 77.5544 210.307 77.5598 210.365 77.5598C210.562 77.5598 210.748 77.4661 210.925 77.2788C211.103 77.0879 211.258 76.834 211.391 76.517C211.525 76.2 211.631 75.8308 211.707 75.4093C211.784 74.9879 211.822 74.5449 211.822 74.0802C211.822 73.5615 211.744 73.1581 211.587 72.8699C211.432 72.5817 211.22 72.4377 210.953 72.4377ZM216.965 78.219C216.849 78.1469 216.767 78.0767 216.722 78.0082C216.677 77.9362 216.654 77.8479 216.654 77.7435C216.654 77.6606 216.665 77.5472 216.688 77.4031C216.711 77.2554 216.743 77.0825 216.785 76.8844C216.829 76.6863 216.88 76.4648 216.939 76.2198C216.999 75.9785 217.067 75.7191 217.143 75.4418C217.079 75.4382 217.021 75.4346 216.971 75.431C216.922 75.4274 216.882 75.4256 216.85 75.4256C216.864 75.3499 216.905 75.2851 216.973 75.231C217.041 75.177 217.132 75.1284 217.246 75.0852C217.34 74.7574 217.442 74.4458 217.552 74.1504C217.66 73.8515 217.769 73.5777 217.879 73.3292C217.989 73.0806 218.099 72.8609 218.209 72.67C218.319 72.4827 218.423 72.3332 218.523 72.2215C218.526 72.1855 218.528 72.1549 218.528 72.1297C218.53 72.1045 218.531 72.0864 218.531 72.0756C218.566 72.0756 218.612 72.0937 218.669 72.1297C218.727 72.1657 218.783 72.2089 218.837 72.2593C218.893 72.3098 218.942 72.3602 218.983 72.4106C219.027 72.4647 219.051 72.5097 219.054 72.5457C218.974 72.8375 218.894 73.2751 218.816 73.8587C218.739 74.4422 218.675 75.1392 218.622 75.9497C218.61 76.1514 218.6 76.3801 218.591 76.6358C218.582 76.8952 218.578 77.1834 218.578 77.5003C218.578 77.612 218.578 77.7255 218.578 77.8407C218.578 77.956 218.58 78.0767 218.586 78.2027C218.58 78.2099 218.576 78.2136 218.573 78.2136C218.567 78.2136 218.557 78.2136 218.541 78.2136C218.508 78.2136 218.469 78.2009 218.423 78.1757C218.378 78.1541 218.333 78.1271 218.29 78.0947C218.248 78.0623 218.211 78.0262 218.18 77.9866C218.15 77.9434 218.132 77.9074 218.125 77.8786C218.121 77.8137 218.12 77.7489 218.12 77.684C218.12 77.6228 218.12 77.5562 218.12 77.4841C218.12 77.1708 218.126 76.8538 218.138 76.5332C218.149 76.209 218.167 75.8758 218.193 75.5336C218.16 75.53 218.115 75.5228 218.06 75.512C218.002 75.5048 217.938 75.4994 217.868 75.4958C217.8 75.4922 217.726 75.485 217.646 75.4742C217.567 75.467 217.49 75.4616 217.413 75.458C217.355 75.6849 217.301 75.91 217.248 76.1334C217.198 76.3603 217.154 76.5872 217.117 76.8142C217.075 77.0555 217.041 77.2968 217.015 77.5382C216.991 77.7795 216.974 78.0064 216.965 78.219ZM218.381 73.675C218.39 73.6029 218.402 73.5057 218.415 73.3832C218.429 73.2571 218.443 73.1274 218.455 72.9942C218.394 73.0374 218.326 73.1202 218.251 73.2427C218.176 73.3616 218.099 73.5111 218.02 73.6912C217.94 73.8713 217.859 74.073 217.777 74.2963C217.697 74.5196 217.618 74.7574 217.541 75.0095C217.747 74.9771 217.981 74.9555 218.243 74.9447C218.262 74.7322 218.283 74.5214 218.306 74.3125C218.328 74.1036 218.354 73.8911 218.381 73.675ZM221.313 78.219C221.173 78.1325 221.079 78.0515 221.03 77.9758C220.981 77.8966 220.957 77.7885 220.957 77.6516C220.957 77.5003 220.974 77.2878 221.009 77.0141C221.042 76.7367 221.087 76.4305 221.143 76.0955C221.197 75.7569 221.26 75.4039 221.331 75.0365C221.401 74.6655 221.473 74.3125 221.546 73.9775C221.619 73.6389 221.691 73.3292 221.76 73.0482C221.83 72.7672 221.892 72.5493 221.946 72.3944L221.92 72.0756C221.955 72.0756 222.003 72.0937 222.064 72.1297C222.125 72.1657 222.186 72.2089 222.247 72.2593C222.31 72.3098 222.365 72.3602 222.412 72.4106C222.461 72.4647 222.488 72.5097 222.493 72.5457C222.481 72.6682 222.471 72.8519 222.462 73.0968C222.455 73.3382 222.451 73.5975 222.451 73.8749C222.451 74.426 222.462 74.9645 222.483 75.4904C222.504 76.0199 222.552 76.5566 222.627 77.1005C222.667 76.6971 222.71 76.2955 222.755 75.8956C222.8 75.4922 222.848 75.1086 222.896 74.7448C222.945 74.3774 222.994 74.037 223.043 73.7236C223.092 73.4138 223.138 73.1401 223.182 72.9023C223.227 72.6682 223.27 72.4845 223.31 72.3512C223.348 72.2179 223.383 72.1459 223.415 72.1351C223.443 72.1459 223.472 72.1675 223.504 72.1999C223.535 72.2323 223.566 72.272 223.595 72.3188C223.625 72.3656 223.652 72.416 223.676 72.4701C223.701 72.5241 223.72 72.5799 223.734 72.6376C223.655 72.7024 223.578 72.8555 223.501 73.0968C223.424 73.3382 223.351 73.6317 223.281 73.9775C223.211 74.3233 223.147 74.6979 223.087 75.1014C223.028 75.5048 222.976 75.9028 222.93 76.2955C222.885 76.6845 222.849 77.0465 222.823 77.3815C222.799 77.7129 222.785 77.9794 222.781 78.1811C222.781 78.1919 222.783 78.1991 222.786 78.2027C222.778 78.2099 222.769 78.2136 222.76 78.2136C222.753 78.2136 222.745 78.2136 222.737 78.2136C222.625 78.2136 222.526 78.1847 222.438 78.1271C222.353 78.0659 222.296 77.983 222.268 77.8786C222.218 77.4535 222.175 77.0447 222.14 76.6521C222.107 76.2594 222.078 75.8668 222.054 75.4742C222.031 75.0816 222.013 74.6835 221.999 74.2801C221.986 73.8803 221.976 73.4606 221.967 73.0212C221.922 73.1725 221.873 73.3706 221.821 73.6155C221.77 73.8605 221.72 74.1288 221.671 74.4206C221.623 74.7123 221.575 75.0203 221.53 75.3445C221.485 75.6687 221.446 75.9839 221.412 76.2901C221.377 76.5962 221.35 76.888 221.331 77.1654C221.312 77.4391 221.302 77.6768 221.302 77.8786C221.302 77.983 221.302 78.0587 221.302 78.1055C221.304 78.1523 221.308 78.1901 221.313 78.219ZM226.673 75.0365C226.856 74.6223 227.02 74.1828 227.165 73.7182C227.312 73.2535 227.447 72.7312 227.571 72.1513C227.634 72.1657 227.695 72.2017 227.754 72.2593C227.813 72.3134 227.86 72.3764 227.893 72.4485C227.758 72.7798 227.637 73.0824 227.529 73.3562C227.421 73.6263 227.321 73.8821 227.231 74.1234C227.14 74.3611 227.056 74.5899 226.979 74.8096C226.903 75.0293 226.828 75.2509 226.754 75.4742C226.718 75.7299 226.684 75.9893 226.652 76.2522C226.619 76.5152 226.59 76.7655 226.566 77.0033C226.541 77.2446 226.523 77.4661 226.511 77.6678C226.497 77.8732 226.49 78.0497 226.49 78.1973C226.464 78.1973 226.421 78.1865 226.362 78.1649C226.302 78.1397 226.242 78.1127 226.181 78.0839C226.12 78.0515 226.065 78.0208 226.016 77.992C225.966 77.9632 225.935 77.938 225.925 77.9164C225.965 77.7795 226.003 77.612 226.04 77.4139C226.078 77.2158 226.116 77.0069 226.152 76.7871C226.189 76.5674 226.225 76.3459 226.26 76.1226C226.293 75.8956 226.324 75.6867 226.354 75.4958C226.293 75.1032 226.233 74.734 226.176 74.3882C226.118 74.0424 226.063 73.729 226.011 73.448C225.957 73.1707 225.905 72.9311 225.857 72.7294C225.808 72.5277 225.761 72.3728 225.718 72.2648C225.742 72.2467 225.779 72.2269 225.828 72.2053C225.878 72.1837 225.933 72.1639 225.993 72.1459C226.054 72.1243 226.115 72.1081 226.176 72.0973C226.239 72.0828 226.295 72.0738 226.343 72.0702C226.343 72.1963 226.349 72.3494 226.359 72.5295C226.371 72.7132 226.386 72.9077 226.404 73.113C226.423 73.3184 226.445 73.5273 226.469 73.7398C226.493 73.9523 226.518 74.1468 226.542 74.3233C226.567 74.4998 226.59 74.6529 226.613 74.7826C226.636 74.9087 226.656 74.9933 226.673 75.0365ZM230.125 73.059C230.028 73.059 229.953 73.0032 229.9 72.8915C229.848 72.7762 229.822 72.6376 229.822 72.4755C229.822 72.4358 229.824 72.389 229.83 72.335C229.837 72.2774 229.845 72.2287 229.853 72.1891C229.885 72.2215 229.932 72.2431 229.995 72.2539C230.057 72.2684 230.13 72.2756 230.212 72.2756C230.337 72.2756 230.479 72.263 230.636 72.2377C230.793 72.2161 230.944 72.1927 231.089 72.1675C231.233 72.1423 231.361 72.1189 231.471 72.0973C231.581 72.072 231.651 72.0594 231.683 72.0594C231.773 72.0594 231.839 72.1297 231.879 72.2702C231.919 72.407 231.949 72.5925 231.968 72.8267C231.905 72.8159 231.842 72.8069 231.78 72.7997C231.717 72.7925 231.664 72.7889 231.62 72.7889C231.541 72.7889 231.463 72.7943 231.384 72.8051C231.304 72.8123 231.224 72.8267 231.144 72.8483C231.109 72.996 231.071 73.1689 231.031 73.367C230.989 73.5651 230.948 73.7722 230.908 73.9883C230.868 74.2081 230.829 74.4242 230.793 74.6367C230.756 74.8528 230.724 75.0455 230.696 75.2148C230.642 75.5498 230.595 75.8578 230.555 76.1388C230.515 76.4197 230.48 76.6827 230.45 76.9276C230.419 77.1726 230.392 77.4067 230.371 77.63C230.349 77.8497 230.329 78.0659 230.311 78.2784C230.147 78.228 230.01 78.0172 229.9 77.6462C229.921 77.4877 229.946 77.3166 229.974 77.1329C230.002 76.9492 230.034 76.7403 230.07 76.5062C230.109 76.272 230.154 76.0055 230.207 75.7065C230.257 75.4111 230.316 75.0744 230.382 74.6961C230.406 74.5521 230.432 74.4044 230.458 74.2531C230.486 74.0982 230.512 73.9451 230.536 73.7938C230.563 73.6425 230.586 73.4967 230.607 73.3562C230.628 73.2157 230.645 73.086 230.659 72.9672C230.556 72.9924 230.46 73.014 230.369 73.032C230.276 73.05 230.195 73.059 230.125 73.059ZM233.497 77.214C233.497 77.0303 233.511 76.7943 233.538 76.5062C233.566 76.2144 233.603 75.901 233.648 75.566C233.694 75.231 233.745 74.8889 233.803 74.5395C233.862 74.1901 233.922 73.8605 233.983 73.5507C234.044 73.2445 234.105 72.9744 234.164 72.7402C234.222 72.5097 234.274 72.344 234.321 72.2431C234.345 72.2467 234.378 72.2666 234.418 72.3026C234.458 72.335 234.499 72.3728 234.541 72.416C234.583 72.4629 234.62 72.5133 234.653 72.5673C234.688 72.6178 234.71 72.6664 234.719 72.7132C234.649 72.8429 234.579 73.041 234.509 73.3075C234.44 73.5705 234.372 73.8713 234.308 74.2099C234.243 74.5485 234.183 74.9051 234.127 75.2797C234.07 75.6543 234.021 76.0181 233.981 76.3711C233.939 76.7241 233.906 77.0519 233.881 77.3545C233.859 77.657 233.847 77.902 233.847 78.0893C233.847 78.1757 233.851 78.2298 233.858 78.2514C233.805 78.2442 233.767 78.2244 233.743 78.1919C233.718 78.1595 233.699 78.1253 233.685 78.0893C233.671 78.0497 233.659 78.0118 233.648 77.9758C233.638 77.9362 233.621 77.9056 233.599 77.884C233.581 77.8696 233.566 77.8353 233.554 77.7813C233.542 77.7237 233.531 77.6624 233.523 77.5976C233.514 77.5292 233.508 77.4589 233.504 77.3869C233.499 77.3148 233.497 77.2572 233.497 77.214ZM237.886 78.2027C237.881 78.2099 237.875 78.2136 237.87 78.2136C237.867 78.2136 237.857 78.2136 237.841 78.2136C237.808 78.2136 237.769 78.2009 237.724 78.1757C237.678 78.1541 237.634 78.1271 237.59 78.0947C237.548 78.0623 237.512 78.0262 237.48 77.9866C237.45 77.9434 237.432 77.9074 237.425 77.8786C237.422 77.8065 237.42 77.7327 237.42 77.657C237.42 77.5814 237.42 77.5093 237.42 77.4409C237.42 76.8754 237.44 76.2846 237.48 75.6687C237.52 75.0527 237.587 74.3882 237.682 73.675C237.69 73.6029 237.7 73.5129 237.71 73.4048C237.723 73.2967 237.735 73.1797 237.747 73.0536C237.688 73.1473 237.618 73.3003 237.538 73.5129C237.457 73.7218 237.373 73.9685 237.284 74.2531C237.195 74.5376 237.105 74.8492 237.014 75.1878C236.925 75.53 236.844 75.8758 236.771 76.2252C236.698 76.5746 236.635 76.9222 236.582 77.268C236.53 77.6102 236.498 77.9272 236.486 78.219C236.369 78.1469 236.287 78.0767 236.242 78.0082C236.197 77.9362 236.174 77.8497 236.174 77.7489C236.174 77.6588 236.188 77.531 236.216 77.3653C236.242 77.1996 236.28 77.0033 236.329 76.7763C236.377 76.5494 236.438 76.2955 236.509 76.0145C236.579 75.7335 236.657 75.4328 236.742 75.1122C236.84 74.7412 236.936 74.3954 237.03 74.0748C237.124 73.7506 237.217 73.457 237.307 73.1941C237.398 72.9347 237.486 72.7078 237.572 72.5133C237.659 72.3224 237.745 72.1765 237.831 72.0756C237.866 72.0756 237.911 72.0937 237.967 72.1297C238.025 72.1657 238.081 72.2089 238.137 72.2593C238.191 72.3098 238.24 72.3602 238.284 72.4106C238.326 72.4647 238.349 72.5097 238.354 72.5457C238.321 72.6862 238.281 72.8987 238.234 73.1833C238.187 73.4642 238.14 73.783 238.093 74.1396C238.045 74.4998 238 74.8798 237.956 75.2797C237.915 75.6795 237.881 76.0649 237.857 76.4359C237.913 76.1586 237.978 75.8686 238.053 75.566C238.127 75.2671 238.205 74.9699 238.289 74.6745C238.373 74.3792 238.457 74.0928 238.543 73.8154C238.63 73.5381 238.716 73.2859 238.799 73.059C238.881 72.8285 238.958 72.6268 239.03 72.4539C239.103 72.2846 239.167 72.1585 239.223 72.0756C239.258 72.0756 239.304 72.0937 239.359 72.1297C239.417 72.1657 239.474 72.2089 239.529 72.2593C239.584 72.3098 239.632 72.3602 239.676 72.4106C239.718 72.4647 239.742 72.5097 239.747 72.5457C239.668 72.8339 239.6 73.1851 239.543 73.5993C239.483 74.0099 239.434 74.4422 239.393 74.8961C239.353 75.3499 239.323 75.8002 239.302 76.2468C239.281 76.6935 239.27 77.0933 239.27 77.4463C239.27 77.5616 239.27 77.6822 239.27 77.8083C239.27 77.9344 239.273 78.0659 239.278 78.2027C239.243 78.2027 239.202 78.1937 239.155 78.1757C239.108 78.1577 239.062 78.1343 239.017 78.1055C238.971 78.0767 238.93 78.0425 238.893 78.0028C238.857 77.9668 238.832 77.9254 238.818 77.8786C238.814 77.8065 238.812 77.7327 238.812 77.657C238.812 77.5814 238.812 77.5093 238.812 77.4409C238.812 76.8754 238.832 76.2846 238.873 75.6687C238.913 75.0527 238.98 74.3882 239.074 73.675C239.083 73.6029 239.093 73.5057 239.105 73.3832C239.118 73.2643 239.13 73.1383 239.142 73.005C239.074 73.077 238.996 73.2121 238.909 73.4102C238.824 73.6119 238.736 73.8551 238.645 74.1396C238.556 74.4242 238.469 74.7394 238.383 75.0852C238.296 75.4346 238.217 75.7894 238.148 76.1496C238.078 76.5098 238.019 76.8682 237.972 77.2248C237.925 77.5814 237.896 77.9074 237.886 78.2027ZM243.136 74.4206C243.216 74.4206 243.279 74.4656 243.325 74.5557C243.37 74.6493 243.393 74.7754 243.393 74.9339C243.393 74.9771 243.391 75.0185 243.387 75.0581C243.384 75.1014 243.38 75.1392 243.374 75.1716C243.343 75.1608 243.308 75.1518 243.27 75.1446C243.23 75.1374 243.182 75.1338 243.128 75.1338C243.024 75.1338 242.918 75.1518 242.812 75.1878C242.703 75.2274 242.601 75.2599 242.503 75.2851C242.447 75.5516 242.395 75.8092 242.348 76.0577C242.303 76.3099 242.264 76.5386 242.231 76.7439C242.197 76.9492 242.171 77.1275 242.152 77.2788C242.135 77.4301 242.124 77.5436 242.121 77.6192C242.32 77.5364 242.519 77.4643 242.72 77.4031C242.922 77.3419 243.134 77.2968 243.356 77.268C243.384 77.3509 243.407 77.4427 243.424 77.5436C243.443 77.6444 243.453 77.7543 243.453 77.8732C243.453 77.902 243.453 77.9344 243.453 77.9704C243.453 78.0064 243.45 78.0407 243.445 78.0731C243.377 78.0695 243.305 78.0659 243.228 78.0623C243.153 78.0623 243.054 78.0623 242.932 78.0623C242.852 78.0623 242.775 78.0659 242.702 78.0731C242.63 78.0803 242.558 78.0911 242.484 78.1055C242.411 78.1199 242.334 78.1397 242.252 78.1649C242.17 78.1901 242.077 78.2208 241.974 78.2568C241.862 78.1667 241.754 77.9452 241.65 77.5922C241.691 77.4085 241.749 77.1311 241.822 76.7601C241.897 76.3927 241.992 75.8974 242.108 75.2743C241.998 75.2058 241.925 75.0798 241.89 74.8961C241.903 74.8708 241.938 74.8402 241.998 74.8042C242.055 74.7646 242.127 74.725 242.212 74.6853C242.249 74.4908 242.28 74.3197 242.306 74.172C242.333 74.0244 242.355 73.8875 242.375 73.7614C242.394 73.6317 242.411 73.5057 242.427 73.3832C242.443 73.2571 242.458 73.122 242.474 72.978C242.388 72.9672 242.321 72.9185 242.272 72.8321C242.224 72.742 242.199 72.6268 242.199 72.4863C242.199 72.4467 242.202 72.398 242.207 72.3404C242.214 72.2864 242.221 72.2395 242.228 72.1999C242.277 72.2143 242.324 72.2233 242.369 72.2269C242.415 72.2341 242.474 72.2377 242.547 72.2377C242.701 72.2377 242.845 72.2287 242.979 72.2107C243.113 72.1927 243.235 72.1729 243.343 72.1513C243.453 72.1333 243.546 72.1153 243.623 72.0973C243.702 72.0792 243.762 72.0702 243.804 72.0702C243.859 72.0702 243.909 72.1297 243.953 72.2485C243.998 72.371 244.031 72.5439 244.052 72.7672C243.977 72.7492 243.915 72.7384 243.866 72.7348C243.819 72.7312 243.777 72.7294 243.741 72.7294C243.606 72.7294 243.483 72.742 243.372 72.7672C243.262 72.7961 243.155 72.8249 243.052 72.8537C243.038 72.9005 243.022 72.9599 243.003 73.032C242.985 73.1004 242.962 73.1977 242.932 73.3238C242.902 73.4498 242.866 73.6083 242.822 73.7992C242.78 73.9937 242.729 74.2333 242.668 74.5178C242.76 74.489 242.847 74.4656 242.929 74.4476C243.011 74.4296 243.08 74.4206 243.136 74.4206Z" fill="#212529"/>
<defs>
<linearGradient id="paint0_linear" x1="20.8838" y1="64.2805" x2="48.9572" y2="77.3714" gradientUnits="userSpaceOnUse">
<stop stop-color="#EB4C00"/>
<stop offset="1" stop-color="#F2A900"/>
</linearGradient>
<linearGradient id="paint1_linear" x1="-5.32991" y1="5.44185" x2="70.7916" y2="40.9379" gradientUnits="userSpaceOnUse">
<stop stop-color="#EB4C00"/>
<stop offset="1" stop-color="#F2A900"/>
</linearGradient>
</defs>
</svg>
